<?xml version="1.0" encoding="UTF-8"?>
<svg id="Layer_2" data-name="Layer 2" xmlns="http://www.w3.org/2000/svg" viewBox="0 0 591 579.65">
  <defs>
    <style>
      .cls-1 {
        fill: #dedaff;
      }

      .cls-1, .cls-2, .cls-3, .cls-4, .cls-5, .cls-6, .cls-7, .cls-8, .cls-9, .cls-10, .cls-11, .cls-12, .cls-13 {
        stroke-width: 0px;
      }

      .cls-2 {
        fill: #0093ff;
      }

      .cls-3 {
        fill: #c63333;
      }

      .cls-4 {
        fill: #0066c6;
      }

      .cls-5 {
        fill: #ff9333;
      }

      .cls-6 {
        fill: #9333ff;
      }

      .cls-7 {
        fill: #fff;
      }

      .cls-8 {
        fill: #dbe7ff;
      }

      .cls-9 {
        fill: #339366;
      }

      .cls-10 {
        fill: #33c693;
      }

      .cls-11 {
        fill: #f36;
      }

      .cls-12 {
        fill: #c66633;
      }

      .cls-13 {
        fill: #d1c3ff;
      }
    </style>
  </defs>
  <g id="Layer_1-2" data-name="Layer 1">
    <g>
      <g>
        <path class="cls-6" d="m586.92,143.79L298.8.76c-2.07-1.01-4.5-1.01-6.57,0L4.12,143.79c-5.45,2.71-5.45,10.48-.02,13.19l288.14,144.07c2.07,1.03,4.5,1.03,6.57,0l288.14-144.07c5.42-2.71,5.42-10.48-.02-13.19Zm-105.83,6.5s-.07.05-.12.07c-.05.02-.07.05-.11.07l-9.28,4.53-20.2,9.81-151.58,73.7s-.02.02-.05.02l-.53.25c-1.68.8-3.65.8-5.33,0l-.51-.25-153.51-73.84-20.36-9.81h-.02l-9.19-4.44c-5.52-2.64-5.56-10.48-.09-13.24l182.54-91.28c1.65-.85,3.61-.87,5.29-.07.11.05.25.11.39.18.14.02.25.09.39.16l182.12,91.05c.07.05.14.07.21.14,5.19,2.76,5.15,10.23-.05,12.94Z"/>
        <polygon class="cls-1" points="530.15 211.58 530.15 273.29 295.29 390.42 295.26 390.42 295.29 328.72 530.15 211.58"/>
        <path class="cls-6" d="m295.26,328.72v61.7l-232.75-117.13c.09-20.13.21-40.26.3-60.39,77.49,38.61,154.98,77.22,232.45,115.82Z"/>
        <path class="cls-6" d="m.33,263.88c-.11-37.83-.22-75.67-.33-113.5l22.26,11.13c.08,38.04.15,76.07.23,114.11,0,2.1-2.18,3.49-4.09,2.6-4.26-2.01-8.52-4.01-12.77-6.02-3.23-1.52-5.29-4.76-5.3-8.33Z"/>
        <path class="cls-1" d="m0,259.49v92.41c0,.7.35,1.34.94,1.72l36.29,23.42c1.36.88,3.16-.1,3.16-1.72v-95.86c0-.75-.41-1.43-1.06-1.8l-36.29-19.96c-1.37-.75-3.04.24-3.04,1.8Z"/>
        <path class="cls-8" d="m481.09,150.3s-.07.05-.12.07c-.05.02-.07.05-.11.07l-9.31,4.5-20.18,9.81-151.58,73.72s-.02.02-.05.02l-.53.25c-1.68.8-3.65.8-5.33,0l-.51-.25-153.51-73.84-20.36-9.81h-.02l-9.19-4.44c-5.52-2.64-5.56-10.48-.09-13.24l182.54-91.28c1.65-.85,3.61-.87,5.29-.07.11.05.25.11.39.18l182.72,91.35c5.19,2.76,5.15,10.23-.05,12.94Z"/>
        <path class="cls-1" d="m471.57,154.96l-20.2,9.81-151.58,73.7s-.02.02-.05.02l-.53.25c-1.68.8-3.65.8-5.33,0l-.51-.25-153.51-73.84-20.36-9.81c.55-1.22,1.54-2.28,2.94-2.99l170.11-85.05c1.84-.92,4-.92,5.84,0l170.17,85.08c1.4.71,2.41,1.82,2.99,3.06l.02.02Z"/>
        <path class="cls-13" d="m451.37,164.75v.02l-151.58,73.7s-.02.02-.05.02l-.53.25c-1.68.8-3.65.8-5.33,0l-.51-.25-153.51-73.84v-.02l149.95-77.47c3.59-1.86,7.79-1.86,11.38,0l150.18,77.58Z"/>
        <path class="cls-6" d="m293.38,238.5l.51.25c1.68.8,3.65.8,5.33,0l.53-.25c-2.02.97-4.37.97-6.37,0Zm-.64-192.6l-182.54,91.28,182.03-91c1.82-.9,3.91-1.01,5.79-.34-1.68-.8-3.63-.78-5.29.07Zm-152.87,118.74l-20.36-9.79,20.36,9.81,153.51,73.84-153.51-73.86Z"/>
        <path class="cls-4" d="m354.37,196.82l-45.79,22.26c-6.8,3.31-14.75,3.33-21.57.05l-46.41-22.33c-4.3-2.07-4.34-8.17-.08-10.3l47.88-23.94c5.69-2.84,12.38-2.84,18.07,0l47.94,23.97c4.25,2.13,4.22,8.21-.06,10.29Z"/>
        <path class="cls-9" d="m353.85,114.53l-49.5,24.07c-4.27,2.07-9.25,2.09-13.52.03l-50.13-24.11c-4.42-2.13-4.47-8.41-.08-10.6l50.46-25.23c3.87-1.94,8.43-1.94,12.3,0l50.52,25.26c4.38,2.19,4.34,8.45-.06,10.59Z"/>
        <path class="cls-3" d="m279.89,155.02l-48.47,23.57c-5.23,2.54-11.34,2.56-16.59.03l-49.1-23.62c-4.22-2.03-4.26-8.01-.08-10.11l49.68-24.84c4.68-2.34,10.19-2.34,14.87,0l49.74,24.87c4.17,2.09,4.14,8.06-.06,10.1Z"/>
        <path class="cls-12" d="m422.89,159.25l-44.93,21.85c-4.99,2.43-10.82,2.44-15.83.03l-45.53-21.9c-5.82-2.8-5.89-11.07-.11-13.96l46.28-23.14c4.35-2.18,9.48-2.18,13.83,0l46.36,23.18c5.77,2.88,5.72,11.13-.08,13.95Z"/>
        <path class="cls-2" d="m354.37,192.2l-45.79,22.26c-6.8,3.31-14.75,3.33-21.57.05l-46.41-22.33c-4.3-2.07-4.34-8.17-.08-10.3l47.88-23.94c5.69-2.84,12.38-2.84,18.07,0l47.94,23.97c4.25,2.13,4.22,8.21-.06,10.29Z"/>
        <path class="cls-10" d="m353.85,109.92l-49.5,24.07c-4.27,2.07-9.25,2.09-13.52.03l-50.13-24.11c-4.42-2.13-4.47-8.41-.08-10.6l50.46-25.23c3.87-1.94,8.43-1.94,12.3,0l50.52,25.26c4.38,2.19,4.34,8.45-.06,10.59Z"/>
        <path class="cls-11" d="m279.89,150.4l-48.47,23.57c-5.23,2.54-11.34,2.56-16.59.03l-49.1-23.62c-4.22-2.03-4.26-8.01-.08-10.11l49.68-24.84c4.68-2.34,10.19-2.34,14.87,0l49.74,24.87c4.17,2.09,4.14,8.06-.06,10.1Z"/>
        <path class="cls-5" d="m422.89,154.64l-44.93,21.85c-4.99,2.43-10.82,2.44-15.83.03l-45.53-21.9c-5.82-2.8-5.89-11.07-.11-13.96l46.28-23.14c4.35-2.18,9.48-2.18,13.83,0l46.36,23.18c5.77,2.88,5.72,11.13-.08,13.95Z"/>
      </g>
      <g>
        <path class="cls-7" d="m184.38,525.03h14.51v24.97h-16.85c-6.66,0-12.43-1.56-17.32-4.68-5.1,3.12-10.92,4.68-17.48,4.68h-55.71c-9.26,0-16.59-3.12-22-9.36-4.68-5.51-7.02-12.59-7.02-21.22v-12.8l25.59-13.57v25.12c0,2.71.47,4.52,1.4,5.46s2.75,1.4,5.46,1.4h49.93c2.7,0,4.52-.47,5.46-1.4s1.4-2.75,1.4-5.46v-25.59l25.74-13.58v39.17c0,2.71.47,4.52,1.41,5.46s2.75,1.4,5.46,1.4Zm-78.64-47.59c-3.85,0-6.97-1.22-9.36-3.67-2.39-2.44-3.59-5.59-3.59-9.44s1.2-6.94,3.59-9.28c2.39-2.34,5.51-3.51,9.36-3.51s6.94,1.17,9.28,3.51,3.51,5.44,3.51,9.28-1.17,7.13-3.51,9.52-5.44,3.59-9.28,3.59Zm28.09,0c-3.85,0-6.97-1.22-9.36-3.67-2.4-2.44-3.59-5.59-3.59-9.44s1.19-6.94,3.59-9.28c2.39-2.34,5.51-3.51,9.36-3.51s6.94,1.17,9.28,3.51c2.34,2.34,3.51,5.44,3.51,9.28s-1.17,7.13-3.51,9.52c-2.34,2.39-5.44,3.59-9.28,3.59Z"/>
        <path class="cls-7" d="m218.86,460.12l9.36-20.13,48.84-8.74-9.36,19.97-48.84,8.89Z"/>
        <path class="cls-7" d="m287.36,525.03h14.51v24.97h-16.85c-6.45,0-11.96-1.4-16.54-4.21-5.72,4.89-12.8,7.33-21.22,7.33s-15.5-2.45-21.22-7.33c-4.47,2.81-9.99,4.21-16.54,4.21h-16.85v-24.97h14.51c2.7,0,4.52-.47,5.46-1.4s1.4-2.75,1.4-5.46v-4.06c.1-12.38,3.43-22.05,9.99-29.02,5.93-6.14,13.68-9.21,23.25-9.21,11.02,0,19.5,4.01,25.43,12.02,5.1,6.76,7.7,15.5,7.8,26.21v4.06c0,2.71.47,4.52,1.4,5.46s2.75,1.4,5.46,1.4Zm-40.1,3.12c4.99,0,7.49-4.89,7.49-14.67,0-8.95-2.5-13.42-7.49-13.42s-7.49,4.47-7.49,13.42c0,9.78,2.5,14.67,7.49,14.67Z"/>
        <path class="cls-7" d="m306.09,466.52c-3.85,0-6.97-1.22-9.36-3.67-2.39-2.44-3.59-5.59-3.59-9.44s1.2-6.94,3.59-9.28c2.39-2.34,5.51-3.51,9.36-3.51s6.94,1.17,9.28,3.51c2.34,2.34,3.51,5.44,3.51,9.28s-1.17,7.13-3.51,9.52c-2.34,2.4-5.44,3.59-9.28,3.59Zm-7.33,83.48v-24.97h14.51c2.7,0,4.52-.47,5.46-1.4s1.4-2.75,1.4-5.46v-25.59l25.75-13.58v40.41c0,9.88-3.12,17.63-9.36,23.25-5.41,4.89-12.38,7.33-20.91,7.33h-16.85Zm35.42-83.48c-3.85,0-6.97-1.22-9.36-3.67-2.4-2.44-3.59-5.59-3.59-9.44s1.19-6.94,3.59-9.28c2.39-2.34,5.51-3.51,9.36-3.51s6.94,1.17,9.28,3.51,3.51,5.44,3.51,9.28-1.17,7.13-3.51,9.52c-2.34,2.4-5.44,3.59-9.28,3.59Z"/>
        <path class="cls-7" d="m449.17,525.03v24.97h-15.76c-.94,9.68-5.31,17.27-13.11,22.78-6.45,4.58-13.99,6.86-22.63,6.86-6.86,0-13.78-2.13-20.75-6.4v-22.31c6.76,3.95,12.95,5.93,18.57,5.93,2.91,0,5.59-.75,8.03-2.26s3.87-3.3,4.29-5.38c-1.87-.1-4.21-.36-7.02-.78-10.09-1.56-18.1-6.14-24.03-13.73-4.99-6.45-7.49-13.73-7.49-21.85,0-11.75,3.28-21.01,9.83-27.77,5.93-6.14,13.68-9.21,23.25-9.21,10.3,0,18.26,3.12,23.87,9.36,4.89,5.31,7.33,12.23,7.33,20.75v19.04h15.6Zm-30.9-74.59l-6.08,11.39h-32.3l6.08-11.39h5.15c-1.25-2.18-1.87-4.47-1.87-6.86,0-3.85,1.4-7.07,4.21-9.68,2.5-2.39,5.62-3.59,9.36-3.59s7.12,1.41,10.14,4.21v11.08c-2.91-2.6-5.72-3.9-8.43-3.9-1.67,0-2.91.42-3.75,1.25-.73.73-1.09,1.66-1.09,2.81,0,1.46.67,3.02,2.03,4.68h16.54Zm-10.45,55.55c0-3.95-1.82-5.93-5.46-5.93-5.2,0-7.8,3.95-7.8,11.86,0,6.45,2.6,10.35,7.8,11.7.73.21,1.97.47,3.74.78.73,0,1.3.05,1.72.16v-18.57Z"/>
        <path class="cls-7" d="m467.43,506c0-9.78,3.07-17.42,9.21-22.94,5.41-4.78,12.33-7.18,20.75-7.18,10.82,0,19.19,3.95,25.12,11.86,5.1,6.66,7.65,15.03,7.65,25.12,0,11.76-3.23,21.06-9.68,27.93-5.62,6.14-12.9,9.21-21.85,9.21-8.01,0-14.57-1.3-19.66-3.9-4.68,2.6-10.04,3.9-16.07,3.9h-16.85v-24.97h14.51c2.7,0,4.52-.47,5.46-1.4s1.4-2.75,1.4-5.46v-12.17Zm25.75,15.76c0,2.18,1.35,3.28,4.06,3.28,5.1,0,7.65-4.37,7.65-13.11,0-7.91-2.5-11.86-7.49-11.86-2.81,0-4.21,1.67-4.21,4.99v16.7Z"/>
      </g>
    </g>
  </g>
</svg>