<?xml version="1.0" encoding="UTF-8"?>
<svg id="Layer_1" data-name="Layer 1" xmlns="http://www.w3.org/2000/svg" viewBox="0 0 1040.19 190.86">
  <defs>
    <style>
      .cls-1 {
        fill: #fff;
        stroke-width: 0px;
      }
    </style>
  </defs>
  <rect class="cls-1" x="244.34" y="2.43" width="25" height="188"/>
  <rect class="cls-1" x="548.34" y="2.43" width="25" height="188"/>
  <g>
    <rect class="cls-1" x="809.01" y="2.43" width="25" height="188"/>
    <path class="cls-1" d="m1015.19,190.23l-.86-125.03c-15.46-11.79-43.53-28.34-81.38-30.58-52.18-3.1-89.77,22.86-103.5,34.17l-15.89-19.3c16.01-13.17,59.83-43.43,120.86-39.82,48.96,2.9,83.88,26.21,100.33,39.84l4.48,3.72.95,136.83-25,.17Z"/>
  </g>
  <g>
    <g>
      <path class="cls-1" d="m295.72,42.61c.07-.06.15-.12.23-.18v.46l-.23-.28Z"/>
      <path class="cls-1" d="m321.11,54.77s-.06.04-.08.06v-.08l.08.02Z"/>
    </g>
    <g>
      <path class="cls-1" d="m522.12,149.96v.47c-5.38,4.41-13.8,10.66-24.88,16.92-22.25,12.56-55.21,25.11-95.76,22.71-48.96-2.9-83.87-26.21-100.33-39.84l-4.48-3.72,24.91-11.97c15.46,11.79,43.54,28.34,81.38,30.57,42.93,2.55,75.99-14.57,94-27.01l.08.02v-.07s-.05.03-.08.05l-175.75-57-25.05-8.13-.09-13.16-.09-13.18-.03-3.73v-.46c5.38-4.42,13.8-10.67,24.88-16.92,22.24-12.56,55.2-25.12,95.75-22.72,48.97,2.9,83.88,26.21,100.34,39.85l4.48,3.71-24.92,11.98c-15.45-11.79-43.53-28.34-81.37-30.58-42.93-2.55-75.99,14.57-94,27.02l-.08-.02v.08s.05-.04.08-.06l175.74,57,25.06,8.13.09,13.16.09,13.18.03,3.72Z"/>
      <path class="cls-1" d="m497.04,138.11l-.08-.02s.05-.04.07-.05v.07Z"/>
      <path class="cls-1" d="m522.35,150.24c-.07.06-.15.12-.23.19v-.47l.23.28Z"/>
    </g>
  </g>
  <polygon class="cls-1" points="213.84 0 210.4 6.14 205.76 14.42 106.99 190.86 5.96 10.58 5.59 9.92 0 0 28.69 0 106.98 139.7 185.18 0 213.84 0"/>
  <path class="cls-1" d="m690.58,190.55c-51.9,0-94.12-42.22-94.12-94.12S638.68,2.31,690.58,2.31s94.12,42.22,94.12,94.12-42.22,94.12-94.12,94.12Zm0-166.33c-39.82,0-72.22,32.4-72.22,72.22s32.4,72.22,72.22,72.22,72.22-32.4,72.22-72.22-32.4-72.22-72.22-72.22Z"/>
</svg>