<?xml version="1.0" encoding="UTF-8"?>
<svg id="Layer_2" data-name="Layer 2" xmlns="http://www.w3.org/2000/svg" viewBox="0 0 866.09 656.62">
  <defs>
    <style>
      .cls-1 {
        fill: #dedaff;
      }

      .cls-1, .cls-2, .cls-3, .cls-4, .cls-5, .cls-6, .cls-7, .cls-8, .cls-9, .cls-10, .cls-11 {
        stroke-width: 0px;
      }

      .cls-2 {
        fill: #0093ff;
      }

      .cls-3 {
        fill: #c63333;
      }

      .cls-4 {
        fill: #0066c6;
      }

      .cls-5 {
        fill: #ff9333;
      }

      .cls-6 {
        fill: none;
      }

      .cls-7 {
        fill: #fff;
      }

      .cls-8 {
        fill: #339366;
      }

      .cls-9 {
        fill: #33c693;
      }

      .cls-10 {
        fill: #f36;
      }

      .cls-11 {
        fill: #c66633;
      }
    </style>
  </defs>
  <g id="Layer_1-2" data-name="Layer 1">
    <g>
      <line class="cls-6" x1="473.14" y1="95.42" x2="473.13" y2="95.42"/>
      <g>
        <path class="cls-7" d="m345.79,612.25h1.04v1.9h-1.31c-2.18,0-3.7-.86-4.55-2.57-1.06,1.1-2.36,1.65-3.91,1.65-1.75,0-3.14-.66-4.16-1.99-.86-1.12-1.28-2.52-1.28-4.19,0-1.96.57-3.52,1.71-4.71,1-1.04,2.23-1.56,3.7-1.56,1.32,0,2.43.39,3.33,1.16v-1.65l2.05-1.07v9.54c0,2.32,1.13,3.48,3.39,3.48Zm-5.44-7.98c-.9-1.08-1.99-1.62-3.27-1.62-1.02,0-1.85.41-2.49,1.24-.64.83-.96,1.89-.96,3.19s.32,2.38.96,3.18c.64.79,1.48,1.19,2.52,1.19,1.32,0,2.42-.58,3.3-1.74-.04-.37-.06-.66-.06-.89v-4.55Zm-3.97-7.4c-.83,0-1.25-.43-1.25-1.28s.42-1.22,1.25-1.22,1.19.41,1.19,1.22c0,.86-.4,1.28-1.19,1.28Zm3.48,0c-.83,0-1.25-.43-1.25-1.28s.42-1.22,1.25-1.22,1.19.41,1.19,1.22c0,.86-.4,1.28-1.19,1.28Z"/>
        <path class="cls-7" d="m356.06,612.25h1.07v1.9h-1.31c-1.83,0-3.21-.62-4.13-1.86-.96,1.24-2.34,1.86-4.16,1.86h-1.31v-1.9h1.07c2.24,0,3.36-1.16,3.36-3.48v-6.63l2.05-1.07v7.7c0,2.32,1.12,3.48,3.36,3.48Zm-6.94,5.1c.82,0,1.22.42,1.22,1.25s-.41,1.25-1.22,1.25-1.22-.42-1.22-1.25.41-1.25,1.22-1.25Zm3.48,0c.82,0,1.22.42,1.22,1.25s-.41,1.25-1.22,1.25-1.22-.42-1.22-1.25.41-1.25,1.22-1.25Z"/>
        <path class="cls-7" d="m356.52,614.14v-1.9h1.07c2.24,0,3.36-1.16,3.36-3.48v-6.63l2.05-1.07v7.76c0,1.71-.5,3.05-1.5,4-.92.88-2.14,1.31-3.67,1.31h-1.31Zm5.32-17.12c-.84,0-1.25-.43-1.25-1.28s.42-1.22,1.25-1.22,1.19.41,1.19,1.22c0,.86-.4,1.28-1.19,1.28Z"/>
        <path class="cls-7" d="m376.32,613.01c-.86.49-1.96.73-3.3.73-1.77,0-3.16-.68-4.16-2.05-.86-1.16-1.28-2.63-1.28-4.4,0-2.14.57-3.81,1.71-5.01,1-1.06,2.32-1.59,3.97-1.59s3,.53,3.91,1.59c.79.92,1.19,2.14,1.19,3.67v6.72c0,1.9-.4,3.46-1.19,4.69-.79,1.23-1.92,2.02-3.39,2.37-.49.14-1.02.21-1.59.21-1.18,0-2.33-.29-3.45-.86v-1.8c1.06.57,2.11.86,3.15.86.83,0,1.57-.18,2.2-.55,1.43-.71,2.17-2.24,2.23-4.58Zm0-6.88c0-2.38-1.02-3.58-3.06-3.58-1.14,0-2.04.42-2.71,1.25s-.99,1.99-.99,3.45.32,2.56.95,3.41c.63.85,1.49,1.27,2.57,1.27,1.61,0,2.69-.45,3.24-1.34v-4.46Z"/>
        <path class="cls-7" d="m392.95,612.25h1.07v1.9h-1.31c-1.26,0-2.31-.31-3.15-.92-.16,3.38-1.53,5.52-4.1,6.42-.65.22-1.34.34-2.08.34-1.18,0-2.32-.29-3.42-.86v-1.8c1.04.57,2.1.86,3.18.86.86,0,1.61-.19,2.26-.58,1.43-.86,2.14-2.46,2.14-4.8v-10.67l2.02-1.07v.03l.03-.03v7.7c0,2.32,1.12,3.48,3.36,3.48Z"/>
        <path class="cls-7" d="m403.25,612.25h1.07v1.9h-1.31c-1.83,0-3.21-.62-4.13-1.86-.96,1.24-2.34,1.86-4.16,1.86h-1.31v-1.9h1.07c2.24,0,3.36-1.16,3.36-3.48v-6.63l2.05-1.07v7.7c0,2.32,1.12,3.48,3.36,3.48Zm-6.75-15.13c-.82,0-1.22-.42-1.22-1.25s.41-1.25,1.22-1.25,1.22.42,1.22,1.25-.41,1.25-1.22,1.25Zm3.48,0c-.82,0-1.22-.42-1.22-1.25s.41-1.25,1.22-1.25,1.22.42,1.22,1.25-.41,1.25-1.22,1.25Z"/>
        <path class="cls-7" d="m419.94,612.25h.76v1.9h-1.01c-1.83,0-3.21-.62-4.13-1.86-.92,1.24-2.3,1.86-4.16,1.86h-7.7v-1.9h7.49c2.22,0,3.33-1.19,3.33-3.58v-.31c0-1.67-.61-2.92-1.83-3.76-.98-.69-2.2-1.04-3.67-1.04-1.1,0-2.19.19-3.27.58v-2.02l6.94-7.7h2.11l-6.27,7.09c.2-.02.42-.03.64-.03,1.96,0,3.59.5,4.89,1.5,1.67,1.28,2.51,3.07,2.51,5.35v.43c0,2.32,1.12,3.48,3.36,3.48Z"/>
        <path class="cls-7" d="m420.09,614.14v-1.9h.86c2.32,0,3.48-1.2,3.48-3.61v-13.14l2.05-1.07v14.24c0,1.73-.51,3.1-1.53,4.1-.96.92-2.22,1.38-3.79,1.38h-1.07Z"/>
        <path class="cls-7" d="m430.24,621.35l.58-1.1h.79c-.2-.37-.31-.73-.31-1.1,0-.57.21-1.06.64-1.48.43-.42.94-.63,1.53-.63.45,0,.89.13,1.31.4v1.16c-.41-.31-.8-.46-1.19-.46-.33,0-.6.11-.83.32-.22.21-.34.46-.34.75,0,.35.14.69.43,1.04h2.69l-.58,1.1h-4.74Zm1.74-7.21v-18.64l2.05-1.07v19.71h-2.05Z"/>
        <path class="cls-7" d="m451.82,614.14c-1.51,0-2.71-.47-3.61-1.42-.9-.95-1.34-2.23-1.34-3.84v-4l2.05-1.07v4.83c0,2.4,1.12,3.61,3.36,3.61h10.24c2.24,0,3.36-1.2,3.36-3.61v-6.51l2.05-1.07v7.82c0,1.73-.53,3.08-1.59,4.03-.92.82-2.12,1.22-3.61,1.22h-10.91Zm3.15-14.21c-.82,0-1.22-.43-1.22-1.28s.41-1.22,1.22-1.22,1.22.41,1.22,1.22c0,.86-.41,1.28-1.22,1.28Zm3.51,0c-.84,0-1.25-.43-1.25-1.28s.42-1.22,1.25-1.22,1.19.41,1.19,1.22c0,.86-.4,1.28-1.19,1.28Z"/>
        <path class="cls-7" d="m473.42,614.14v-18.64l2.05-1.07v19.71h-2.05Z"/>
        <path class="cls-7" d="m486.96,612.67c0,3.71-1.37,6.03-4.1,6.97-.65.22-1.34.34-2.08.34-1.18,0-2.32-.29-3.42-.86v-1.8c1.04.57,2.1.86,3.18.86.86,0,1.61-.19,2.26-.58,1.43-.86,2.14-2.46,2.14-4.8v-10.67l2.02-1.07v11.61Z"/>
        <path class="cls-7" d="m497.63,614.14c-1.73,0-3.07-.56-4-1.68-.77-.96-1.16-2.17-1.16-3.64v-13.33l2.05-1.07v14.33c0,2.32,1.12,3.48,3.36,3.48h1.07v1.9h-1.31Z"/>
        <path class="cls-7" d="m508.18,612.25h1.07v1.9h-1.31c-1.83,0-3.21-.62-4.13-1.86-.96,1.24-2.34,1.86-4.16,1.86h-1.31v-1.9h1.07c2.24,0,3.36-1.16,3.36-3.48v-6.63l2.05-1.07v7.7c0,2.32,1.12,3.48,3.36,3.48Zm-4.71,5.1c.79,0,1.19.41,1.19,1.22,0,.86-.4,1.28-1.19,1.28-.84,0-1.25-.43-1.25-1.28s.42-1.22,1.25-1.22Z"/>
        <path class="cls-7" d="m518.48,612.25h1.07v1.9h-1.31c-1.83,0-3.21-.62-4.13-1.86-.96,1.24-2.34,1.86-4.16,1.86h-1.31v-1.9h1.07c2.24,0,3.36-1.16,3.36-3.48v-6.63l2.05-1.07v7.7c0,2.32,1.12,3.48,3.36,3.48Zm-6.75-15.13c-.82,0-1.22-.42-1.22-1.25s.41-1.25,1.22-1.25,1.22.42,1.22,1.25-.41,1.25-1.22,1.25Zm3.48,0c-.82,0-1.22-.42-1.22-1.25s.41-1.25,1.22-1.25,1.22.42,1.22,1.25-.41,1.25-1.22,1.25Z"/>
        <path class="cls-7" d="m518.93,614.14v-1.9h3.42c4.44,0,7.91-1.51,10.39-4.52-1.81-3.46-4-5.2-6.57-5.2-1.75,0-3.46.89-5.13,2.66v-2.02c1.67-1.65,3.41-2.48,5.23-2.48h.06c3.2,0,5.97,2.16,8.31,6.48v1.25c-2.98,3.81-7.08,5.72-12.32,5.72h-3.39Zm8.56-17.12c-.83,0-1.25-.43-1.25-1.28s.42-1.22,1.25-1.22,1.19.41,1.19,1.22c0,.86-.4,1.28-1.19,1.28Z"/>
        <path class="cls-7" d="m538.92,614.14v-18.64l2.05-1.07v19.71h-2.05Z"/>
        <path class="cls-7" d="m412.08,648.92h1.04v1.9h-1.31c-2.18,0-3.7-.86-4.55-2.57-1.06,1.1-2.36,1.65-3.91,1.65-1.75,0-3.14-.66-4.16-1.99-.86-1.12-1.28-2.52-1.28-4.19,0-1.96.57-3.52,1.71-4.71,1-1.04,2.23-1.56,3.7-1.56,1.32,0,2.43.39,3.33,1.16v-1.65l2.05-1.07v9.54c0,2.32,1.13,3.48,3.39,3.48Zm-5.44-7.98c-.9-1.08-1.99-1.62-3.27-1.62-1.02,0-1.85.41-2.49,1.24-.64.83-.96,1.89-.96,3.19s.32,2.38.96,3.18c.64.79,1.48,1.19,2.52,1.19,1.32,0,2.42-.58,3.3-1.74-.04-.37-.06-.66-.06-.89v-4.55Zm-3.97-7.4c-.83,0-1.25-.43-1.25-1.28s.42-1.22,1.25-1.22,1.19.41,1.19,1.22c0,.86-.4,1.28-1.19,1.28Zm3.48,0c-.83,0-1.25-.43-1.25-1.28s.42-1.22,1.25-1.22,1.19.41,1.19,1.22c0,.86-.4,1.28-1.19,1.28Z"/>
        <path class="cls-7" d="m422.35,648.92h1.07v1.9h-1.31c-1.83,0-3.21-.62-4.13-1.86-.96,1.24-2.34,1.86-4.16,1.86h-1.31v-1.9h1.07c2.24,0,3.36-1.16,3.36-3.48v-6.63l2.05-1.07v7.7c0,2.32,1.12,3.48,3.36,3.48Zm-6.75-15.13c-.82,0-1.22-.42-1.22-1.25s.41-1.25,1.22-1.25,1.22.42,1.22,1.25-.41,1.25-1.22,1.25Zm3.48,0c-.82,0-1.22-.42-1.22-1.25s.41-1.25,1.22-1.25,1.22.42,1.22,1.25-.41,1.25-1.22,1.25Z"/>
        <path class="cls-7" d="m442.04,648.92h1.04v1.9h-1.31c-1.85,0-3.24-.64-4.16-1.93-1.02,1.69-2.57,2.54-4.65,2.54s-3.65-.84-4.65-2.51c-.94,1.26-2.33,1.9-4.19,1.9h-1.31v-1.9h1.07c2.24,0,3.36-1.16,3.36-3.48v-1.04c0-2.34.57-4.14,1.71-5.38,1-1.1,2.33-1.65,4-1.65,1.92,0,3.37.71,4.37,2.14.88,1.22,1.31,2.85,1.31,4.89v1.04c0,2.32,1.13,3.48,3.39,3.48Zm-9.08.61c1.12,0,2.01-.46,2.66-1.39.65-.93.98-2.19.98-3.77,0-3.42-1.21-5.13-3.64-5.13s-3.67,1.71-3.67,5.13,1.22,5.17,3.67,5.17Z"/>
        <path class="cls-7" d="m442.46,650.82v-1.9h1.07c2.24,0,3.36-1.16,3.36-3.48v-6.63l2.05-1.07v7.76c0,1.71-.5,3.05-1.5,4-.92.88-2.14,1.31-3.67,1.31h-1.31Zm1.83-17.12c-.84,0-1.25-.43-1.25-1.28s.42-1.22,1.25-1.22,1.19.41,1.19,1.22c0,.86-.4,1.28-1.19,1.28Zm3.48,0c-.84,0-1.25-.43-1.25-1.28s.42-1.22,1.25-1.22,1.19.41,1.19,1.22c0,.86-.4,1.28-1.19,1.28Z"/>
        <path class="cls-7" d="m467.86,648.92v1.9h-3.24c-.02,1.34-.45,2.53-1.3,3.56-.85,1.03-1.94,1.71-3.29,2.03-.49.14-1.02.21-1.59.21-1.18,0-2.33-.29-3.45-.86v-1.8c1.06.57,2.11.86,3.15.86.83,0,1.57-.18,2.2-.55.63-.33,1.16-.82,1.59-1.48s.64-1.32.64-1.97l-2.6-.09c-2.26-.1-3.95-.81-5.07-2.14-.92-1.12-1.38-2.62-1.38-4.49,0-2.2.57-3.9,1.71-5.1,1.02-1.08,2.38-1.62,4.09-1.62s3.13.53,4.07,1.59c.81.92,1.22,2.14,1.22,3.67v6.3h3.24Zm-5.29-6.08c0-2.4-1.08-3.61-3.24-3.61-1.2,0-2.13.42-2.8,1.27-.66.85-.99,2.03-.99,3.56,0,3.04,1.5,4.63,4.49,4.77.9.06,1.74.09,2.54.09v-6.08Zm-1.38-10.27l-.58,1.1h-4.74l.58-1.1h.79c-.2-.37-.31-.73-.31-1.1,0-.57.21-1.06.64-1.48.43-.42.94-.63,1.53-.63.45,0,.89.13,1.31.4v1.16c-.41-.31-.8-.46-1.19-.46-.33,0-.6.11-.83.32-.22.21-.34.46-.34.75,0,.35.14.69.43,1.04h2.69Z"/>
        <path class="cls-7" d="m471.68,642.63c0-1.73.52-3.08,1.56-4.03.9-.81,2.08-1.22,3.55-1.22,1.89,0,3.35.69,4.37,2.08.88,1.18,1.31,2.73,1.31,4.65,0,2.18-.56,3.88-1.68,5.1-.98,1.08-2.25,1.62-3.82,1.62-1.92,0-3.34-.61-4.28-1.83-.92,1.22-2.29,1.83-4.13,1.83h-1.31v-1.9h1.07c2.24,0,3.36-1.16,3.36-3.48v-2.81Zm2.05,2.93c0,2.24,1.1,3.36,3.3,3.36,1.06,0,1.9-.43,2.51-1.28s.92-2.05.92-3.58-.32-2.69-.96-3.55c-.64-.86-1.54-1.28-2.71-1.28-2.04,0-3.06,1.19-3.06,3.58v2.75Z"/>
      </g>
      <g>
        <path class="cls-7" d="m87.07,425.75l.98-1.9h5.75c.94,0,1.59-.23,1.97-.7.38-.47.57-1.28.57-2.44,0-2.98-1.3-5.21-3.91-6.69l.98-1.68c3.32,1.94,4.98,4.74,4.98,8.4,0,3.34-1.42,5.01-4.25,5.01h-7.06Z"/>
        <path class="cls-7" d="m103.24,425.75v-18.64l2.05-1.07v19.71h-2.05Z"/>
        <path class="cls-7" d="m124.21,423.85v1.9h-3.24c-.02,1.34-.45,2.53-1.3,3.56-.85,1.03-1.94,1.71-3.29,2.03-.49.14-1.02.21-1.59.21-1.18,0-2.33-.29-3.45-.86v-1.8c1.06.57,2.11.86,3.15.86.83,0,1.57-.18,2.2-.55.63-.33,1.16-.82,1.59-1.48s.64-1.32.64-1.97l-2.6-.09c-2.26-.1-3.95-.81-5.07-2.14-.92-1.12-1.38-2.62-1.38-4.49,0-2.2.57-3.9,1.71-5.1,1.02-1.08,2.38-1.62,4.09-1.62s3.13.53,4.07,1.59c.81.92,1.22,2.14,1.22,3.67v6.3h3.24Zm-5.29-6.08c0-2.4-1.08-3.61-3.24-3.61-1.2,0-2.13.42-2.8,1.27-.66.85-.99,2.03-.99,3.56,0,3.04,1.5,4.63,4.49,4.77.9.06,1.74.09,2.54.09v-6.08Z"/>
        <path class="cls-7" d="m142.82,423.85h1.04v1.9h-1.31c-1.85,0-3.24-.64-4.16-1.93-1.02,1.69-2.57,2.54-4.65,2.54s-3.65-.84-4.65-2.51c-.94,1.26-2.33,1.9-4.19,1.9h-1.31v-1.9h1.07c2.24,0,3.36-1.16,3.36-3.48v-1.04c0-2.34.57-4.14,1.71-5.38,1-1.1,2.33-1.65,4-1.65,1.92,0,3.37.71,4.37,2.14.88,1.22,1.31,2.85,1.31,4.89v1.04c0,2.32,1.13,3.48,3.39,3.48Zm-9.08.61c1.12,0,2.01-.46,2.66-1.39.65-.93.98-2.19.98-3.77,0-3.42-1.21-5.13-3.64-5.13s-3.67,1.71-3.67,5.13,1.22,5.17,3.67,5.17Z"/>
        <path class="cls-7" d="m143.25,425.75v-1.9h.86c2.32,0,3.48-1.2,3.48-3.61v-13.14l2.05-1.07v14.24c0,1.73-.51,3.1-1.53,4.1-.96.92-2.22,1.38-3.79,1.38h-1.07Z"/>
        <path class="cls-7" d="m155.14,425.75v-18.64l2.05-1.07v19.71h-2.05Z"/>
        <path class="cls-7" d="m176.84,424.99c-.2.12-.54.32-1.01.58l-.06.03c-1.67.94-2.79,1.74-3.35,2.41-.56.67-.84,1.57-.84,2.69,0,1.35.46,2.45,1.39,3.32.93.87,2.12,1.3,3.59,1.3h.06c2.32,0,4.19-.52,5.59-1.56v1.86c-1.67,1.06-3.56,1.59-5.66,1.59s-3.95-.72-5.26-2.17c-1.08-1.22-1.62-2.69-1.62-4.4,0-1.45.36-2.61,1.07-3.48.71-.88,2.15-1.92,4.31-3.12-1.77-1.2-3.65-3.21-5.62-6.02v-1.25c2.12-2.97,4.62-4.46,7.49-4.46,1.34,0,2.68.4,4,1.19,1.32.79,2.5,1.91,3.51,3.33v1.19c-1.41,1.94-3.29,3.82-5.65,5.65.53.12,1.08.18,1.65.18h7.4v1.9h-7.52c-1.2,0-2.36-.25-3.48-.76Zm-5.62-7.55c2.14,2.81,4.02,4.65,5.65,5.5,2.1-1.47,4.04-3.32,5.81-5.56-1.63-2.14-3.55-3.21-5.75-3.21h-.09c-2.1,0-3.97,1.09-5.62,3.27Z"/>
        <path class="cls-7" d="m197.07,423.85h1.07v1.9h-1.31c-1.83,0-3.21-.62-4.13-1.86-.96,1.24-2.34,1.86-4.16,1.86h-1.31v-1.9h1.07c2.24,0,3.36-1.16,3.36-3.48v-6.63l2.05-1.07v7.7c0,2.32,1.12,3.48,3.36,3.48Zm-6.94,5.1c.82,0,1.22.42,1.22,1.25s-.41,1.25-1.22,1.25-1.22-.42-1.22-1.25.41-1.25,1.22-1.25Zm3.48,0c.82,0,1.22.42,1.22,1.25s-.41,1.25-1.22,1.25-1.22-.42-1.22-1.25.41-1.25,1.22-1.25Z"/>
        <path class="cls-7" d="m216.75,423.85h1.04v1.9h-1.31c-1.85,0-3.24-.64-4.16-1.93-1.02,1.69-2.57,2.54-4.65,2.54s-3.65-.84-4.65-2.51c-.94,1.26-2.33,1.9-4.19,1.9h-1.31v-1.9h1.07c2.24,0,3.36-1.16,3.36-3.48v-1.04c0-2.34.57-4.14,1.71-5.38,1-1.1,2.33-1.65,4-1.65,1.92,0,3.37.71,4.37,2.14.88,1.22,1.31,2.85,1.31,4.89v1.04c0,2.32,1.13,3.48,3.39,3.48Zm-9.08.61c1.12,0,2.01-.46,2.66-1.39.65-.93.98-2.19.98-3.77,0-3.42-1.21-5.13-3.64-5.13s-3.67,1.71-3.67,5.13,1.22,5.17,3.67,5.17Z"/>
        <path class="cls-7" d="m217.18,425.75v-1.9h3.42c4.44,0,7.91-1.51,10.39-4.52-1.81-3.46-4-5.2-6.57-5.2-1.75,0-3.46.89-5.13,2.66v-2.02c1.67-1.65,3.41-2.48,5.23-2.48h.06c3.2,0,5.97,2.16,8.31,6.48v1.25c-2.98,3.81-7.08,5.72-12.32,5.72h-3.39Zm8.07,5.72c-.84,0-1.25-.43-1.25-1.28s.42-1.22,1.25-1.22,1.19.41,1.19,1.22c0,.86-.4,1.28-1.19,1.28Z"/>
        <path class="cls-7" d="m126.06,460.53h1.04v1.9h-1.31c-2.18,0-3.7-.86-4.55-2.57-1.06,1.1-2.36,1.65-3.91,1.65-1.75,0-3.14-.66-4.16-1.99-.86-1.12-1.28-2.52-1.28-4.19,0-1.96.57-3.52,1.71-4.71,1-1.04,2.23-1.56,3.7-1.56,1.32,0,2.43.39,3.33,1.16v-1.65l2.05-1.07v9.54c0,2.32,1.13,3.48,3.39,3.48Zm-5.44-7.98c-.9-1.08-1.99-1.62-3.27-1.62-1.02,0-1.85.41-2.49,1.24-.64.83-.96,1.89-.96,3.19s.32,2.38.96,3.18c.64.79,1.48,1.19,2.52,1.19,1.32,0,2.42-.58,3.3-1.74-.04-.37-.06-.66-.06-.89v-4.55Zm-3.97-7.4c-.83,0-1.25-.43-1.25-1.28s.42-1.22,1.25-1.22,1.19.41,1.19,1.22c0,.86-.4,1.28-1.19,1.28Zm3.48,0c-.83,0-1.25-.43-1.25-1.28s.42-1.22,1.25-1.22,1.19.41,1.19,1.22c0,.86-.4,1.28-1.19,1.28Z"/>
        <path class="cls-7" d="m136.33,460.53h1.07v1.9h-1.31c-1.83,0-3.21-.62-4.13-1.86-.96,1.24-2.34,1.86-4.16,1.86h-1.31v-1.9h1.07c2.24,0,3.36-1.16,3.36-3.48v-6.63l2.05-1.07v7.7c0,2.32,1.12,3.48,3.36,3.48Zm-6.75-15.13c-.82,0-1.22-.42-1.22-1.25s.41-1.25,1.22-1.25,1.22.42,1.22,1.25-.41,1.25-1.22,1.25Zm3.48,0c-.82,0-1.22-.42-1.22-1.25s.41-1.25,1.22-1.25,1.22.42,1.22,1.25-.41,1.25-1.22,1.25Z"/>
        <path class="cls-7" d="m156.01,460.53h1.04v1.9h-1.31c-1.85,0-3.24-.64-4.16-1.93-1.02,1.69-2.57,2.54-4.65,2.54s-3.65-.84-4.65-2.51c-.94,1.26-2.33,1.9-4.19,1.9h-1.31v-1.9h1.07c2.24,0,3.36-1.16,3.36-3.48v-1.04c0-2.34.57-4.14,1.71-5.38,1-1.1,2.33-1.65,4-1.65,1.92,0,3.37.71,4.37,2.14.88,1.22,1.31,2.85,1.31,4.89v1.04c0,2.32,1.13,3.48,3.39,3.48Zm-9.08.61c1.12,0,2.01-.46,2.66-1.39.65-.93.98-2.19.98-3.77,0-3.42-1.21-5.13-3.64-5.13s-3.67,1.71-3.67,5.13,1.22,5.17,3.67,5.17Z"/>
        <path class="cls-7" d="m156.44,462.43v-1.9h1.07c2.24,0,3.36-1.16,3.36-3.48v-6.63l2.05-1.07v7.76c0,1.71-.5,3.05-1.5,4-.92.88-2.14,1.31-3.67,1.31h-1.31Zm1.83-17.12c-.84,0-1.25-.43-1.25-1.28s.42-1.22,1.25-1.22,1.19.41,1.19,1.22c0,.86-.4,1.28-1.19,1.28Zm3.48,0c-.84,0-1.25-.43-1.25-1.28s.42-1.22,1.25-1.22,1.19.41,1.19,1.22c0,.86-.4,1.28-1.19,1.28Z"/>
        <path class="cls-7" d="m181.84,460.53v1.9h-3.24c-.02,1.34-.45,2.53-1.3,3.56-.85,1.03-1.94,1.71-3.29,2.03-.49.14-1.02.21-1.59.21-1.18,0-2.33-.29-3.45-.86v-1.8c1.06.57,2.11.86,3.15.86.83,0,1.57-.18,2.2-.55.63-.33,1.16-.82,1.59-1.48s.64-1.32.64-1.97l-2.6-.09c-2.26-.1-3.95-.81-5.07-2.14-.92-1.12-1.38-2.62-1.38-4.49,0-2.2.57-3.9,1.71-5.1,1.02-1.08,2.38-1.62,4.09-1.62s3.13.53,4.07,1.59c.81.92,1.22,2.14,1.22,3.67v6.3h3.24Zm-5.29-6.08c0-2.4-1.08-3.61-3.24-3.61-1.2,0-2.13.42-2.8,1.27-.66.85-.99,2.03-.99,3.56,0,3.04,1.5,4.63,4.49,4.77.9.06,1.74.09,2.54.09v-6.08Zm-1.38-10.27l-.58,1.1h-4.74l.58-1.1h.79c-.2-.37-.31-.73-.31-1.1,0-.57.21-1.06.64-1.48.43-.42.94-.63,1.53-.63.45,0,.89.13,1.31.4v1.16c-.41-.31-.8-.46-1.19-.46-.33,0-.6.11-.83.32-.22.21-.34.46-.34.75,0,.35.14.69.43,1.04h2.69Z"/>
        <path class="cls-7" d="m200.45,460.53h1.04v1.9h-1.31c-1.85,0-3.24-.64-4.16-1.93-1.02,1.69-2.57,2.54-4.65,2.54s-3.65-.84-4.65-2.51c-.94,1.26-2.33,1.9-4.19,1.9h-1.31v-1.9h1.07c2.24,0,3.36-1.16,3.36-3.48v-1.04c0-2.34.57-4.14,1.71-5.38,1-1.1,2.33-1.65,4-1.65,1.92,0,3.37.71,4.37,2.14.88,1.22,1.31,2.85,1.31,4.89v1.04c0,2.32,1.13,3.48,3.39,3.48Zm-9.08.61c1.12,0,2.01-.46,2.66-1.39.65-.93.98-2.19.98-3.77,0-3.42-1.21-5.13-3.64-5.13s-3.67,1.71-3.67,5.13,1.22,5.17,3.67,5.17Z"/>
        <path class="cls-7" d="m200.88,462.43v-1.9h.86c2.32,0,3.48-1.2,3.48-3.61v-13.14l2.05-1.07v14.24c0,1.73-.51,3.1-1.53,4.1-.96.92-2.22,1.38-3.79,1.38h-1.07Z"/>
        <path class="cls-7" d="m212.77,462.43v-18.64l2.05-1.07v19.71h-2.05Z"/>
      </g>
      <g>
        <path class="cls-7" d="m657.67,429.74h1.04v1.9h-1.31c-2.18,0-3.7-.86-4.55-2.57-1.06,1.1-2.36,1.65-3.91,1.65-1.75,0-3.14-.66-4.16-1.99-.86-1.12-1.28-2.52-1.28-4.19,0-1.96.57-3.52,1.71-4.71,1-1.04,2.23-1.56,3.7-1.56,1.32,0,2.43.39,3.33,1.16v-1.65l2.05-1.07v9.54c0,2.32,1.13,3.48,3.39,3.48Zm-5.44-7.98c-.9-1.08-1.99-1.62-3.27-1.62-1.02,0-1.85.41-2.49,1.24-.64.83-.96,1.89-.96,3.19s.32,2.38.96,3.18c.64.79,1.48,1.19,2.52,1.19,1.32,0,2.42-.58,3.3-1.74-.04-.37-.06-.66-.06-.89v-4.55Zm-3.97-7.4c-.83,0-1.25-.43-1.25-1.28s.42-1.22,1.25-1.22,1.19.41,1.19,1.22c0,.86-.4,1.28-1.19,1.28Zm3.48,0c-.83,0-1.25-.43-1.25-1.28s.42-1.22,1.25-1.22,1.19.41,1.19,1.22c0,.86-.4,1.28-1.19,1.28Z"/>
        <path class="cls-7" d="m659.1,437.35c-.83,0-1.25-.43-1.25-1.28s.42-1.22,1.25-1.22,1.19.41,1.19,1.22c0,.86-.4,1.28-1.19,1.28Zm-1.01-5.72v-1.9h1.07c2.24,0,3.36-1.16,3.36-3.48v-6.63l2.05-1.07v7.76c0,1.71-.5,3.05-1.5,4-.92.88-2.14,1.31-3.67,1.31h-1.31Zm4.49,5.72c-.84,0-1.25-.43-1.25-1.28s.42-1.22,1.25-1.22,1.19.41,1.19,1.22c0,.86-.4,1.28-1.19,1.28Z"/>
        <path class="cls-7" d="m676.07,430.17c0,3.71-1.37,6.03-4.1,6.97-.65.22-1.34.34-2.08.34-1.18,0-2.32-.29-3.42-.86v-1.8c1.04.57,2.1.86,3.18.86.86,0,1.61-.19,2.26-.58,1.43-.86,2.14-2.46,2.14-4.8v-10.67l2.02-1.07v11.61Z"/>
        <path class="cls-7" d="m694.99,429.74v1.9h-3.24c-.02,1.34-.45,2.53-1.3,3.56-.85,1.03-1.94,1.71-3.29,2.03-.49.14-1.02.21-1.59.21-1.18,0-2.33-.29-3.45-.86v-1.8c1.06.57,2.11.86,3.15.86.83,0,1.57-.18,2.2-.55.63-.33,1.16-.82,1.59-1.48s.64-1.32.64-1.97l-2.6-.09c-2.26-.1-3.95-.81-5.07-2.14-.92-1.12-1.38-2.62-1.38-4.49,0-2.2.57-3.9,1.71-5.1,1.02-1.08,2.38-1.62,4.09-1.62s3.13.53,4.07,1.59c.81.92,1.22,2.14,1.22,3.67v6.3h3.24Zm-5.29-6.08c0-2.4-1.08-3.61-3.24-3.61-1.2,0-2.13.42-2.8,1.27-.66.85-.99,2.03-.99,3.56,0,3.04,1.5,4.63,4.49,4.77.9.06,1.74.09,2.54.09v-6.08Z"/>
        <path class="cls-7" d="m694.38,431.64v-1.9h5.2c-1.12-1.12-1.68-2.73-1.68-4.83s.57-3.9,1.71-5.1c1-1.08,2.32-1.62,3.97-1.62s3,.53,3.91,1.59c.79.92,1.19,2.14,1.19,3.67v2.96c-.02,1.65-.52,2.94-1.5,3.88-.9.9-2.12,1.34-3.67,1.34h-9.14Zm12.29-8.01c0-2.38-1.03-3.58-3.09-3.58-1.14,0-2.03.42-2.67,1.27-.64.85-.96,2.03-.96,3.56s.31,2.67.93,3.55c.62.88,1.45,1.31,2.49,1.31,2.2,0,3.3-1.14,3.3-3.42v-2.69Zm-3-9.05c-.84,0-1.25-.43-1.25-1.28s.42-1.22,1.25-1.22,1.19.41,1.19,1.22c0,.86-.4,1.28-1.19,1.28Z"/>
        <path class="cls-7" d="m739.21,429.74h1.07v1.9h-1.1c-1.75,0-3.15-.21-4.19-.64-1.04-.43-2-1.18-2.87-2.26-.71.27-1.8.54-3.27.83-2.4.47-4.02,1.12-4.86,1.96-1,1-1.5,2.4-1.5,4.22s.58,3.14,1.74,4.16c.98.88,2.23,1.31,3.76,1.31h.06c2.32,0,4.19-.52,5.59-1.56v1.86c-1.67,1.06-3.57,1.59-5.68,1.59-2.28,0-4.12-.76-5.5-2.29-1.24-1.37-1.86-3.08-1.86-5.13,0-2.2.67-4,2.02-5.41.61-.63,1.31-1.12,2.11-1.45.79-.34,2.01-.66,3.64-.96,1.67-.33,2.89-.67,3.67-1.02.77-.36,1.45-.88,2.02-1.57-1.77-3.48-3.96-5.23-6.57-5.23-1.77,0-3.48.89-5.13,2.66v-2.02c1.67-1.65,3.41-2.48,5.23-2.48h.06c3.2,0,5.97,2.16,8.31,6.48v1.25c-.61.84-1.39,1.53-2.32,2.08.65.65,1.39,1.11,2.22,1.36s1.95.38,3.38.38Zm-12.32,5.93c0-.77.39-1.16,1.16-1.16s1.13.39,1.13,1.16-.38,1.19-1.13,1.19-1.16-.4-1.16-1.19Z"/>
        <path class="cls-7" d="m739.06,431.64v-1.9h1.07c2.24,0,3.36-1.16,3.36-3.48v-6.63l2.05-1.07v7.76c0,1.71-.5,3.05-1.5,4-.92.88-2.14,1.31-3.67,1.31h-1.31Zm1.93-17.18l.58-1.07h.79c-.2-.37-.31-.74-.31-1.13,0-.57.21-1.06.64-1.48.43-.42.94-.63,1.53-.63.45,0,.89.14,1.31.43v1.13c-.41-.29-.8-.43-1.19-.43-.33,0-.6.11-.83.32-.22.21-.34.46-.34.75,0,.35.14.69.43,1.04h2.69l-.58,1.07h-4.74Z"/>
        <path class="cls-7" d="m755.69,431.64c-1.73,0-3.07-.56-4-1.68-.77-.96-1.16-2.17-1.16-3.64v-13.33l2.05-1.07v14.33c0,2.32,1.12,3.48,3.36,3.48h1.07v1.9h-1.31Z"/>
        <path class="cls-7" d="m766.23,429.74h1.07v1.9h-1.31c-1.83,0-3.21-.62-4.13-1.86-.96,1.24-2.34,1.86-4.16,1.86h-1.31v-1.9h1.07c2.24,0,3.36-1.16,3.36-3.48v-6.63l2.05-1.07v7.7c0,2.32,1.12,3.48,3.36,3.48Zm-6.75-15.13c-.82,0-1.22-.42-1.22-1.25s.41-1.25,1.22-1.25,1.22.42,1.22,1.25-.41,1.25-1.22,1.25Zm3.48,0c-.82,0-1.22-.42-1.22-1.25s.41-1.25,1.22-1.25,1.22.42,1.22,1.25-.41,1.25-1.22,1.25Z"/>
        <path class="cls-7" d="m766.69,431.64v-1.9h1.07c2.24,0,3.36-1.16,3.36-3.48v-6.63l2.05-1.07v7.76c0,1.71-.5,3.05-1.5,4-.92.88-2.14,1.31-3.67,1.31h-1.31Zm5.32-17.12c-.84,0-1.25-.43-1.25-1.28s.42-1.22,1.25-1.22,1.19.41,1.19,1.22c0,.86-.4,1.28-1.19,1.28Z"/>
      </g>
      <g>
        <path class="cls-8" d="m595.98,127.43l-134.93,65.61c-11.63,5.66-25.21,5.68-36.86.08l-136.65-65.74c-12.05-5.8-12.18-22.92-.22-28.9L424.86,29.7c10.56-5.28,22.99-5.28,33.54,0l137.73,68.87c11.94,5.97,11.84,23.03-.16,28.87Z"/>
        <path class="cls-9" d="m595.98,112.62l-134.93,65.61c-11.63,5.66-25.21,5.68-36.86.08l-136.65-65.74c-12.05-5.8-12.18-22.92-.22-28.9L424.86,14.89c10.56-5.28,22.99-5.28,33.54,0l137.73,68.87c11.94,5.97,11.84,23.03-.16,28.87Z"/>
        <g>
          <path class="cls-7" d="m354.86,58.12v5.22c.27,2.7.9,5.34,1.88,7.92h.06v-2.27h.02c-1.27-3.51-1.93-7.15-1.96-10.86Z"/>
          <path class="cls-1" d="m356.8,71.25v21.91c-1.28-3.59-1.95-7.3-1.94-11.1v-18.72c.27,2.7.9,5.34,1.88,7.92h.06Z"/>
          <path class="cls-7" d="m492.46,20.61l-52.08,39.7h-.01s-83.57,10.94-83.57,10.94h-.06c-.98-2.57-1.61-5.21-1.88-7.91-.09-.92-.14-1.85-.15-2.79,0-.16,0-.32,0-.48,0-.26,0-.53.02-.79.04-1.01.12-2.02.27-3.03,3.66-26.32,41.76-46.07,85.37-46.07,19.27,0,37.47,3.86,52.09,10.43Z"/>
        </g>
        <polygon class="cls-7" points="446.44 0 446.44 0 446.43 0 446.44 0"/>
        <g>
          <path class="cls-7" d="m512.29,91.98h0c-7.29,8.22-18.42,14.92-32.04,18.99v-.18l-30.9-41.92h0l62.94,23.11Z"/>
          <path class="cls-1" d="m512.29,91.98v22.13c-7.29,8.21-18.42,14.91-32.04,18.99v-22.13c13.63-4.08,24.75-10.77,32.04-18.99Z"/>
        </g>
        <g>
          <path class="cls-7" d="m472.74,112.36v.18c-10.16,2.85-21.6,4.46-33.85,4.46-27.33,0-50.61-7.98-64.74-19.98-6.05-5.12-10.44-10.98-12.74-17.27l77.48-10.41h0s33.85,43.03,33.85,43.03Z"/>
          <path class="cls-1" d="m472.74,112.53v22.71c-10.16,2.85-21.6,4.46-33.85,4.46-39.01,0-69.77-16.28-77.48-37.25-.02-.02-.03-.04-.03-.06v-22.65h.03c2.3,6.29,6.68,12.15,12.74,17.27,14.14,11.99,37.42,19.98,64.74,19.98,12.26,0,23.7-1.6,33.85-4.46Z"/>
        </g>
        <path class="cls-7" d="m411.05,64.46h0s0-.03,0-.03c0,.01,0,.02,0,.03Z"/>
        <rect class="cls-7" x="446.44" y="0" width="0" height="0" transform="translate(130.76 315.68) rotate(-45)"/>
        <g>
          <path class="cls-7" d="m529.51,60.8v.45c0,.48-.02.95-.04,1.43-.37,7.18-3.36,14.02-8.44,20.12-.43.53-.89,1.05-1.35,1.56l-65.17-23.33,45.61-37.13c16.18,7.76,27.36,19.59,29.15,33.33.03.26.07.51.09.76.01.06.02.12.02.18.04.32.06.63.08.95,0,.08.01.16.01.24.02.18.03.35.04.53,0,.06,0,.11,0,.17,0,.25.01.5.01.75Z"/>
          <path class="cls-1" d="m529.47,62.68v20.71c.04,8.92-3.51,17.42-9.83,24.76v-23.66c.48-.56.95-1.12,1.39-1.69,5.08-6.09,8.07-12.93,8.44-20.12Z"/>
          <path class="cls-7" d="m529.47,60.01v2.67c-.37,7.18-3.36,14.02-8.44,20.12,5.4-6.88,8.41-14.65,8.44-22.79Z"/>
        </g>
      </g>
      <path class="cls-6" d="m314.95,233.21s.02-.06.03-.08h0c-.28-.07-.54-.13-.81-.2"/>
      <g>
        <path class="cls-4" d="m596.81,511.79l-124.82,60.69c-18.55,9.02-40.21,9.07-58.79.12l-126.52-60.86c-11.71-5.63-11.84-22.26-.22-28.07l130.53-65.27c15.51-7.75,33.76-7.75,49.27,0l130.7,65.35c11.6,5.8,11.5,22.38-.16,28.05Z"/>
        <path class="cls-2" d="m596.81,496.98l-124.82,60.69c-18.55,9.02-40.21,9.07-58.79.12l-126.52-60.86c-11.71-5.63-11.84-22.26-.22-28.07l130.53-65.27c15.51-7.75,33.76-7.75,49.27,0l130.7,65.35c11.6,5.8,11.5,22.38-.16,28.05Z"/>
        <path class="cls-1" d="m474.2,508.35c-.35-6.4-3.11-11.43-8.23-15.19-6.08-4.44-14.59-6.63-25.6-6.63-2.79,0-6.19.1-10.22.29-4.03.19-6.37.38-7.01.55l-2.43,44.96s0,0,0,0v.13s0,0,0,0v.13s0,0,0,0v.13s0,0,0,0v.13s0,0,0,0v.13s0,0,0,0v.13s0,0,0,0v.13s0,0,0,0v.13s0,0,0,0v.13s0,0,0,0v.13s0,0,0,0v.13s0,0,0,0v.13s0,0,0,0v.13s0,0,0,0v.13s0,0,0,0v.13s0,0,0,0v.13s0,0,0,0v.13s0,0,0,0v.13s0,0,0,0v.13s0,0,0,0v.13s0,0,0,0v.13s0,0,0,0v.13s0,0,0,0v.13s0,0,0,0v.13s0,0,0,0v.13s0,0,0,0v.13s0,0,0,0v.13s0,0,0,0v.13s0,0,0,0v.13s0,0,0,0v.13s0,0,0,0v.13s0,0,0,0v.13s0,0,0,0v.13s0,0,0,0v.13s0,0,0,0v.13s0,0,0,0v.13s0,0,0,0v.13s0,0,0,0v.13s0,0,0,0v.13s0,0,0,0v.13s0,0,0,0v.13s0,0,0,0v.13s0,0,0,0v.13s0,0,0,0v.13s0,0,0,0v.13s0,0,0,0v.13s0,0,0,0v.13s0,0,0,0v.13s0,0,0,0v.13s0,0,0,0v.13s0,0,0,0v.13s0,0,0,0v.13s0,0,0,0v.13s0,0,0,0v.13s0,0,0,0v.13s0,0,0,0v.13s0,0,0,0v.13s0,0,0,0v.13s0,0,0,0v.13s0,0,0,0v.13s0,0,0,0v.13s0,0,0,0v.13s0,0,0,0v.13s0,0,0,0v.13s0,0,0,0v.13s0,0,0,0v.13s0,0,0,0v.13s0,0,0,0v.13s0,0,0,0v.13s0,0,0,0v.13s0,0,0,0v.13s0,0,0,0v.13s0,0,0,0v.13s0,0,0,0v.13s0,0,0,0v.13s0,0,0,0v.13s0,0,0,0v.13s0,0,0,0v.13s0,0,0,0v.13s0,0,0,0v.13s0,0,0,0v.13s0,0,0,0v.13s0,0,0,0v.13s0,0,0,0v.13s0,0,0,0v.13s0,0,0,0v.13s0,0,0,0v.13s0,0,0,0v.13s0,0,0,0v.13s0,0,0,0v.13s0,0,0,0v.13s0,0,0,0v.13s0,0,0,0v.13s0,0,0,0v.13s0,0,0,0v.13s0,0,0,0v.13s0,0,0,0v.13s0,0,0,0v.13s0,0,0,0v.13s0,0,0,0v.13s0,0,0,0v.13c4.27.68,10.01,1.02,17.19,1.02,11.71,0,20.69-2.03,26.88-6.05,6.35-4.1,9.47-9.97,9.45-17.5v-13.28c0-.52-.01-1.05-.04-1.59Zm-36.58-.04c1.23-.13,2.32-.2,3.29-.2,4.64,0,8.47.96,11.52,2.9,2.05,1.35,3.55,3.06,4.53,5.09-2.33,5.18-7.72,7.89-16.2,8h-.21c-1.07,0-2.17-.09-3.29-.27l.35-15.53Z"/>
        <g>
          <path class="cls-1" d="m430.48,440.49c.63-1.33,1.85-3.45,3.64-6.32h18.39c.92,1.57,2.1,3.67,3.54,6.32h13.47c.27,0,.48.06.49-.23,0-.16,0-.33,0-.49v-12c0-.76.01-1.51.01-2.27,0-.06.01-.12-.02-.17-.03-.05-.07-.09-.1-.14l-.15-.22-.21-.3-.26-.37-.31-.44-.36-.5-.4-.56-.44-.62-.48-.67-.51-.72-.55-.77-.57-.81-.6-.85c-.21-.29-.42-.59-.63-.88s-.43-.61-.65-.91l-.66-.94-.68-.96-.69-.97-.7-.99-.71-1-.71-1-.71-1.01-.71-1-.71-1-.7-.99-.69-.97-.68-.96-.66-.93-.64-.91-.62-.88-.6-.84-.57-.81-.54-.76-.51-.72-.47-.67-.44-.62-.4-.56-.35-.5-.31-.43-.26-.36-.2-.29-.15-.21-.09-.13-.03-.04h-10.35l-.05.07-1.22,1.72c-.84,1.18-1.67,2.36-2.51,3.54-1.12,1.58-2.24,3.16-3.37,4.74-1.26,1.78-2.52,3.55-3.78,5.33-1.25,1.76-2.51,3.53-3.76,5.29-1.1,1.55-2.2,3.1-3.3,4.65-.8,1.13-1.6,2.25-2.4,3.38-.25.35-.52.7-.77,1.05-.14.19-.35.31-.35.55,0,.18,0,.35,0,.53,0,.96.03,1.93.04,2.9,0,1.02.02,2.05.02,3.07,0,.18,0,.37,0,.55v4.58c0,.66,0,1.32,0,1.98,0,.39,0,.79.03,1.18.03.35.52.23.8.23h12.87Z"/>
          <path class="cls-7" d="m443.55,404.43c-1.66,2.43-3.46,5.2-5.4,8.31h10.46c-1.24-2.06-2.93-4.83-5.06-8.31Zm-5.35-9.37h10.35l21.47,30.24h-13.99c-1.45-2.65-2.62-4.76-3.54-6.32h-18.39c-1.78,2.88-3,4.99-3.64,6.32h-13.73l21.47-30.24Z"/>
        </g>
        <g>
          <path class="cls-1" d="m370.34,451.42c-.06-2.43-1.26-4.41-3.57-5.86-3.43-2.14-8.84-3.2-16.27-3.2-6.85,0-12.42.23-16.71.68-.02,0-.07.36-.08.39-.1.51-.2,1.01-.31,1.52-.17.82-.33,1.65-.5,2.47-.22,1.07-.43,2.15-.65,3.22-.25,1.25-.51,2.5-.76,3.76-.27,1.36-.55,2.72-.82,4.09s-.57,2.8-.85,4.21-.55,2.75-.83,4.12c-.26,1.27-.51,2.55-.77,3.82-.22,1.1-.45,2.21-.67,3.31l-.52,2.6-.34,1.68c-.06.31-.12.59-.12.9v12.68c0,.16-.02.32-.01.48.01.19,0,.25.19.3.48.15,1.12.13,1.62.18.58.06,1.15.11,1.73.16,1.26.1,2.51.18,3.77.24,2.93.14,5.87.2,8.8.2,7.71,0,13.94-.9,18.67-2.7,5.4-2.02,8.29-4.94,8.7-8.72.09-.84.04-1.71.04-2.55v-11.33c0-.3-.06-.65,0-.95.06-.32.22-.61.26-.94.1-.94-.01-1.96-.01-2.91v-11.63c0-.07,0-.14,0-.21Z"/>
          <path class="cls-7" d="m346.13,448.94l-1.14,6.71h5.52c2.26,0,3.88-.26,4.88-.77.99-.51,1.58-1.39,1.76-2.63.34-2.39-2-3.57-7.03-3.57-1.35,0-2.67.09-3.99.27Zm-19.5,29.69l7.21-35.73c4.29-.45,9.86-.68,16.71-.68,7.42,0,12.84,1.06,16.27,3.2,2.7,1.7,3.9,3.96,3.58,6.82-.18,1.61-1.54,3.1-4.08,4.49-2.56,1.4-5.19,2.1-7.88,2.1h-.63v.06c4.03.26,7.15,1.19,9.36,2.8,2.23,1.62,3.21,3.72,2.92,6.33-.41,3.78-3.3,6.7-8.7,8.72-4.73,1.8-10.96,2.7-18.67,2.7-6.52,0-11.88-.27-16.1-.8Zm17.19-16.12l-1.55,9.1c1.47.44,3.09.66,4.88.66,5.18,0,7.98-1.45,8.38-4.32.52-3.64-1.79-5.44-6.92-5.44h-4.8Z"/>
        </g>
        <g>
          <path class="cls-1" d="m559.3,474.25c-.08-.29-.48-.53-.72-.73-1.17-.99-2.34-1.98-3.51-2.98-.74-.62-1.47-1.25-2.21-1.87-4.32,1.85-7.97,2.78-10.92,2.78-4.98,0-9.04-1.25-12.14-3.72-.67-.55-1.26-1.11-1.77-1.69,2.12-1.93,5.17-2.9,9.15-2.9,3.22,0,7.17,1.01,11.89,3.03.65-.83,1.29-1.66,1.94-2.49.65-.83,1.26-1.69,1.95-2.49.26-.3.21-.55.21-.92v-4.2c0-1.06,0-3.38-.01-8.91,0-.03,0-.07-.02-.12-.03-.08-.09-.12-.12-.14-.09-.04-.23-.11-.4-.19-.37-.17-.62-.3-.72-.35-.49-.22-.99-.42-1.49-.62-.39-.15-.78-.3-1.17-.46-1.24-.49-2.5-.93-3.79-1.32-3.15-.95-6.47-1.57-9.82-1.57-8.52,0-14.86,1.55-19.06,4.68-1.73,1.29-3.13,2.88-4.06,4.69-1.04,2.02-1.26,4.05-1.52,6.22-.26,2.21-.08,4.51-.08,6.74v7.5c0,.71.1,1.44.17,2.16.42,4.31,2.41,8.13,6.02,11.45,5.53,5.02,13.7,7.58,24.41,7.58,2.47,0,4.94-.19,7.35-.67,2.31-.46,4.56-1.18,6.62-2.21.98-.49,1.92-1.06,2.8-1.68.22-.16.44-.32.65-.48.25-.19.43-.27.43-.57v-2.11c0-1.67-.03-3.33-.03-5v-5.92c0-.14,0-.29,0-.44,0-.03,0-.06-.01-.08Z"/>
          <path class="cls-7" d="m553.03,446.92l-4.15,5.33c-4.72-2.03-8.67-3.03-11.89-3.03-4.04,0-7.11.99-9.24,2.98-2.15,2.01-3,4.76-2.54,8.28.34,2.62,1.8,5,4.41,7.13,3.1,2.47,7.16,3.72,12.14,3.72,2.95,0,6.6-.93,10.92-2.78l6.53,5.53c-4.39,3.6-10.37,5.42-17.89,5.42-10.71,0-18.88-2.55-24.41-7.58-3.6-3.31-5.6-7.14-6.02-11.45-.57-5.88,1.28-10.36,5.49-13.5,4.21-3.13,10.55-4.68,19.06-4.68,5.29,0,11.13,1.53,17.59,4.63Z"/>
        </g>
        <path class="cls-7" d="m437.62,494.74l-.65,28.9c1.23.2,2.42.3,3.59.3h.21c11.91-.15,17.75-5.41,17.54-15.47-.1-4.88-2.07-8.54-5.87-11.04-3.05-1.94-6.89-2.9-11.52-2.9-.97,0-2.06.07-3.29.2Zm-16.91,37.44l2.43-44.96c.64-.17,2.98-.36,7.01-.55,4.03-.19,7.43-.29,10.22-.29,11.01,0,19.51,2.19,25.6,6.63,5.13,3.76,7.89,8.79,8.23,15.19.44,8.23-2.66,14.6-9.41,18.95-6.18,4.02-15.17,6.05-26.88,6.05-7.18,0-12.92-.34-17.2-1.02Z"/>
      </g>
      <g>
        <path class="cls-11" d="m854.16,323.06l-122.48,59.56c-13.61,6.62-29.51,6.65-43.15.09l-124.13-59.71c-15.88-7.64-16.05-30.19-.29-38.07l126.16-63.09c11.87-5.94,25.84-5.94,37.72,0l126.38,63.19c15.72,7.86,15.6,30.34-.21,38.03Z"/>
        <path class="cls-5" d="m854.16,308.24l-122.48,59.56c-13.61,6.62-29.51,6.65-43.15.09l-124.13-59.71c-15.88-7.64-16.05-30.19-.29-38.07l126.16-63.09c11.87-5.94,25.84-5.94,37.72,0l126.38,63.19c15.72,7.86,15.6,30.34-.21,38.03Z"/>
        <path class="cls-1" d="m739.61,316.72c-1.01-.81-4.12-3.06-4.75-3.57-.09-.05.15-.17.59-.54.95-.89,2.48-1.5,2.87-2.83.16-7.23,0-14.43.05-21.67-.08-1.77-1.96-2.39-3.28-3.45-1.06-.75-2.25-1.58-2.89-2.03-.63-.49-1.37-.87-2.19-.98-1-.15-2.12.07-2.91.66-.53.35-13.15,9.91-16.7,12.51-.04-.17-12.91-9.56-16.7-12.52-.32-.24-.73-.44-1.2-.56-2.26-.46-3.16.33-5.18,1.79-1.15.78-2.65,1.88-3.65,2.57-.69.43-1.32,1.33-1.23,2.16.11,7.24-.22,14.51.12,21.74.4,1.11,2.75,2.4,3.42,3.11-.3.3-3.98,3-4.61,3.49-.72.49-1.34,1.46-1.32,2.3,0,6.99,0,13.93,0,20.91-.02.54.07,1.39.53,1.87.38.47.42.43.77.74,1.35,1.1,3.87,3.42,5.35,4.61,1.42,1.04,3.6.91,4.96-.16.68-.53,16.39-12.82,18.51-14.48.15-.1.18-.17.25-.18.27.21,10.2,7.98,15.5,12.13,1.83,1.43,3.1,2.43,3.25,2.55.67.52,1.73.9,2.63.87,1.34.02,2.35-.63,3.27-1.53,1.28-1.11,3.85-3.34,4.58-3.97.53-.41,1.02-1.1,1.08-1.78.06-7.16,0-14.29.02-21.44.04-.86-.43-1.75-1.12-2.29l-.05-.04Z"/>
        <g>
          <path class="cls-1" d="m682.17,236.85c3.92,2.12,14.37,7.61,15.6,8.28,1.54.82,3.92.89,5.6.22.83-.3.93-.49,2.78-1.39,7.53-3.87,31.67-16.3,32.39-16.67.05-.03.29-.16.54-.42.29-.29.36-.62.37-.87,0-8.14,0-16.2,0-24.32.07-.6-.52-1.25-1.15-1.52-.76-.32-1.89-.92-2.84-1.34-2.97-1.42-4.58-2.45-7.5-1.44-1.06.48-25.76,12.83-26.81,13.33-1.73-.8-5.1-2.61-6.95-3.53-1.56-1.01-3.98-1.25-5.75-.43-1.78.93-5.24,2.37-6.54,3.26-.41.32-.56.72-.58,1.02-.02,8.1,0,16.15,0,24.23-.07.56.17,1.16.79,1.54l.07.04Z"/>
          <path class="cls-7" d="m682.22,212.13c4.4,2.32,14.37,7.68,16.12,8.51,4.67,1.27,5.09-.19,10.43-2.7,9.37-4.82,29.03-14.93,29.86-15.35.59-.28,1.3-1.18.64-1.79-.63-.61-.81-.6-1.59-.98-1.09-.51-3.15-1.48-4.24-1.99-1.51-.87-3.72-1.13-5.39-.45-6.68,3.28-25.88,12.88-26.85,13.34-.19-.04-.31-.16-.72-.35-1.54-.79-5.31-2.72-6.59-3.37-1.38-.84-3.54-.97-5.12-.36-1.54.67-3.56,1.71-5.07,2.42-1.44.6-3.45,1.71-1.56,3.03l.07.04Z"/>
        </g>
        <g>
          <path class="cls-1" d="m656.6,270.05c.02-8.14,0-16.34,0-24.51,0-.25-.01-.65-.23-1-.43-.59-.64-.68-1.31-1.13-1.03-.69-2.67-1.79-3.58-2.41-2.6-1.99-4.8-.89-7.31.73-5.18,3.05-11.52,6.78-17.09,10.06-3.82,2.23-6.44,3.82-8.81,5.16-1.36-1-5.84-4.38-6.52-4.87-1.8-1.28-4.21-.57-5.92.6-1.6.91-4.43,2.53-5,2.85-.44.25-.96.65-1.23,1.1-.24.37-.29.79-.29,1.08,0,8.13,0,16.24,0,24.37-.04.39.19,1.04.51,1.31,3.29,2.63,12.3,9.68,13.71,10.7,1.41.89,3.9.72,5.41-.22.62-.38,16.67-10.14,27.3-16.61,5.1-3.1,8.95-5.45,9.25-5.63.42-.23,1.08-.96,1.09-1.49v-.09Z"/>
          <path class="cls-7" d="m599.92,258.71c4.03,3.15,9.53,7.47,13.45,10.5,4.05,2.03,5.86-.55,11.28-3.58,10.89-6.89,30.75-18.12,31.81-19.75.52-1.15-.41-1.9-1.37-2.47-1.26-.84-2.83-1.91-4-2.68-1.25-.99-3.43-1.02-4.88-.19-.71.42-27.21,16.01-27.91,16.42-.12-.01-.21-.15-.54-.38-1.25-.93-4.5-3.37-5.64-4.22-.97-.88-2.47-1.14-3.8-.82-1.56.39-2.72,1.37-4.3,2.19-2.19,1.42-6.15,2.6-4.14,4.96l.05.05Z"/>
        </g>
        <g>
          <path class="cls-1" d="m824.55,270.05c.02-8.14,0-16.34,0-24.51,0-.25-.01-.65-.23-1-.43-.59-.64-.68-1.31-1.13-1.03-.69-2.67-1.79-3.58-2.41-2.6-1.99-4.8-.89-7.31.73-5.18,3.05-11.52,6.78-17.09,10.06-3.82,2.23-6.44,3.82-8.81,5.16-1.36-1-5.84-4.38-6.52-4.87-1.8-1.28-4.21-.57-5.92.6-1.6.91-4.43,2.53-5,2.85-.44.25-.96.65-1.23,1.1-.24.37-.29.79-.29,1.08,0,8.13,0,16.24,0,24.37-.04.39.19,1.04.51,1.31,3.29,2.63,12.3,9.68,13.71,10.7,1.41.89,3.9.72,5.41-.22.62-.38,16.67-10.14,27.3-16.61,5.1-3.1,8.95-5.45,9.25-5.63.42-.23,1.08-.96,1.09-1.49v-.09Z"/>
          <path class="cls-7" d="m767.86,258.71c4.03,3.15,9.53,7.47,13.45,10.5,4.05,2.03,5.86-.55,11.28-3.58,10.89-6.89,30.75-18.12,31.81-19.75.52-1.15-.41-1.9-1.37-2.47-1.26-.84-2.83-1.91-4-2.68-1.25-.99-3.43-1.02-4.88-.19-.71.42-27.21,16.01-27.91,16.42-.12-.01-.21-.15-.54-.38-1.25-.93-4.5-3.37-5.64-4.22-.97-.88-2.47-1.14-3.8-.82-1.56.39-2.72,1.37-4.3,2.19-2.19,1.42-6.15,2.6-4.14,4.96l.05.05Z"/>
        </g>
        <path class="cls-7" d="m720.9,302.67l16.65-13.03c1.22-.95,1.1-2.5-.24-3.44l-5.57-3.91c-1.31-.92-3.36-.93-4.58-.01l-16.73,12.54-16.73-12.54c-1.22-.92-3.27-.91-4.58.01l-5.57,3.91c-1.35.95-1.46,2.49-.24,3.44l16.65,13.03-18.68,14c-1.48,1.11-1.63,2.92-.32,4.06l5.56,4.81c1.35,1.17,3.65,1.17,5.14.01l18.78-14.69,18.78,14.69c1.48,1.16,3.79,1.15,5.14-.01l5.56-4.81c1.31-1.13,1.16-2.95-.32-4.06l-18.68-14Z"/>
      </g>
      <g>
        <path class="cls-3" d="m319.89,324.38l-132.13,64.25c-14.27,6.94-30.92,6.97-45.22.1L8.69,324.34c-11.49-5.53-11.62-21.85-.21-27.55l135.43-67.72c12.76-6.38,27.78-6.38,40.54,0l135.59,67.8c11.38,5.69,11.29,21.96-.15,27.53Z"/>
        <path class="cls-10" d="m319.89,309.57l-132.13,64.25c-14.27,6.94-30.92,6.97-45.22.1L8.69,309.52c-11.49-5.53-11.62-21.85-.21-27.55l135.43-67.72c12.76-6.38,27.78-6.38,40.54,0l135.59,67.8c11.38,5.69,11.29,21.96-.15,27.53Z"/>
        <line class="cls-6" x1="93.42" y1="263.2" x2="93.33" y2="263.17"/>
        <g>
          <path class="cls-1" d="m217.42,306.07c-12.5,4.46-25.06,8.93-37.59,13.4-12.61,4.49-25.21,8.99-37.82,13.48-.21.08-.43-.06-.68-.23-16.19-11.23-30.25-21-42.77-29.7-1.88-1.46-3.09-4.3-3.56-6.78-.38-2.41-1.08-7.3,1.69-8.16.36,0,2.39,1.45,5.89,3.52,11.86,7.25,37.77,23.09,38.09,23.28.07,0,.17-.06.38-.12,19.4-6.59,73.88-25.09,76.65-26.03-.38.71-.97,1.6-1.4,3.29-.08.21-.12.54-.19.69-.88.31-44.81,15.99-64.05,22.85-3.33,1.15-7.05,2.6-9.34,3.28-1.89.36-3.13-1.06-4.71-1.91-14.54-9.04-28.08-17.45-39.67-24.66-.35-.24-.49-.07-.47.3-.04,2.73.79,5.84,1.77,7.8.14.3.33.53.63.73,13.27,8.95,26.55,17.89,39.82,26.83.57.4,1.19.81,1.76,1.21.37.26.59.1,1-.04,4.45-1.59,9.02-3.22,13.48-4.81,11.54-4.11,23-8.2,34.55-12.32,7.37-2.62,14.6-5.21,21.95-7.82.76-.27,1.13-.41,1.95-.7.45-.14.99-.43,1.49-.43.42.06.42.55.54.9.17.7.5,1.5.61,2.11v.03Z"/>
          <path class="cls-7" d="m217.68,288.77c-.47.29-77.03,26.1-77,26.13-.57-.31-1.3-.81-2.82-1.72-8.6-5.24-40.48-24.68-41.07-25.04,3.89-1.42,7.85-2.79,11.76-4.19.57-.39,8.72,3.87,17.32,7.64,4.46,2.04,10.06,4.6,14.03,6.42,2.17.99,3.58,1.64,3.75,1.71.38.09.98.15,1.34-.02,1.76-1.21,1.7-4.78,1.57-6.88-.33-4.8-3.44-7.82-5.61-8.31-4.32-1.74-10.38-3.81-16.17-6.28,2.59-1.06,5.34-1.9,7.98-2.89.53-.15.91.32,1.42.54.78.38,1.46.96,2.26,1.17.08.01.17.01.25,0,.38-.41.5-1.26.61-1.98.06-.49.04-.83.15-1.28.08-.14.21-.19.37-.24,11.32-4.03,22.64-8.05,33.96-12.07.34-.16,1.37-.22,1.69-.04,14.14,8.6,29.17,18.1,44.17,27.33l.04.03Z"/>
          <path class="cls-7" d="m211.73,235.36c-1.55.64-53.59,18.81-72.08,25.33-.95.33-1.38.49-1.82.64.41.08-45.48-21.11-47.27-22.32,5.83-2.09,11.7-4.16,17.54-6.26.05-.03.13,0,.18.07.23.36.55,1.12.85,1.43.28.35.41.42.82.55,11.81,3.92,27.19,9.01,40.77,13.52,1.31.43,3.84,1.27,4.7,1.56.29.11.32.12.67-.02.74-.26,1.52-.54,2.29-.82,1.5-.54,13.96-4.91,31.5-11.22,3.69-1.33,9.1-3.28,15.72-5.71.41.17.82.35,1.25.54.56.26,1.09.52,1.6.78.5.25,1.02.53,1.55.84.62.36,1.2.73,1.73,1.09Z"/>
          <path class="cls-7" d="m229.16,202.43c-10.17,4.36-18.63,7.43-24.59,9.44-9.1,3.09-16.8,5.25-29.26,10.14-3.64,1.43-6.61,2.67-8.58,3.51-7.94,1.47-10.71,2.06-11.35,2.28-.16.05-.64.1-1.17.4-.83.47-1.31,1.23-1.6,1.85-7.32-2.36-15.13-4.65-23.39-6.77-8.65-2.23-16.95-4.05-24.83-5.56-.05-.02-.15.01.18-.11.34-.12.66-.23.95-.34,25-8.79,49.9-17.94,74.95-26.54,7.52,1.73,15.09,3.51,22.71,5.33,8.75,2.09,17.41,4.22,25.99,6.36Z"/>
          <path class="cls-1" d="m93.47,263.12c34.92,12.44,47.91,17.07,49.26,17.57.11.04.89.33,1.95.71,1.12.4,1.87.65,2.63.92.42-.12,59.95-22.04,72.81-26.7,2.73,1.46,5.74,6.26,5.36,12.55v.09c-.14,3.35-1.1,6.9-3.82,7.77-25.1,8.93-50.22,17.85-75.33,26.77-1.15.47-2.83.51-3.85,0-12.46-5.74-25.82-11.91-37.95-17.49-3.48-1.6-6.9-3.18-10.16-4.68-.67-.26-.16-.88-.11-1.47.12-.5.17-1.27.38-1.8.04-.06.08-.05.11-.03.83.36,10.62,4.87,14.13,6.46.34.12,33.89,15.54,34.87,15.91,1.96.6,2.6-1.94,2.78-3.65.53-4.16-.88-9.56-4.78-11.27-12.24-4.69-37.89-14.5-47.33-18.12-.1-.03-.18-.08-.25-.15-.02-.02-.08-.08-.13-.2-.26-.63-.31-1.72-.31-1.72-.02-.35-.07-.85-.26-1.46Z"/>
          <path class="cls-7" d="m220.12,255.61c-48.54,17.84-72.81,26.76-72.81,26.77,0,0,0,0,0,0-1.06-.36-2.2-.8-4.58-1.63-10.38-3.76-43.39-15.25-49.26-17.63,2.59-.93,5.21-1.85,7.8-2.78,1.05-.38,2.09-.74,3.13-1.12.07-.02.15-.03.29.02,11.51,6.42,22.73,12.88,30.38,17.16.59.3.97.69,1.56.66.67-.6.73-2.62.75-3.66.18-4.15-1.91-8.08-3.8-9.01-4.49-2.22-15.68-7.79-18.05-8.96-.19-.11-.34-.14-.19-.13.06,0,.13-.02.19-.04,9.16-3.04,18.28-6.93,27.46-9.54,3.86,1.29,8,2.65,11.91,3.95.62.17.68.32,1.03.21,1.6-.56,3.37-1.2,4.97-1.77,5.93-2.11,11.79-4.19,17.7-6.3.84-.29,1.65-.61,2.5-.87.11,0,.22,0,.33.03.07.02.11.04.12.04.14.06,12.96,4.91,38.56,14.59Z"/>
          <path class="cls-1" d="m216.22,246.86c-.04,2.8-.74,5.7-2.9,6.42-25.46,8.96-50.82,18.27-76.32,27.03-1.42.09-2.04-.18-2.64-.5-11.23-6.52-23.35-13.57-33.28-19.35-3.24-1.88-6.45-3.75-9.52-5.53-.18-.1-.31-.19-.33-.37.09-.41.34-1.07.49-2.02.02-.15.09-.44.19-.52.1-.07.25.06.39.13,1.08.62,2.04,1.17,3.2,1.83,12.81,7.26,30.58,17.33,40.63,22.99.08.03.36.09.51.08.22-.1.24-.35.36-.6.6-2.09.46-4.34.06-6.45-.65-3.56-3.26-5.64-3.42-5.59-4.59-2.28-18.22-9.03-18.37-9.11-5.96-2.96-22.58-11.18-23.57-11.69-.25-1.14-.52-2.43-.87-3.57-.1-.27-.16-.57-.25-.79-.05-.17-.03-.12,0-.12l.13.06c10.71,5.02,47.61,22.33,47.14,22.09,2.17-.76,3.87-1.36,7.01-2.46,17.63-6.18,54.4-19.11,66.89-23.46,1.95,1.33,4.78,5.97,4.49,11.42v.08Z"/>
          <path class="cls-1" d="m228.89,224.41c-24.3,8.75-48.72,17.34-73.05,26.05-.82.29-1.48.52-2.3.82-.24.07-.48,0-.77-.08-5.98-1.99-11.69-3.88-17.14-5.69-10.78-3.57-20.74-6.87-29.79-9.87-.68-.26-1.43-.88-2.02-1.71-2.46-3.03-3.98-14.34.42-16.2,1.81.23,36.46,8.16,48.46,10.79.01.7,74.88-25.98,76.47-26.08-.42,1.18-1.05,3.38-1.38,5.27-12.49,4.21-40.33,13.53-44.84,15.05-8.08,2.71-27.33,9.17-28.2,9.46-.78.29-1.67.21-2.45-.02-17.61-4.21-34.64-8.3-46.86-11.21-1.25,2.18-.52,11.06,2.19,11.75,11.79,3.92,27.09,8.98,40.67,13.48,1.38.46,4.14,1.38,4.81,1.6.18.07.33.02.63-.09,21.86-7.78,43.68-15.56,65.53-23.34,2.83-1,5.53-1.99,8.37-2.97.18-.02.44-.04.54.15.15.22.18.6.27.89.15.63.39,1.36.46,1.93l-.02.04Z"/>
        </g>
      </g>
      <g>
        <path class="cls-7" d="m340.1,233.22h1.04v1.9h-1.32c-2.18,0-3.7-.86-4.56-2.57-1.06,1.1-2.37,1.65-3.91,1.65-1.75,0-3.14-.66-4.16-1.99-.86-1.12-1.28-2.52-1.28-4.19,0-1.96.57-3.53,1.71-4.71,1-1.04,2.23-1.56,3.7-1.56,1.32,0,2.44.39,3.33,1.16v-1.65l2.05-1.07v9.54c0,2.32,1.13,3.49,3.39,3.49Zm-5.44-7.98c-.9-1.08-1.99-1.62-3.27-1.62-1.02,0-1.85.41-2.49,1.24-.64.83-.96,1.89-.96,3.2s.32,2.39.96,3.18c.64.79,1.48,1.19,2.52,1.19,1.33,0,2.43-.58,3.3-1.74-.04-.37-.06-.66-.06-.89v-4.56Zm-3.97-7.4c-.84,0-1.25-.43-1.25-1.28s.42-1.22,1.25-1.22,1.19.41,1.19,1.22c0,.86-.4,1.28-1.19,1.28Zm3.49,0c-.84,0-1.25-.43-1.25-1.28s.42-1.22,1.25-1.22,1.19.41,1.19,1.22c0,.86-.4,1.28-1.19,1.28Z"/>
        <path class="cls-7" d="m362.36,235.11h-7.55c-1.1,0-2.22-.23-3.36-.7-1.16.47-2.29.7-3.39.7h-7.52v-1.9h7.4c.41,0,.83-.03,1.25-.09-1.61-1.16-3.36-3.08-5.26-5.75v-1.25c2.12-2.98,4.62-4.46,7.49-4.46s5.36,1.51,7.52,4.53v1.19c-1.9,2.67-3.64,4.59-5.23,5.75.41.06.82.09,1.22.09h7.4l.03,1.9Zm-16.66-8.35c2.14,2.85,4.05,4.71,5.72,5.56,1.65-.86,3.57-2.72,5.75-5.6-1.63-2.14-3.55-3.21-5.75-3.21h-.09c-2.08,0-3.96,1.08-5.63,3.24Z"/>
        <path class="cls-7" d="m361.75,235.11v-1.9h1.07c2.24,0,3.36-1.16,3.36-3.49v-6.64l2.05-1.07v7.77c0,1.71-.5,3.05-1.5,4.01-.92.88-2.14,1.31-3.67,1.31h-1.31Zm4.07,5.72c-.84,0-1.25-.43-1.25-1.28s.42-1.22,1.25-1.22,1.19.41,1.19,1.22c0,.86-.4,1.28-1.19,1.28Z"/>
        <path class="cls-7" d="m378.9,235.11c-1.73,0-3.07-.56-4.01-1.68-.78-.96-1.16-2.17-1.16-3.64v-13.33l2.05-1.07v14.34c0,2.32,1.12,3.49,3.36,3.49h1.07v1.9h-1.31Z"/>
        <path class="cls-7" d="m389.45,233.22h1.07v1.9h-1.31c-1.83,0-3.21-.62-4.13-1.87-.96,1.24-2.34,1.87-4.16,1.87h-1.31v-1.9h1.07c2.24,0,3.36-1.16,3.36-3.49v-6.64l2.05-1.07v7.71c0,2.32,1.12,3.49,3.36,3.49Zm-6.76-15.14c-.82,0-1.22-.42-1.22-1.25s.41-1.25,1.22-1.25,1.22.42,1.22,1.25-.41,1.25-1.22,1.25Zm3.49,0c-.82,0-1.22-.42-1.22-1.25s.41-1.25,1.22-1.25,1.22.42,1.22,1.25-.41,1.25-1.22,1.25Z"/>
        <path class="cls-7" d="m409.14,233.22h1.04v1.9h-1.31c-1.86,0-3.24-.64-4.16-1.93-1.02,1.69-2.57,2.54-4.65,2.54s-3.65-.84-4.65-2.51c-.94,1.26-2.33,1.9-4.19,1.9h-1.31v-1.9h1.07c2.24,0,3.36-1.16,3.36-3.49v-1.04c0-2.34.57-4.14,1.71-5.38,1-1.1,2.33-1.65,4-1.65,1.92,0,3.37.71,4.37,2.14.88,1.22,1.31,2.85,1.31,4.89v1.04c0,2.32,1.13,3.49,3.39,3.49Zm-9.08.61c1.12,0,2.01-.46,2.66-1.39.65-.93.98-2.19.98-3.78,0-3.42-1.21-5.14-3.64-5.14s-3.67,1.71-3.67,5.14,1.22,5.17,3.67,5.17Z"/>
        <path class="cls-7" d="m409.57,235.11v-1.9h.86c2.32,0,3.49-1.2,3.49-3.61v-13.15l2.05-1.07v14.25c0,1.73-.51,3.1-1.53,4.1-.96.92-2.22,1.38-3.79,1.38h-1.07Z"/>
        <path class="cls-7" d="m433.76,235.11c-1.51,0-2.71-.47-3.61-1.42-.9-.95-1.35-2.23-1.35-3.84v-4.01l2.05-1.07v4.83c0,2.41,1.12,3.61,3.36,3.61h10.24c2.24,0,3.36-1.2,3.36-3.61v-6.51l2.05-1.07v7.83c0,1.73-.53,3.08-1.59,4.04-.92.82-2.12,1.22-3.61,1.22h-10.92Zm3.15-14.22c-.82,0-1.22-.43-1.22-1.28s.41-1.22,1.22-1.22,1.22.41,1.22,1.22c0,.86-.41,1.28-1.22,1.28Zm3.52,0c-.84,0-1.25-.43-1.25-1.28s.42-1.22,1.25-1.22,1.19.41,1.19,1.22c0,.86-.4,1.28-1.19,1.28Z"/>
        <path class="cls-7" d="m460.54,235.11c-1.73,0-3.07-.56-4.01-1.68-.78-.96-1.16-2.17-1.16-3.64v-13.33l2.05-1.07v14.34c0,2.32,1.12,3.49,3.36,3.49h1.07v1.9h-1.31Z"/>
        <path class="cls-7" d="m471.09,233.22h1.07v1.9h-1.31c-1.83,0-3.21-.62-4.13-1.87-.96,1.24-2.34,1.87-4.16,1.87h-1.31v-1.9h1.07c2.24,0,3.36-1.16,3.36-3.49v-6.64l2.05-1.07v7.71c0,2.32,1.12,3.49,3.36,3.49Zm-6.94,5.11c.82,0,1.22.42,1.22,1.25s-.41,1.25-1.22,1.25-1.22-.42-1.22-1.25.41-1.25,1.22-1.25Zm3.49,0c.82,0,1.22.42,1.22,1.25s-.41,1.25-1.22,1.25-1.22-.42-1.22-1.25.41-1.25,1.22-1.25Z"/>
        <path class="cls-7" d="m471.55,235.11v-1.9h1.07c2.24,0,3.36-1.16,3.36-3.49v-6.64l2.05-1.07v7.77c0,1.71-.5,3.05-1.5,4.01-.92.88-2.14,1.31-3.67,1.31h-1.31Zm1.93-17.18l.58-1.07h.8c-.2-.37-.31-.74-.31-1.13,0-.57.21-1.06.64-1.48s.94-.63,1.53-.63c.45,0,.89.14,1.31.43v1.13c-.41-.29-.81-.43-1.19-.43-.33,0-.6.11-.83.32-.22.21-.34.46-.34.75,0,.35.14.69.43,1.04h2.69l-.58,1.07h-4.74Z"/>
        <path class="cls-7" d="m488.18,235.11c-1.73,0-3.07-.56-4.01-1.68-.78-.96-1.16-2.17-1.16-3.64v-13.33l2.05-1.07v14.34c0,2.32,1.12,3.49,3.36,3.49h1.07v1.9h-1.31Z"/>
        <path class="cls-7" d="m519.46,233.22h1.07v1.9h-1.31c-1.83,0-3.21-.62-4.13-1.87-.92,1.24-2.3,1.87-4.16,1.87h-12.45c-1.83,0-3.21-.62-4.13-1.87-.96,1.24-2.34,1.87-4.16,1.87h-1.31v-1.9h1.07c2.24,0,3.36-1.16,3.36-3.49v-4.4l2.05-1.07v5.47c0,1.92.74,3.04,2.23,3.36.75-3.14,2.07-5.77,3.94-7.89,2.1-2.36,4.57-3.55,7.4-3.55,2.28,0,4.1.78,5.44,2.35,1.14,1.35,1.71,3.01,1.71,4.98v.8c0,2.28,1.12,3.42,3.36,3.42Zm-8.68,0c2.18,0,3.27-1.2,3.27-3.61v-.61c0-1.71-.54-3.09-1.62-4.13-.92-.9-2.07-1.35-3.46-1.35-2.39,0-4.51,1.12-6.36,3.36-1.41,1.71-2.47,3.82-3.18,6.33h11.34Z"/>
        <path class="cls-7" d="m519.92,235.11v-1.9h3.42c4.44,0,7.91-1.51,10.4-4.53-1.81-3.47-4.01-5.2-6.57-5.2-1.75,0-3.47.89-5.14,2.66v-2.02c1.67-1.65,3.42-2.48,5.23-2.48h.06c3.2,0,5.97,2.16,8.32,6.48v1.25c-2.98,3.81-7.08,5.72-12.32,5.72h-3.39Z"/>
        <path class="cls-7" d="m538.18,242.33l.58-1.1h.79c-.2-.37-.31-.73-.31-1.1,0-.57.21-1.07.64-1.48.43-.42.94-.63,1.53-.63.45,0,.89.13,1.32.4v1.16c-.41-.31-.81-.46-1.19-.46-.33,0-.6.11-.83.32-.22.21-.34.46-.34.75,0,.35.14.69.43,1.04h2.69l-.58,1.1h-4.74Zm1.74-7.22v-18.65l2.05-1.07v19.72h-2.05Z"/>
        <path class="cls-7" d="m405.75,269.91c-.96-1.22-1.44-2.83-1.44-4.83,0-2.2.57-3.9,1.71-5.11,1-1.08,2.32-1.62,3.97-1.62s3,.53,3.91,1.59c.79.92,1.19,2.14,1.19,3.67v3.12c0,1.55-.46,2.78-1.38,3.68-.92.91-2.17,1.37-3.76,1.39h-3.88c-2.24,0-3.36,1.16-3.36,3.49v5.08l-2.05,1.07v-6.21c0-1.69.5-3.02,1.5-3.98.9-.88,2.09-1.33,3.58-1.35Zm7.31-3.36v-2.75c0-2.39-1.02-3.58-3.06-3.58-1.16,0-2.06.43-2.71,1.28-.64.86-.96,2.04-.96,3.55s.31,2.72.92,3.58c.61.86,1.46,1.28,2.54,1.28,2.18,0,3.27-1.12,3.27-3.36Z"/>
        <path class="cls-7" d="m417.85,271.81l.98-1.9h5.75c.94,0,1.59-.23,1.97-.7.38-.47.57-1.28.57-2.45,0-3-1.32-5.23-3.95-6.7l1.01-1.68c3.24,1.88,4.89,4.52,4.95,7.92.02,2.41,1.19,3.61,3.52,3.61h.95v1.9h-1.16c-1.77,0-3.13-.59-4.07-1.77-.69,1.18-1.84,1.77-3.46,1.77h-7.06Z"/>
        <path class="cls-7" d="m445.01,269.91h5.6v1.9h-6.91c-.69,0-1.33-.07-1.9-.21-.57.14-1.2.21-1.9.21h-6.91v-1.9h5.63c-1.61-1.49-2.42-3.25-2.42-5.29s.55-3.55,1.65-4.71c1-1.04,2.31-1.56,3.95-1.56,1.85,0,3.29.67,4.31,2.02.86,1.12,1.28,2.54,1.28,4.25,0,2.06-.79,3.82-2.39,5.29Zm-3.09-.27c1.04-.37,1.89-1.02,2.55-1.97.66-.95.99-1.97.99-3.07,0-1.35-.33-2.41-.99-3.2s-1.55-1.18-2.67-1.18-2.01.39-2.66,1.18c-.65.78-.98,1.84-.98,3.16,0,1.12.33,2.16.98,3.1.65.95,1.5,1.6,2.54,1.97l.12.03.06-.03h.06Zm-1.83-14.86c-.84,0-1.25-.43-1.25-1.28s.42-1.22,1.25-1.22,1.19.41,1.19,1.22c0,.86-.4,1.28-1.19,1.28Zm3.49,0c-.84,0-1.25-.43-1.25-1.28s.42-1.22,1.25-1.22,1.19.41,1.19,1.22c0,.86-.4,1.28-1.19,1.28Z"/>
        <path class="cls-7" d="m459.84,269.91h1.07v1.9h-1.31c-1.83,0-3.21-.62-4.13-1.87-.96,1.24-2.34,1.87-4.16,1.87h-1.31v-1.9h1.07c2.24,0,3.36-1.16,3.36-3.49v-6.64l2.05-1.07v7.71c0,2.32,1.12,3.49,3.36,3.49Zm-6.76-15.14c-.82,0-1.22-.42-1.22-1.25s.41-1.25,1.22-1.25,1.22.42,1.22,1.25-.41,1.25-1.22,1.25Zm3.49,0c-.82,0-1.22-.42-1.22-1.25s.41-1.25,1.22-1.25,1.22.42,1.22,1.25-.41,1.25-1.22,1.25Z"/>
        <path class="cls-7" d="m460.3,271.81v-1.9h.86c2.32,0,3.49-1.2,3.49-3.61v-13.15l2.05-1.07v14.25c0,1.73-.51,3.1-1.53,4.1-.96.92-2.22,1.38-3.79,1.38h-1.07Z"/>
        <path class="cls-7" d="m472.19,271.81v-18.65l2.05-1.07v19.72h-2.05Z"/>
      </g>
    </g>
  </g>
</svg>