<?xml version="1.0" encoding="UTF-8"?>
<svg id="Layer_2" data-name="Layer 2" xmlns="http://www.w3.org/2000/svg" viewBox="0 0 748.92 453.33">
  <defs>
    <style>
      .cls-1 {
        fill: #0093ff;
      }

      .cls-1, .cls-2, .cls-3, .cls-4, .cls-5, .cls-6, .cls-7, .cls-8 {
        stroke-width: 0px;
      }

      .cls-2 {
        fill: #c63333;
      }

      .cls-3 {
        fill: #0066c6;
      }

      .cls-4 {
        fill: #ff9333;
      }

      .cls-5 {
        fill: #339366;
      }

      .cls-6 {
        fill: #33c693;
      }

      .cls-7 {
        fill: #f36;
      }

      .cls-8 {
        fill: #c66633;
      }
    </style>
  </defs>
  <g id="Layer_1-2" data-name="Layer 1">
    <g>
      <path class="cls-8" d="m739.66,246.89c-1.09.89-2.39,1.64-3.75,2.32l-156.65,76.18-163.67-78.77c1.16-.95,2.45-1.77,3.82-2.45l137.17-68.62c12.95-6.47,28.14-6.47,41.02,0l137.51,68.75c1.63.68,3.2,1.57,4.56,2.59Z"/>
      <path class="cls-3" d="m542.32,343.92c-.2.14-.48.2-.68.34-43.41,21.8-86.81,43.68-130.22,65.48-20.17,9.81-43.75,9.88-63.98.14-43.68-22.08-87.36-44.02-131.1-66.03,45.11-21.87,90.15-43.68,135.26-65.48,16.9-8.45,36.73-8.45,53.56,0,3.82,1.84,7.63,3.68,11.45,5.45.07.07.14.07.21.14,41.84,19.96,83.75,40,125.51,59.96Z"/>
      <path class="cls-4" d="m748.92,227.94v.48c0,7.02-3.06,13.97-9.27,18.47-1.09.89-2.39,1.64-3.75,2.32l-156.65,76.18-163.67-78.77-37.2-17.85,80.27-39.04c1.29-1.02,3.2-3.13,2.99-5.66-.41-3.75-5.11-5.93-6.67-6.61-1.77-.82-4.23-1.91-7.77-2.04-4.36-.14-6.68,1.3-10.15,1.98-8.65,1.7-18.19-2.52-20.92-3.75-1.02-.41-13.97-6.34-11.86-14.99.89-3.75,4.43-7.09,5.25-7.84,2.11-1.98,4.57-3.48,6.61-4.77,2.11-1.36,4.7-3,8.31-4.5,1.36-.61,7.36-3.14,14.52-4.16,17.65-2.52,30.25,5.18,31.28,5.79,2.52,1.64,11.52,7.29,7.29,12.74-1.57,2.04-4.7,3.48-4.5,6,.14,1.98,2.32,3.34,3.88,4.29,1.43.89,5.59,3.48,13.49,3.68,4.91.14,9.2-.68,11.86-1.36l74.82-36.39c53.01,25.21,106.09,50.42,159.11,75.7,8.38,4.16,12.61,12.06,12.74,20.1Z"/>
      <path class="cls-2" d="m179.81,325.45v36.11l-.07.07h-.07L9.53,279.8c-6.34-3.07-9.47-9.06-9.47-15.06v-34.55c.34,2.25,1.23,4.09,1.5,4.84.2.41.61,1.5,1.36,2.59,1.5,2.38,3.82,4.5,6.75,5.93l6.2,3,163.95,78.91Z"/>
      <path class="cls-2" d="m351.25,277.69c-.95.82-2.05,1.5-3.27,2.11l-35.16,17.1-18.33,8.86-4.02,1.98-74.14,36.11h-.07c-12.13-6.2-24.33-12.27-36.46-18.4L15.86,246.55l140.71-70.39c13.9-6.95,30.18-6.95,44.09,0l9,4.5,38.23,19.15.95.48c.34.2.82.54,1.29,1.09q.07,0,.07.07c1.16,1.16,2.32,2.86,2.11,4.91-.34,3.75-5.04,5.86-6.68,6.61-1.77.82-4.16,1.91-7.77,2.04-4.29.14-6.68-1.29-10.08-1.98-4.56-.95-9.27-.2-13.15.82-3.61,1.02-6.47,2.25-7.77,2.86-.75.27-6.68,3-9.88,7.36-1.7,2.18-2.66,4.77-1.98,7.7.89,3.75,4.43,7.09,5.18,7.77,2.18,2.04,4.56,3.54,6.68,4.84,2.11,1.36,4.7,2.93,8.24,4.5,1.43.61,7.36,3.07,14.58,4.16,17.65,2.52,30.25-5.25,31.21-5.86,2.59-1.64,11.52-7.29,7.36-12.67-.75-.95-1.84-1.84-2.72-2.73-1.09-.95-1.91-1.98-1.84-3.27.14-2.04,2.32-3.34,3.89-4.36.27-.2.68-.41,1.16-.68,2.04-1.09,6.06-2.79,12.4-3,4.02-.14,7.56.41,10.15,1.02l50.36,25.14.14.07,6.34,3.2c5.25,2.59,8.24,7.22,9.06,12.13.89,5.72-1.09,11.79-5.93,15.67Z"/>
      <path class="cls-1" d="m579.25,325.38c-.07,0-.07.07-.14.07-12.26,6.13-24.53,12.33-36.8,18.47-.2.14-.48.2-.68.34-43.41,21.8-86.81,43.68-130.22,65.48-20.17,9.81-43.75,9.88-63.98.14-43.68-22.08-87.36-44.02-131.1-66.03h-.07c-12.13-6.2-24.33-12.27-36.46-18.4l-.14-.07c53.97-26.3,108-52.54,161.97-78.77,12.27-5.93,24.46-11.92,36.73-17.85l.14.07c12.33,5.93,24.73,11.86,37.07,17.79,11.04,5.31,22.08,10.63,33.12,15.94,1.77.54,7.36,2.25,14.24,2.04,7.9-.2,12.06-2.79,13.49-3.68,1.57-.95,3.75-2.32,3.88-4.29.21-2.52-2.93-3.95-4.5-6-4.22-5.45,4.77-11.11,7.29-12.74,1.02-.61,13.63-8.31,31.28-5.79,7.15,1.02,13.15,3.54,14.51,4.09,3.61,1.57,6.2,3.2,8.31,4.5,2.04,1.36,4.43,2.86,6.61,4.84.82.75,4.36,4.09,5.24,7.84,2.11,8.59-10.83,14.51-11.85,14.99-2.72,1.23-12.27,5.45-20.92,3.75-3.48-.68-5.79-2.11-10.15-1.98-3.54.14-6,1.23-7.77,1.98-1.57.75-6.27,2.86-6.68,6.61-.34,3.2,2.73,5.59,3.75,6.34,27.87,13.42,55.81,26.85,83.68,40.27.07,0,.07.07.14.07Z"/>
      <path class="cls-7" d="m364.54,293.29c-.89,3.75-4.43,7.09-5.18,7.84-2.18,2.04-4.56,3.54-6.68,4.84-2.11,1.29-4.7,2.93-8.31,4.5-1.36.61-7.36,3.07-14.51,4.09-17.65,2.59-30.25-5.18-31.28-5.79-.89-.61-2.52-1.64-4.09-3-3.06-2.52-5.93-6.2-3.2-9.74,1.57-2.04,4.7-3.48,4.57-5.93-.14-2.04-2.32-3.41-3.95-4.36-.34-.2-.82-.48-1.43-.82-2.11-1.16-6-2.72-12.06-2.86-5.25-.14-9.75.82-12.4,1.5l-86.2,41.91L15.86,246.55l-6.2-3c-2.93-1.43-5.25-3.54-6.75-5.93-.75-1.09-1.16-2.18-1.36-2.59-.54-1-1.29-2.66-1.5-4.84-.18-1.84.1-3.22.35-4.43.3-1.4,1.05-4.81,3.46-7.83,1.99-2.49,4.31-3.78,5.52-4.36,56.08-27.12,112.16-54.24,168.24-81.36l73.25,35.23c.89,1.09,1.57,2.45,1.36,4.09-.21,2.52-2.46,4.29-4.36,5.45-.95.54-1.77.89-2.32,1.16-1.77.82-4.16,1.91-7.77,1.98-4.29.2-6.68-1.23-10.15-1.98-6.68-1.29-13.9.89-17.99,2.52-1.3.48-2.25.95-2.86,1.23-1.09.48-13.97,6.4-11.85,15.06.34,1.57,1.16,3.07,2.04,4.29,1.29,1.77,2.73,3.07,3.13,3.47,2.18,2.04,4.56,3.54,6.68,4.84,2.05,1.3,4.5,2.79,7.84,4.29.14.07.27.14.41.2,1.43.61,7.36,3.07,14.58,4.16,17.58,2.52,30.25-5.25,31.21-5.86,1.02-.61,2.93-1.84,4.7-3.41,2.52-2.32,4.77-5.32,3.2-8.31-.14-.34-.34-.61-.55-.95-1.64-2.11-4.7-3.54-4.56-6,.14-2.04,2.32-3.34,3.88-4.36,1.43-.89,5.66-3.41,13.56-3.68,3.61-.14,6.88.34,9.41.89h.14l87.9,42.32-21.33,10.36-15.4,7.5-31.21,15.2c-.07,0-.07.07-.07.07-1.29,1.02-3.61,3.2-3.34,6,.34,3.14,3.68,5.11,5.66,6.13.41.2.75.34,1.02.48,1.77.75,4.22,1.91,7.77,1.98,4.36.14,6.75-1.29,10.15-1.98,7.49-1.5,15.67,1.5,19.49,3.14.61.2,1.09.48,1.43.61,1.02.48,13.97,6.41,11.85,14.99Z"/>
      <g>
        <path class="cls-5" d="m538.7,113.73l-36.59,17.78c-2.66.68-6.95,1.5-11.86,1.36-7.9-.2-12.06-2.79-13.49-3.68-1.57-.95-3.75-2.32-3.88-4.29-.21-2.52,2.93-3.95,4.5-6,4.23-5.45-4.77-11.11-7.29-12.74-1.02-.61-13.63-8.31-31.28-5.79-7.16,1.02-13.15,3.54-14.52,4.16-3.61,1.5-6.2,3.13-8.31,4.5-2.04,1.3-4.5,2.79-6.61,4.77-.82.75-4.36,4.09-5.25,7.84-2.11,8.65,10.84,14.58,11.86,14.99,1.98.89,7.63,3.41,13.83,4.02-3.27.95-5.65,1.98-6.47,2.32-3.54,1.57-6.14,3.14-8.24,4.5-2.11,1.29-4.5,2.79-6.68,4.84-.75.68-4.3,4.02-5.18,7.77-1.77,7.22,7.02,12.61,10.49,14.45l-35.5,17.24-87.9-42.32h-.14c-2.52-.55-5.79-1.02-9.4-.89-7.91.27-12.13,2.79-13.56,3.68-1.57,1.02-3.75,2.32-3.88,4.36-.14,2.45,2.93,3.88,4.56,6,.75,1.02,1.09,1.98,1.09,3,0,1.09-.41,2.18-1.02,3.14-.34.54-.68,1.02-1.09,1.5-2.05,2.32-5.04,4.22-6.34,5.04-.95.61-13.63,8.38-31.21,5.86-4.22-.61-7.97-1.7-10.63-2.66,2.79-.48,5.79-.55,8.72.07,3.41.68,5.79,2.11,10.08,1.98,3.61-.14,6-1.23,7.77-2.04,1.63-.75,6.33-2.86,6.67-6.61.14-1.43-.34-2.66-1.09-3.68l-46.47-22.35c1.09-.55,1.84-.95,2.11-1.02,2.66-1.23,12.2-5.45,20.85-3.75,3.48.75,5.86,2.18,10.15,1.98,3.61-.07,6-1.16,7.77-1.98,1.63-.75,6.33-2.86,6.67-6.61.21-1.64-.48-3-1.36-4.09l-34.82-16.76,161.35-80.68,161.56,80.82Z"/>
        <path class="cls-5" d="m576.93,95.12v37.68l-77.07,37.48c-2.66.61-6.34,1.23-10.49,1.09-7.91-.27-12.13-2.79-13.56-3.68-1.31-.81-3.7-2.41-3.88-4.36-.12-1.21.78-2.3,2.56-4.47,1.19-1.45,1.83-1.82,2.63-3.24.15-.27.92-1.66,1.09-2.8.72-4.72-8.06-9.71-9.06-10.28-2.52-1.43-4.65-2.13-7.3-3.01-3.93-1.3-7.23-1.89-9.02-2.15-.23-.03-.62-.09-1.13-.16-1.49-.19-6.33-.73-12.73.16-1.76.24-4,.64-6.54,1.33-1.93.52-3.59,1.09-4.94,1.61-4.71-.41-8.38-1.56-10.82-2.53-4.43-1.76-8.45-3.35-10.87-7.5-.53-.9-2.51-4.43-1.66-8.66.69-3.42,2.85-5.6,5.25-7.84,2.11-1.98,4.57-3.47,6.61-4.77,2.11-1.36,4.7-3,8.31-4.5,1.36-.61,7.36-3.13,14.52-4.16,17.65-2.52,30.25,5.18,31.28,5.79,2.52,1.64,11.52,7.29,7.29,12.74-1.57,2.04-4.7,3.48-4.5,6,.14,1.98,2.32,3.34,3.88,4.29,1.43.89,5.59,3.48,13.49,3.68,4.91.14,9.2-.68,11.86-1.36l36.59-17.78,38.23-18.6Z"/>
        <path class="cls-5" d="m251.96,134.44c-.34,3.75-5.04,5.86-6.67,6.61-1.77.82-4.16,1.91-7.77,1.98-4.3.2-6.68-1.23-10.15-1.98-8.65-1.7-18.19,2.52-20.85,3.75-.27.07-1.02.48-2.11,1.02l-27.05-13.02v-37.68l38.43,18.47,34.82,16.76c.89,1.09,1.57,2.45,1.36,4.09Z"/>
        <path class="cls-5" d="m461.5,147.66c.12,12.43.32,34.39.21,36.34-.02.31-.05.61-.05.61-.09.73-.26,2.09-1.07,3.46-.65,1.1-1.49,1.84-2.15,2.31q0,.07-.07.07l-80.13,38.98-89.06-42.86h-.07c-2.39-.41-5.18-.75-8.31-.61-5.79.2-9.61,1.64-11.79,2.73v-23.1c0-1.02-.34-1.98-1.09-3-1.64-2.11-4.7-3.54-4.57-6,.14-2.04,2.32-3.34,3.88-4.36,1.43-.89,5.66-3.41,13.56-3.68,3.61-.14,6.88.34,9.4.89h.14l87.9,42.31,35.5-17.24,44.77-21.8c1-1.68,2-3.36,2.99-5.04Z"/>
        <path class="cls-5" d="m269,165.58c.07,12.53.15,25.06.22,37.59,0,.3-.04.79-.21,1.37,0,0-.28.99-.98,1.91-3.07,4.01-7.48,6.23-7.48,6.23-4.05,2.03-8.42,4.23-15.14,5.46-3.6.66-9.27,1.3-16.06.4,0,0-7.4-.97-14.58-4.16-3.54-1.57-6.13-3.13-8.24-4.5-2.11-1.29-4.49-2.79-6.68-4.84-.75-.68-4.29-4.02-5.18-7.77-.14-.68-.2-1.29-.2-1.91v-37.41c0,.61.07,1.23.2,1.91.88,3.75,4.43,7.09,5.18,7.77,2.18,2.04,4.57,3.54,6.68,4.84,2.11,1.36,4.7,2.93,8.24,4.5.62.27,1.98.82,3.95,1.5,2.66.95,6.41,2.04,10.63,2.66,17.58,2.52,30.25-5.25,31.21-5.86,1.29-.82,4.29-2.73,6.34-5.04.41-.48.82-.95,1.09-1.5.62-.95,1.02-2.04,1.02-3.13Z"/>
        <path class="cls-6" d="m576.93,95.12l-38.23,18.6-36.59,17.78c-2.66.68-6.95,1.5-11.86,1.36-7.9-.2-12.06-2.79-13.49-3.68-1.57-.95-3.75-2.32-3.88-4.29-.21-2.52,2.93-3.95,4.5-6,4.23-5.45-4.77-11.11-7.29-12.74-1.02-.61-13.63-8.31-31.28-5.79-7.16,1.02-13.15,3.54-14.52,4.16-3.61,1.5-6.2,3.13-8.31,4.5-2.04,1.3-4.5,2.79-6.61,4.77-.82.75-4.36,4.09-5.25,7.84-2.11,8.65,10.84,14.58,11.86,14.99,1.98.89,7.63,3.41,13.83,4.02h.07c2.32.2,4.7.2,7.02-.27,3.34-.68,5.59-1.98,9.61-1.98h.55c3.54.14,6,1.23,7.77,2.04,1.56.68,6.27,2.86,6.67,6.61v.61c-.13,2.25-1.84,4.09-2.99,5.04l-44.77,21.8-35.5,17.24-87.9-42.32h-.14c-2.52-.55-5.79-1.02-9.4-.89-7.91.27-12.13,2.79-13.56,3.68-1.57,1.02-3.75,2.32-3.88,4.36-.14,2.45,2.93,3.88,4.56,6,.75,1.02,1.09,1.98,1.09,3,0,1.09-.41,2.18-1.02,3.14-.34.54-.68,1.02-1.09,1.5-2.05,2.32-5.04,4.22-6.34,5.04-.95.61-13.63,8.38-31.21,5.86-4.22-.61-7.97-1.7-10.63-2.66-1.98-.68-3.34-1.23-3.95-1.5-3.54-1.57-6.13-3.13-8.24-4.5-2.11-1.29-4.5-2.79-6.68-4.84-.75-.68-4.29-4.02-5.18-7.77-.14-.68-.2-1.3-.2-1.91,0-5.79,6.4-10.15,9.95-12.13,1.09-.55,1.84-.95,2.11-1.02,2.66-1.23,12.2-5.45,20.85-3.75,3.48.75,5.86,2.18,10.15,1.98,3.61-.07,6-1.16,7.77-1.98,1.63-.75,6.33-2.86,6.67-6.61.21-1.64-.48-3-1.36-4.09l-34.82-16.76-38.43-18.47L358.94,4.29c11.45-5.72,24.94-5.72,36.46,0l181.53,90.83Z"/>
      </g>
      <path class="cls-3" d="m179.81,361.5v.07l-.07.07c0-.07-.07-.07-.07-.07.07,0,.07-.07.14-.07Z"/>
      <path class="cls-3" d="m578.98,361.43c.07.07.2.07.27.14-55.94,28.14-111.89,56.28-167.83,84.36-20.17,9.81-43.75,9.88-63.98.14-55.88-28.14-111.75-56.28-167.69-84.43l.07-.07v-36.11c12.13,6.13,24.33,12.2,36.46,18.4h.07c43.75,22.01,87.42,43.95,131.1,66.03,20.24,9.74,43.82,9.68,63.98-.14,43.4-21.8,86.81-43.68,130.22-65.48.21-.14.48-.2.68-.34,12.26-6.13,24.53-12.33,36.8-18.47.07,11.92.07,23.85.14,35.84l-.27.14Z"/>
      <path class="cls-8" d="m748.92,228.42v36.93c-.14,8.93-5.72,16.97-14.1,20.31l-155.57,75.64c-.07-11.99-.07-23.92-.14-35.84.05-.02.09-.05.14-.07l156.65-76.18c1.36-.68,2.66-1.43,3.75-2.32,6.2-4.5,9.27-11.45,9.27-18.47Z"/>
    </g>
  </g>
</svg>