<?xml version="1.0" encoding="UTF-8"?>
<svg id="Layer_2" data-name="Layer 2" xmlns="http://www.w3.org/2000/svg" viewBox="0 0 20.48 20.48">
  <defs>
    <style>
      .cls-1 {
        fill: #fff;
        stroke-width: 0px;
      }
    </style>
  </defs>
  <g id="Layer_1-2" data-name="Layer 1">
    <g>
      <path class="cls-1" d="m10.24,0C4.59,0,0,4.59,0,10.24s4.59,10.24,10.24,10.24,10.24-4.58,10.24-10.24S15.89,0,10.24,0Zm5.01,6.21l-1.7,8.18c-.04.19-.27.28-.43.17l-2.32-1.68c-.14-.1-.33-.1-.47.01l-1.29,1.05c-.15.12-.38.05-.43-.13l-.89-2.87-2.31-.86c-.24-.09-.24-.42,0-.51l9.48-3.66c.2-.08.41.1.36.31Z"/>
      <path class="cls-1" d="m13.07,7.81l-3.72,3.46c-.13.12-.21.28-.24.46l-.13.94c-.02.13-.2.14-.23.02l-.49-1.72c-.06-.2.02-.4.2-.51l4.51-2.78c.08-.05.16.06.09.13Z"/>
    </g>
  </g>
</svg>