<?xml version="1.0" encoding="UTF-8"?>
<svg id="Layer_2" data-name="Layer 2" xmlns="http://www.w3.org/2000/svg" viewBox="0 0 20.48 20.48">
  <defs>
    <style>
      .cls-1 {
        fill: #fff;
        fill-rule: evenodd;
        stroke-width: 0px;
      }
    </style>
  </defs>
  <g id="Layer_1-2" data-name="Layer 1">
    <path class="cls-1" d="m10.24,0h0c-2.82,0-5.38,1.15-7.24,3C1.15,4.86,0,7.42,0,10.24c0,2.24.72,4.32,1.95,6l-1.28,3.8,3.94-1.26c1.62,1.07,3.55,1.69,5.63,1.69,5.65,0,10.24-4.59,10.24-10.24S15.89,0,10.24,0Zm5.96,14.46c-.25.7-1.23,1.28-2.01,1.45-.54.11-1.23.21-3.59-.77-2.64-1.1-6.31-5-6.31-7.59,0-1.32.76-2.86,2.09-2.86.64,0,.78.01.99.52.25.59.85,2.07.92,2.21.3.62-.3.98-.73,1.52-.14.16-.3.34-.12.64.17.3.78,1.28,1.66,2.07,1.14,1.02,2.07,1.34,2.4,1.48.25.1.54.08.72-.11.23-.25.51-.66.8-1.06.21-.29.46-.32.73-.22.18.07,2.51,1.15,2.61,1.32.07.13.07.72-.18,1.42Z"/>
  </g>
</svg>