<?xml version="1.0" encoding="UTF-8"?>
<svg id="Layer_2" data-name="Layer 2" xmlns="http://www.w3.org/2000/svg" xmlns:xlink="http://www.w3.org/1999/xlink" viewBox="0 0 471 728">
  <defs>
    <style>
      .cls-1 {
        fill: #f36;
        filter: url(#drop-shadow-4);
      }

      .cls-1, .cls-2, .cls-3, .cls-4, .cls-5, .cls-6, .cls-7 {
        stroke-width: 0px;
      }

      .cls-2 {
        fill: #33c693;
        filter: url(#drop-shadow-3);
      }

      .cls-3 {
        filter: url(#drop-shadow-6);
      }

      .cls-3, .cls-6 {
        fill: #552084;
      }

      .cls-8 {
        fill: none;
        filter: url(#drop-shadow-1);
        stroke: #fff;
        stroke-linecap: round;
        stroke-miterlimit: 10;
        stroke-width: 32px;
      }

      .cls-4 {
        fill: #0093ff;
        filter: url(#drop-shadow-5);
      }

      .cls-5 {
        fill: #ff9333;
        filter: url(#drop-shadow-2);
      }

      .cls-6 {
        filter: url(#drop-shadow-7);
      }

      .cls-7 {
        fill: #d1c3ff;
      }
    </style>
    <filter id="drop-shadow-1" filterUnits="userSpaceOnUse">
      <feOffset dx="-3" dy="20"/>
      <feGaussianBlur result="blur" stdDeviation="11"/>
      <feFlood flood-color="#000" flood-opacity=".2"/>
      <feComposite in2="blur" operator="in"/>
      <feComposite in="SourceGraphic"/>
    </filter>
    <filter id="drop-shadow-2" filterUnits="userSpaceOnUse">
      <feOffset dx="-3" dy="7"/>
      <feGaussianBlur result="blur-2" stdDeviation="5"/>
      <feFlood flood-color="#000" flood-opacity=".4"/>
      <feComposite in2="blur-2" operator="in"/>
      <feComposite in="SourceGraphic"/>
    </filter>
    <filter id="drop-shadow-3" filterUnits="userSpaceOnUse">
      <feOffset dx="-3" dy="7"/>
      <feGaussianBlur result="blur-3" stdDeviation="5"/>
      <feFlood flood-color="#000" flood-opacity=".4"/>
      <feComposite in2="blur-3" operator="in"/>
      <feComposite in="SourceGraphic"/>
    </filter>
    <filter id="drop-shadow-4" filterUnits="userSpaceOnUse">
      <feOffset dx="-3" dy="7"/>
      <feGaussianBlur result="blur-4" stdDeviation="5"/>
      <feFlood flood-color="#000" flood-opacity=".4"/>
      <feComposite in2="blur-4" operator="in"/>
      <feComposite in="SourceGraphic"/>
    </filter>
    <filter id="drop-shadow-5" filterUnits="userSpaceOnUse">
      <feOffset dx="-3" dy="7"/>
      <feGaussianBlur result="blur-5" stdDeviation="5"/>
      <feFlood flood-color="#000" flood-opacity=".4"/>
      <feComposite in2="blur-5" operator="in"/>
      <feComposite in="SourceGraphic"/>
    </filter>
    <filter id="drop-shadow-6" filterUnits="userSpaceOnUse">
      <feOffset dx="-3" dy="20"/>
      <feGaussianBlur result="blur-6" stdDeviation="11"/>
      <feFlood flood-color="#000" flood-opacity=".2"/>
      <feComposite in2="blur-6" operator="in"/>
      <feComposite in="SourceGraphic"/>
    </filter>
    <filter id="drop-shadow-7" filterUnits="userSpaceOnUse">
      <feOffset dx="-3" dy="20"/>
      <feGaussianBlur result="blur-7" stdDeviation="11"/>
      <feFlood flood-color="#000" flood-opacity=".2"/>
      <feComposite in2="blur-7" operator="in"/>
      <feComposite in="SourceGraphic"/>
    </filter>
  </defs>
  <g id="Layer_1-2" data-name="Layer 1">
    <g>
      <path class="cls-7" d="m394.28,224.8v18.78c0,25.08-23,45.41-51.37,45.41-2.62,0-5.2.17-7.72.51-11.09,1.48-21.03,6.09-28.6,12.79-6.23,5.5-10.86,12.41-13.24,20.14-14.34,10.15-29.2,19.83-43.83,29.16-18.65,11.9-43.05,8.44-57.81-7.91.11-1.2.17-2.42.17-3.65v-5.63c0-25.08-22.99-45.41-51.36-45.41h-.02c-28.37,0-51.36-20.33-51.36-45.41v-41c6.06-1,12.21-1.74,18.47-2.2,32.44-2.37,62.37,11.29,94.5,14.13,60.16,5.34,120.94,10.15,181.38,10.04,3.46-.01,7.07.09,10.79.25Z"/>
      <path class="cls-7" d="m390.74,545.58v77.52H85.6v-70.06c2.55-1.42,5.05-2.88,7.38-4.49,7.16-4.94,12.71-11.35,20-16.14,12.96-8.52,26.05-16.63,39.18-24.81,9.9-6.16,20.46-12.63,31.57-16.73,12.08-4.47,26.68-3.84,40.32-2.84,6.7.49,12.48,2.43,19.02,4.12,18.64,4.83,40.37,4.42,58.3,10.82,17.46,6.23,35.08,16.02,51.04,25.06,12.06,6.83,25.21,12.32,38.33,17.55Z"/>
      <path class="cls-8" d="m288,349.04v5.63c0,25.08,23,45.41,51.37,45.41,14.18,0,27.03,5.08,36.32,13.3,9.3,8.22,15.05,19.57,15.05,32.11v171.85H85.6v-171.85c0-25.08,22.99-45.41,51.36-45.41h.02c26.98,0,49.09-18.38,51.19-41.76.11-1.2.17-2.42.17-3.65v-5.63c0-25.08-22.99-45.41-51.36-45.41h-.02c-28.37,0-51.36-20.33-51.36-45.41V86.37h305.14v171.85c0,25.08-23,45.41-51.37,45.41-2.62,0-5.2.17-7.72.51-11.09,1.48-21.03,6.09-28.6,12.79-6.23,5.5-10.86,12.41-13.24,20.14-1.18,3.81-1.81,7.83-1.81,11.97Z"/>
      <circle class="cls-5" cx="249.71" cy="351.86" r="17.06"/>
      <circle class="cls-2" cx="219.07" cy="392.23" r="16.51"/>
      <circle class="cls-1" cx="255.83" cy="422.99" r="14.13"/>
      <circle class="cls-4" cx="235.58" cy="455.25" r="14.13"/>
      <rect class="cls-3" x="36.33" y="13.9" width="403.67" height="59.03" rx="12.95" ry="12.95"/>
      <rect class="cls-6" x="36.33" y="615.41" width="403.67" height="59.03" rx="12.95" ry="12.95"/>
    </g>
  </g>
</svg>