<?xml version="1.0" encoding="UTF-8"?>
<svg id="Layer_2" data-name="Layer 2" xmlns="http://www.w3.org/2000/svg" viewBox="0 0 24.63 49.66">
  <defs>
    <style>
      .cls-1 {
        fill: #552084;
        stroke-width: 0px;
      }
    </style>
  </defs>
  <g id="Layer_1-2" data-name="Layer 1">
    <path class="cls-1" d="m2.3,34.47v-1.06c0-2.54.53-4.81,1.6-6.82,1.07-2,3.02-4.37,5.85-7.1l.14-.07c.74-.75,1.25-1.27,1.53-1.55,1.44-1.55,2.16-2.99,2.16-4.31,0-2.4-1.37-3.6-4.11-3.6-3.2,0-6.35,1.51-9.46,4.52V4.24C3.39,1.41,7.05,0,10.99,0s7.03,1.06,9.53,3.18c2.74,2.36,4.11,5.39,4.11,9.11,0,4.38-1.85,8.38-5.57,12.01-3.06,2.97-4.96,4.96-5.71,5.97-.74,1.01-1.11,2.13-1.11,3.36,0,.38.02.66.07.85H2.3Zm-.31,3.89c1.23-1.22,2.82-1.84,4.77-1.84,1.86,0,3.4.56,4.63,1.7,1.23,1.13,1.91,2.61,2.05,4.45v.28c0,1.98-.61,3.59-1.84,4.84-1.23,1.25-2.84,1.87-4.84,1.87-1.95,0-3.54-.6-4.77-1.8-1.23-1.2-1.84-2.77-1.84-4.7v-.14c0-1.88.61-3.44,1.84-4.66Z"/>
  </g>
</svg>