<?xml version="1.0" encoding="UTF-8"?>
<svg id="Layer_2" data-name="Layer 2" xmlns="http://www.w3.org/2000/svg" xmlns:xlink="http://www.w3.org/1999/xlink" viewBox="0 0 166 145.28">
  <defs>
    <style>
      .cls-1, .cls-2, .cls-3, .cls-4, .cls-5, .cls-6, .cls-7, .cls-8, .cls-9, .cls-10, .cls-11, .cls-12, .cls-13, .cls-14, .cls-15, .cls-16, .cls-17, .cls-18 {
        stroke-width: 0px;
      }

      .cls-1, .cls-2, .cls-13 {
        fill: #dedaff;
      }

      .cls-2 {
        filter: url(#drop-shadow-2);
      }

      .cls-3 {
        fill: #0093ff;
      }

      .cls-4 {
        fill: #c63333;
      }

      .cls-5 {
        fill: #0066c6;
      }

      .cls-6 {
        fill: #ff9333;
      }

      .cls-7, .cls-9, .cls-14, .cls-16 {
        fill: #9333ff;
      }

      .cls-8 {
        fill: #fff;
      }

      .cls-9 {
        filter: url(#drop-shadow-3);
      }

      .cls-10 {
        fill: #dbe7ff;
      }

      .cls-11 {
        fill: #339366;
      }

      .cls-12 {
        fill: #33c693;
      }

      .cls-13 {
        filter: url(#drop-shadow-5);
      }

      .cls-14 {
        filter: url(#drop-shadow-1);
      }

      .cls-15 {
        fill: #f36;
      }

      .cls-16 {
        filter: url(#drop-shadow-4);
      }

      .cls-17 {
        fill: #c66633;
      }

      .cls-18 {
        fill: #d1c3ff;
      }
    </style>
    <filter id="drop-shadow-1" filterUnits="userSpaceOnUse">
      <feOffset dx="0" dy="5.5"/>
      <feGaussianBlur result="blur" stdDeviation="4"/>
      <feFlood flood-color="#000" flood-opacity=".2"/>
      <feComposite in2="blur" operator="in"/>
      <feComposite in="SourceGraphic"/>
    </filter>
    <filter id="drop-shadow-2" filterUnits="userSpaceOnUse">
      <feOffset dx="0" dy="5.5"/>
      <feGaussianBlur result="blur-2" stdDeviation="4"/>
      <feFlood flood-color="#000" flood-opacity=".2"/>
      <feComposite in2="blur-2" operator="in"/>
      <feComposite in="SourceGraphic"/>
    </filter>
    <filter id="drop-shadow-3" filterUnits="userSpaceOnUse">
      <feOffset dx="0" dy="5.5"/>
      <feGaussianBlur result="blur-3" stdDeviation="4"/>
      <feFlood flood-color="#000" flood-opacity=".2"/>
      <feComposite in2="blur-3" operator="in"/>
      <feComposite in="SourceGraphic"/>
    </filter>
    <filter id="drop-shadow-4" filterUnits="userSpaceOnUse">
      <feOffset dx="0" dy="5.5"/>
      <feGaussianBlur result="blur-4" stdDeviation="4"/>
      <feFlood flood-color="#000" flood-opacity=".2"/>
      <feComposite in2="blur-4" operator="in"/>
      <feComposite in="SourceGraphic"/>
    </filter>
    <filter id="drop-shadow-5" filterUnits="userSpaceOnUse">
      <feOffset dx="0" dy="5.5"/>
      <feGaussianBlur result="blur-5" stdDeviation="4"/>
      <feFlood flood-color="#000" flood-opacity=".2"/>
      <feComposite in2="blur-5" operator="in"/>
      <feComposite in="SourceGraphic"/>
    </filter>
  </defs>
  <g id="Layer_1-2" data-name="Layer 1">
    <g>
      <g>
        <path class="cls-8" d="m37.81,116.86l-2.24,3.76c-1.88-1.42-3.65-2.13-5.32-2.13-1.5,0-2.75.75-3.78,2.24-1.03,1.5-1.54,3.32-1.54,5.47,0,2.28.72,4.14,2.17,5.59,1.17,1.17,2.47,1.75,3.91,1.75.99,0,1.72-.1,2.2-.3v-4.03h-4.29v-5.05h9.77v11.74c-1.98,1.06-3.53,1.76-4.66,2.09-1.13.33-2.54.49-4.24.49-3.95,0-6.89-1.49-8.82-4.48-1.39-2.15-2.09-4.8-2.09-7.94,0-3.8,1.1-6.89,3.31-9.27,2.03-2.18,4.61-3.27,7.75-3.27,1.42,0,2.84.3,4.26.91,1.42.61,2.62,1.42,3.61,2.43Z"/>
        <path class="cls-8" d="m48.11,120.77l.49,1.33c.13-.41.56-.8,1.29-1.2.73-.39,1.42-.59,2.05-.59,2.43,0,4.26,1.25,5.47,3.76l-4.83,2.51c-.73-1.04-1.53-1.56-2.39-1.56-.68,0-1.13.34-1.33,1.03v11.97h-5.59v-17.25h4.83Z"/>
        <path class="cls-8" d="m73.65,138.02h-4.6l-.38-1.56c-1.27,1.34-2.88,2.01-4.83,2.01-3.83,0-5.74-1.89-5.74-5.66,0-1.85.78-3.28,2.36-4.29,1.7-1.09,4.23-1.63,7.6-1.63h.04v-.04c0-.94-.16-1.55-.48-1.84-.32-.29-.98-.44-2-.44-1.77,0-3.34.53-4.71,1.6-.53-.89-1.08-1.87-1.63-2.96,1.49-1.09,2.83-1.84,4.01-2.26,1.18-.42,2.54-.63,4.08-.63,1.95,0,3.48.7,4.6,2.09,1.11,1.37,1.67,3.26,1.67,5.66v9.96Zm-5.74-7.79c-1.22,0-2.21.23-2.98.68-.77.46-1.16,1.05-1.16,1.79v.04c.08,1.14.54,1.72,1.41,1.75h.08c.71,0,1.32-.25,1.84-.74.52-.49.79-1.08.82-1.77v-1.75Z"/>
        <path class="cls-8" d="m89.65,121.53v-4.79l5.7-3.15v24.43h-4.6l-.8-1.82c-.35.63-.98,1.17-1.86,1.62-.89.44-1.8.67-2.74.67-2.79,0-4.89-.89-6.31-2.66-1.14-1.44-1.71-3.33-1.71-5.66,0-3.44.99-6.07,2.96-7.87,1.47-1.32,3.18-1.98,5.13-1.98,1.67,0,3.08.41,4.22,1.22Zm0,5.62c-.38-1.92-1.36-2.89-2.93-2.89-1.14,0-2.03.45-2.66,1.35-.63.9-.95,2.15-.95,3.74,0,3.42.98,5.13,2.93,5.13,1.22,0,2.19-.59,2.93-1.79.46-.73.68-1.38.68-1.94v-3.61Z"/>
        <path class="cls-8" d="m100.1,115.91v-.08c0-.94.32-1.74.95-2.41.63-.67,1.41-1.01,2.32-1.01.96,0,1.78.33,2.45.99.67.66,1.01,1.47,1.01,2.43v.08c0,2.13-1.15,3.24-3.46,3.34-2.18-.15-3.27-1.27-3.27-3.34Zm6.31,4.86v17.25h-5.78v-17.25h5.78Z"/>
        <path class="cls-8" d="m110.17,125.37v-4.6h2.77v-2.2c0-1.77.38-3.06,1.14-3.86.76-.8,1.98-1.2,3.65-1.2,2.3,0,4.42.79,6.35,2.36l-2.13,2.96c-1.11-.76-1.9-1.14-2.36-1.14-.63,0-.95.52-.95,1.56v1.52h4.79v4.6h-4.79v12.65h-5.7v-12.65h-2.77Z"/>
        <path class="cls-8" d="m142.66,120.77l-7.14,19.72c-1.17,3.19-2.86,4.79-5.09,4.79-1.88,0-3.79-.82-5.74-2.47.61-.99,1.1-1.88,1.48-2.66.99.66,1.86.99,2.62.99.41,0,.82-.3,1.25-.89.43-.6.76-1.34.99-2.22h-1.06l-5.78-17.25h5.59c.91,3.19,1.99,6.74,3.23,10.64l4.03-10.64h5.62Z"/>
      </g>
      <g>
        <path class="cls-14" d="m152.9,41.78L83.88,7.51c-.5-.24-1.08-.24-1.57,0L13.29,41.78c-1.3.65-1.3,2.51,0,3.16l69.02,34.51c.5.25,1.08.25,1.57,0l69.02-34.51c1.3-.65,1.3-2.51,0-3.16Zm-25.35,1.56s-.02.01-.03.02c-.01,0-.02.01-.03.02l-2.22,1.08-4.84,2.35-36.31,17.65s0,0-.01,0l-.13.06c-.4.19-.88.19-1.28,0l-.12-.06-36.77-17.69-4.88-2.35h0l-2.2-1.06c-1.32-.63-1.33-2.51-.02-3.17l43.73-21.87c.4-.2.86-.21,1.27-.02.03.01.06.03.09.04.03,0,.06.02.09.04l43.63,21.81s.03.02.05.03c1.24.66,1.23,2.45-.01,3.1Z"/>
        <polygon class="cls-2" points="139.3 58.01 139.3 72.79 83.04 100.85 83.03 100.85 83.04 86.07 139.3 58.01"/>
        <path class="cls-9" d="m83.03,86.07v14.78l-55.75-28.06c.02-4.82.05-9.64.07-14.47,18.56,9.25,37.13,18.5,55.68,27.74Z"/>
        <path class="cls-16" d="m12.38,70.54c-.03-9.06-.05-18.13-.08-27.19l5.33,2.67c.02,9.11.04,18.22.06,27.33,0,.5-.52.84-.98.62-1.02-.48-2.04-.96-3.06-1.44-.77-.36-1.27-1.14-1.27-1.99Z"/>
        <path class="cls-13" d="m12.3,69.49v22.14c0,.17.08.32.22.41l8.69,5.61c.33.21.76-.02.76-.41v-22.96c0-.18-.1-.34-.25-.43l-8.69-4.78c-.33-.18-.73.06-.73.43Z"/>
        <path class="cls-10" d="m127.54,43.33s-.02.01-.03.02c-.01,0-.02.01-.03.02l-2.23,1.08-4.83,2.35-36.31,17.66s0,0-.01,0l-.13.06c-.4.19-.88.19-1.28,0l-.12-.06-36.77-17.69-4.88-2.35h0l-2.2-1.06c-1.32-.63-1.33-2.51-.02-3.17l43.73-21.87c.4-.2.86-.21,1.27-.02.03.01.06.03.09.04l43.77,21.88c1.24.66,1.23,2.45-.01,3.1Z"/>
        <path class="cls-1" d="m125.27,44.45l-4.84,2.35-36.31,17.65s0,0-.01,0l-.13.06c-.4.19-.88.19-1.28,0l-.12-.06-36.77-17.69-4.88-2.35c.13-.29.37-.54.7-.72l40.75-20.37c.44-.22.96-.22,1.4,0l40.76,20.38c.34.17.58.43.72.73h0Z"/>
        <path class="cls-18" d="m120.43,46.8h0s-36.31,17.66-36.31,17.66c0,0,0,0-.01,0l-.13.06c-.4.19-.88.19-1.28,0l-.12-.06-36.77-17.69h0s35.92-18.56,35.92-18.56c.86-.45,1.87-.45,2.72,0l35.97,18.58Z"/>
        <path class="cls-7" d="m82.58,64.46l.12.06c.4.19.88.19,1.28,0l.13-.06c-.48.23-1.05.23-1.52,0Zm-.15-46.14l-43.73,21.87,43.6-21.8c.43-.21.94-.24,1.39-.08-.4-.19-.87-.19-1.27.02Zm-36.62,28.44l-4.88-2.35,4.88,2.35,36.77,17.69-36.77-17.69Z"/>
        <path class="cls-5" d="m97.19,54.48l-10.97,5.33c-1.63.79-3.53.8-5.17.01l-11.12-5.35c-1.03-.49-1.04-1.96-.02-2.47l11.47-5.74c1.36-.68,2.97-.68,4.33,0l11.48,5.74c1.02.51,1.01,1.97-.01,2.46Z"/>
        <path class="cls-11" d="m97.07,34.77l-11.86,5.77c-1.02.5-2.22.5-3.24,0l-12.01-5.78c-1.06-.51-1.07-2.01-.02-2.54l12.09-6.04c.93-.46,2.02-.46,2.95,0l12.1,6.05c1.05.52,1.04,2.02-.01,2.54Z"/>
        <path class="cls-4" d="m79.35,44.46l-11.61,5.65c-1.25.61-2.72.61-3.97,0l-11.76-5.66c-1.01-.49-1.02-1.92-.02-2.42l11.9-5.95c1.12-.56,2.44-.56,3.56,0l11.91,5.96c1,.5.99,1.93-.01,2.42Z"/>
        <path class="cls-17" d="m113.6,45.48l-10.76,5.23c-1.2.58-2.59.58-3.79,0l-10.91-5.25c-1.4-.67-1.41-2.65-.03-3.35l11.09-5.54c1.04-.52,2.27-.52,3.31,0l11.11,5.55c1.38.69,1.37,2.67-.02,3.34Z"/>
        <path class="cls-3" d="m97.19,53.37l-10.97,5.33c-1.63.79-3.53.8-5.17.01l-11.12-5.35c-1.03-.49-1.04-1.96-.02-2.47l11.47-5.74c1.36-.68,2.97-.68,4.33,0l11.48,5.74c1.02.51,1.01,1.97-.01,2.46Z"/>
        <path class="cls-12" d="m97.07,33.66l-11.86,5.77c-1.02.5-2.22.5-3.24,0l-12.01-5.78c-1.06-.51-1.07-2.01-.02-2.54l12.09-6.04c.93-.46,2.02-.46,2.95,0l12.1,6.05c1.05.52,1.04,2.02-.01,2.54Z"/>
        <path class="cls-15" d="m79.35,43.36l-11.61,5.65c-1.25.61-2.72.61-3.97,0l-11.76-5.66c-1.01-.49-1.02-1.92-.02-2.42l11.9-5.95c1.12-.56,2.44-.56,3.56,0l11.91,5.96c1,.5.99,1.93-.01,2.42Z"/>
        <path class="cls-6" d="m113.6,44.37l-10.76,5.23c-1.2.58-2.59.58-3.79,0l-10.91-5.25c-1.4-.67-1.41-2.65-.03-3.35l11.09-5.54c1.04-.52,2.27-.52,3.31,0l11.11,5.55c1.38.69,1.37,2.67-.02,3.34Z"/>
      </g>
    </g>
  </g>
</svg>