<?xml version="1.0" encoding="UTF-8"?>
<svg id="Layer_2" data-name="Layer 2" xmlns="http://www.w3.org/2000/svg" xmlns:xlink="http://www.w3.org/1999/xlink" viewBox="0 0 555 634">
  <defs>
    <style>
      .cls-1 {
        filter: url(#drop-shadow-4);
      }

      .cls-1, .cls-2, .cls-3, .cls-4, .cls-5, .cls-6, .cls-7, .cls-8, .cls-9, .cls-10, .cls-11, .cls-12, .cls-13, .cls-14 {
        stroke-width: 0px;
      }

      .cls-1, .cls-4 {
        fill: #c63333;
      }

      .cls-2 {
        fill: #552084;
      }

      .cls-3 {
        fill: #0093ff;
      }

      .cls-5, .cls-6 {
        fill: #0066c6;
      }

      .cls-6 {
        filter: url(#drop-shadow-2);
      }

      .cls-7 {
        fill: #ff9333;
      }

      .cls-8 {
        filter: url(#drop-shadow-1);
      }

      .cls-8, .cls-14 {
        fill: #c66633;
      }

      .cls-9 {
        fill: #fff;
      }

      .cls-10 {
        filter: url(#drop-shadow-3);
      }

      .cls-10, .cls-11 {
        fill: #339366;
      }

      .cls-12 {
        fill: #33c693;
      }

      .cls-13 {
        fill: #f36;
      }
    </style>
    <filter id="drop-shadow-1" filterUnits="userSpaceOnUse">
      <feOffset dx="0" dy="10"/>
      <feGaussianBlur result="blur" stdDeviation="15"/>
      <feFlood flood-color="#000" flood-opacity=".4"/>
      <feComposite in2="blur" operator="in"/>
      <feComposite in="SourceGraphic"/>
    </filter>
    <filter id="drop-shadow-2" filterUnits="userSpaceOnUse">
      <feOffset dx="0" dy="10"/>
      <feGaussianBlur result="blur-2" stdDeviation="15"/>
      <feFlood flood-color="#000" flood-opacity=".4"/>
      <feComposite in2="blur-2" operator="in"/>
      <feComposite in="SourceGraphic"/>
    </filter>
    <filter id="drop-shadow-3" filterUnits="userSpaceOnUse">
      <feOffset dx="0" dy="10"/>
      <feGaussianBlur result="blur-3" stdDeviation="15"/>
      <feFlood flood-color="#000" flood-opacity=".4"/>
      <feComposite in2="blur-3" operator="in"/>
      <feComposite in="SourceGraphic"/>
    </filter>
    <filter id="drop-shadow-4" filterUnits="userSpaceOnUse">
      <feOffset dx="0" dy="10"/>
      <feGaussianBlur result="blur-4" stdDeviation="15"/>
      <feFlood flood-color="#000" flood-opacity=".4"/>
      <feComposite in2="blur-4" operator="in"/>
      <feComposite in="SourceGraphic"/>
    </filter>
  </defs>
  <g id="Layer_1-2" data-name="Layer 1">
    <g>
      <path class="cls-9" d="m276.89,529s-.02,0-.03.01c.03.02.06.04.1.06l-.07-.07Zm-149.22-216.28l-15.1-4.25c.44,1.45.87,2.9,1.32,4.34h14.1c-.1-.03-.21-.06-.32-.09Z"/>
      <g>
        <path class="cls-8" d="m492.39,312.81c-3.5,11.81-7.27,23.03-11.2,33.67-15.66,42.41-33.91,75.57-48.81,99.21-29.31,46.5-70.79,84.64-127.24,124.44-8.21,5.79-17.91,8.75-27.65,8.87v-53.12c2.52-.15,5.01-1,7.16-2.55,50.36-36.41,83.08-68.83,105.43-104.3,17.66-28.01,32.53-58.25,44.21-89.88,1.99-5.38,3.9-10.83,5.71-16.34h52.39Z"/>
        <path class="cls-6" d="m268.76,523.41c-41.78-29.53-76.94-65.1-104.63-105.85-7.48-11.01-17.47-26.55-28.48-49.31-6.05-12.49-11.48-25.46-16.16-38.57-2-5.56-3.87-11.19-5.6-16.87h-52.05c2.81,10.43,6.27,21.73,10.55,33.67,4.91,13.76,10.9,28.38,18.25,43.55,12.15,25.11,23.37,42.73,32.13,55.62,40.19,59.17,88.11,99.18,126.25,124.89,8.52,5.75,28.47,8.45,28.47,8.46v-53.12c-3.03.19-6.13-.63-8.73-2.47Zm8.1,5.6s.02-.01.03-.01l.07.07s-.07-.04-.1-.06Z"/>
        <path class="cls-10" d="m499.19,288.41l-.15.04c-2.09,8.37-4.31,16.5-6.65,24.36h-52.39c3.94-11.95,7.47-24.14,10.52-36.43l.31-1.23c.06-.25.12-.51.17-.76,6.31-32.85,8.17-62.27,8.2-85.33.01-6.57-4.62-12.26-11.07-13.47-31.64-5.97-62.24-15.85-91.36-29.53-25.34-11.91-49.05-26.48-70.82-43.49-2.49-1.94-5.49-2.9-8.47-2.87v-63.82s10.4,1.86,14.33,5.65c19.04,18.36,47.36,41.01,86.23,59.28,43.21,20.3,83.19,27.53,111.31,30.1,9.64.88,17.25,8.14,18.09,17.32,3.22,35.26,2.75,85.74-8.25,140.18Z"/>
        <path class="cls-2" d="m459.2,189.06c-.03,23.06-1.89,52.48-8.2,85.33-.05.25-.11.51-.17.76l-.31,1.23c-3.05,12.29-6.58,24.48-10.52,36.43-1.81,5.51-3.72,10.96-5.71,16.34-11.68,31.63-26.55,61.87-44.21,89.88-22.35,35.47-55.07,67.89-105.43,104.3-2.15,1.55-4.64,2.4-7.16,2.55-3.03.19-6.13-.63-8.73-2.47-41.78-29.53-76.94-65.1-104.63-105.85-7.48-11.01-17.47-26.55-28.48-49.31-6.05-12.49-11.48-25.46-16.16-38.57-2-5.56-3.87-11.19-5.6-16.87-.45-1.44-.88-2.89-1.32-4.34-2.95-9.99-5.5-20.12-7.64-30.29l-2.06-9.84c-5.45-29.42-7.14-56.56-7.05-79.37.03-6.52,4.66-12.15,11.07-13.35,31.72-5.97,62.36-15.86,91.5-29.55,25.34-11.91,49.06-26.48,70.84-43.5,2.42-1.89,5.33-2.85,8.25-2.87,2.98-.03,5.98.93,8.47,2.87,21.77,17.01,45.48,31.58,70.82,43.49,29.12,13.68,59.72,23.56,91.36,29.53,6.45,1.21,11.08,6.9,11.07,13.47Z"/>
        <path class="cls-1" d="m277.48,35.88v63.82c-2.92.02-5.83.98-8.25,2.87-21.78,17.02-45.5,31.59-70.84,43.5-29.14,13.69-59.78,23.58-91.5,29.55-6.41,1.2-11.04,6.83-11.07,13.35-.09,22.81,1.6,49.95,7.05,79.37l2.06,9.84c2.14,10.17,4.69,20.3,7.64,30.29.44,1.45.87,2.9,1.32,4.34h-52.05c-2.37-8.76-4.28-16.92-5.84-24.34l-.13-.04c-12.46-59.17-10.91-109.77-8.15-140.14.84-9.16,8.39-16.5,18-17.36,28.13-2.57,68.15-9.8,111.41-30.12,38.87-18.27,67.18-40.92,86.23-59.28,3.88-3.75,9-5.63,14.12-5.65Z"/>
        <path class="cls-14" d="m492.39,312.81c-3.5,11.81-7.27,23.03-11.2,33.67-15.66,42.41-33.91,75.57-48.81,99.21-29.31,46.5-70.79,84.64-127.24,124.44-8.21,5.79-17.91,8.75-27.65,8.87v-53.12c2.52-.15,5.01-1,7.16-2.55,50.36-36.41,83.08-68.83,105.43-104.3,17.66-28.01,32.53-58.25,44.21-89.88,1.99-5.38,3.9-10.83,5.71-16.34h52.39Z"/>
        <path class="cls-5" d="m268.76,523.41c-41.78-29.53-76.94-65.1-104.63-105.85-7.48-11.01-17.47-26.55-28.48-49.31-6.05-12.49-11.48-25.46-16.16-38.57-2-5.56-3.87-11.19-5.6-16.87h-52.05c2.81,10.43,6.27,21.73,10.55,33.67,4.91,13.76,10.9,28.38,18.25,43.55,12.15,25.11,23.37,42.73,32.13,55.62,40.19,59.17,88.11,99.18,126.25,124.89,8.52,5.75,28.47,8.45,28.47,8.46v-53.12c-3.03.19-6.13-.63-8.73-2.47Zm8.1,5.6s.02-.01.03-.01l.07.07s-.07-.04-.1-.06Z"/>
        <path class="cls-11" d="m499.19,288.41l-.15.04c-2.09,8.37-4.31,16.5-6.65,24.36h-52.39c3.94-11.95,7.47-24.14,10.52-36.43l.31-1.23c.06-.25.12-.51.17-.76,6.31-32.85,8.17-62.27,8.2-85.33.01-6.57-4.62-12.26-11.07-13.47-31.64-5.97-62.24-15.85-91.36-29.53-25.34-11.91-49.05-26.48-70.82-43.49-2.49-1.94-5.49-2.9-8.47-2.87v-63.82s10.4,1.86,14.33,5.65c19.04,18.36,47.36,41.01,86.23,59.28,43.21,20.3,83.19,27.53,111.31,30.1,9.64.88,17.25,8.14,18.09,17.32,3.22,35.26,2.75,85.74-8.25,140.18Z"/>
        <path class="cls-4" d="m277.48,35.88v63.82c-2.92.02-5.83.98-8.25,2.87-21.78,17.02-45.5,31.59-70.84,43.5-29.14,13.69-59.78,23.58-91.5,29.55-6.41,1.2-11.04,6.83-11.07,13.35-.09,22.81,1.6,49.95,7.05,79.37l2.06,9.84c2.14,10.17,4.69,20.3,7.64,30.29.44,1.45.87,2.9,1.32,4.34h-52.05c-2.37-8.76-4.28-16.92-5.84-24.34l-.13-.04c-12.46-59.17-10.91-109.77-8.15-140.14.84-9.16,8.39-16.5,18-17.36,28.13-2.57,68.15-9.8,111.41-30.12,38.87-18.27,67.18-40.92,86.23-59.28,3.88-3.75,9-5.63,14.12-5.65Z"/>
      </g>
      <path class="cls-9" d="m276.89,529s-.02,0-.03.01c.03.02.06.04.1.06l-.07-.07Zm-149.22-216.28l-15.1-4.25c.44,1.45.87,2.9,1.32,4.34h14.1c-.1-.03-.21-.06-.32-.09Z"/>
      <path class="cls-7" d="m440,312.81c-1.81,5.51-3.72,10.96-5.71,16.34-11.68,31.63-26.55,61.87-44.21,89.88-22.35,35.47-55.07,67.89-105.43,104.3-2.15,1.55-4.64,2.4-7.16,2.55v-213.07h162.51Z"/>
      <path class="cls-3" d="m277.49,312.81v213.07c-3.03.19-6.13-.63-8.73-2.47-41.78-29.53-76.94-65.1-104.63-105.85-7.48-11.01-17.47-26.55-28.48-49.31-6.05-12.49-11.48-25.46-16.16-38.57-2-5.56-3.87-11.19-5.6-16.87h163.6Z"/>
      <path class="cls-12" d="m459.2,189.06c-.03,23.06-1.89,52.48-8.2,85.33-.05.25-.11.51-.17.76l-.31,1.23c-3.05,12.29-6.58,24.48-10.52,36.43h-162.51V99.7c2.97-.03,5.97.93,8.46,2.87,21.77,17.01,45.48,31.58,70.82,43.49,29.12,13.68,59.72,23.56,91.36,29.53,6.45,1.21,11.08,6.9,11.07,13.47Z"/>
      <path class="cls-13" d="m277.49,312.81H113.89c-1.9-6.15-3.73-12.63-5.44-19.42-1.32-5.21-2.48-10.29-3.52-15.21l-2.06-9.84c-5.45-29.42-7.14-56.56-7.05-79.37.03-6.52,4.66-12.15,11.07-13.35,31.72-5.97,62.36-15.86,91.5-29.55,25.34-11.91,49.06-26.48,70.84-43.5,2.42-1.89,5.33-2.85,8.25-2.87v213.11Z"/>
    </g>
  </g>
</svg>