<?xml version="1.0" encoding="UTF-8"?>
<svg id="Layer_2" data-name="Layer 2" xmlns="http://www.w3.org/2000/svg" xmlns:xlink="http://www.w3.org/1999/xlink" viewBox="0 0 505.87 708.94">
  <defs>
    <style>
      .cls-1 {
        fill: #0093ff;
      }

      .cls-1, .cls-2, .cls-3, .cls-4, .cls-5, .cls-6 {
        stroke-width: 0px;
      }

      .cls-2 {
        fill: #ff9333;
      }

      .cls-7 {
        stroke-width: 18.66px;
      }

      .cls-7, .cls-3, .cls-8 {
        fill: none;
      }

      .cls-7, .cls-8 {
        stroke: #fff;
        stroke-linecap: round;
        stroke-linejoin: round;
      }

      .cls-9 {
        filter: url(#drop-shadow-1);
      }

      .cls-8 {
        stroke-width: 19.51px;
      }

      .cls-4 {
        fill: #fff;
      }

      .cls-5 {
        fill: #33c693;
      }

      .cls-6 {
        fill: #f36;
      }
    </style>
    <filter id="drop-shadow-1" filterUnits="userSpaceOnUse">
      <feOffset dx="0" dy="12"/>
      <feGaussianBlur result="blur" stdDeviation="8"/>
      <feFlood flood-color="#000" flood-opacity=".3"/>
      <feComposite in2="blur" operator="in"/>
      <feComposite in="SourceGraphic"/>
    </filter>
  </defs>
  <g id="Layer_1-2" data-name="Layer 1">
    <g>
      <g class="cls-9">
        <g>
          <line class="cls-8" x1="361.06" y1="86.64" x2="361.06" y2="35.15"/>
          <path class="cls-4" d="m383.07,36.25c0-12.15-9.85-22.01-22.01-22.01s-22.01,9.85-22.01,22.01,9.85,22.01,22.01,22.01,22.01-9.85,22.01-22.01Z"/>
        </g>
        <g>
          <polyline class="cls-8" points="156.47 181.97 156.47 94.47 101.72 39.72"/>
          <path class="cls-4" d="m118.06,24.94c-8.59-8.59-22.53-8.59-31.12,0-8.59,8.59-8.59,22.53,0,31.12,8.59,8.59,22.53,8.59,31.12,0,8.59-8.59,8.59-22.53,0-31.12Z"/>
        </g>
        <g>
          <polyline class="cls-8" points="282.04 394.62 282.04 464.29 381.76 564.02"/>
          <path class="cls-4" d="m365.42,578.8c8.59,8.59,22.53,8.59,31.12,0s8.59-22.53,0-31.12c-8.59-8.59-22.53-8.59-31.12,0-8.59,8.59-8.59,22.53,0,31.12Z"/>
        </g>
        <g>
          <line class="cls-8" x1="197.39" y1="549.44" x2="197.39" y2="651.69"/>
          <path class="cls-4" d="m175.38,650.59c0,12.15,9.85,22.01,22.01,22.01s22.01-9.85,22.01-22.01-9.85-22.01-22.01-22.01-22.01,9.85-22.01,22.01Z"/>
        </g>
        <polyline class="cls-8" points="361.06 141.05 361.06 480.49 306.52 548.45 197.39 548.45"/>
        <polyline class="cls-7" points="142.71 181.97 88.38 181.97 33.84 236.51 33.84 372.54 74.69 413.39 74.69 492.86 130.29 548.45 210.87 548.45"/>
        <polyline class="cls-7" points="156.47 195.45 156.47 249.78 183.8 277.12 238.62 277.12 282.04 320.54 282.04 341.59"/>
        <path class="cls-7" d="m306.39,386.3h40.92l56.24-56.24v-39.35l67.3-67.3v-43.8c-12.21-13.88-24.43-27.77-36.64-41.65-50.67-.09-101.33-.17-152-.26-14.44,14.76-28.88,29.51-43.32,44.26h-82.43"/>
        <polyline class="cls-7" points="255.19 383.87 211.14 383.87 171.03 423.99 171.03 454.38 197.96 481.31 197.96 513.7"/>
        <rect class="cls-5" x="306.66" y="86.64" width="108.81" height="108.81" rx="10.91" ry="10.91"/>
        <rect class="cls-6" x="102.06" y="127.56" width="108.81" height="108.81" rx="10.91" ry="10.91"/>
        <rect class="cls-1" x="224.55" y="331.89" width="108.81" height="108.81" rx="10.91" ry="10.91"/>
        <rect class="cls-2" x="142.98" y="495.03" width="108.81" height="108.81" rx="10.91" ry="10.91"/>
      </g>
      <rect class="cls-3" width="505.87" height="708.94"/>
    </g>
  </g>
</svg>