<?xml version="1.0" encoding="UTF-8"?>
<svg id="Layer_2" data-name="Layer 2" xmlns="http://www.w3.org/2000/svg" xmlns:xlink="http://www.w3.org/1999/xlink" viewBox="0 0 749 600">
  <defs>
    <style>
      .cls-1 {
        fill: #0093ff;
      }

      .cls-1, .cls-2, .cls-3, .cls-4, .cls-5, .cls-6, .cls-7, .cls-8 {
        stroke-width: 0px;
      }

      .cls-2 {
        fill: #0066c6;
        filter: url(#drop-shadow-2);
      }

      .cls-3 {
        fill: #ff9333;
      }

      .cls-4 {
        fill: #339366;
        filter: url(#drop-shadow-4);
      }

      .cls-5 {
        fill: #c66633;
        filter: url(#drop-shadow-3);
      }

      .cls-6 {
        fill: #33c693;
      }

      .cls-7 {
        fill: #f36;
      }

      .cls-8 {
        fill: #c63333;
        filter: url(#drop-shadow-1);
      }
    </style>
    <filter id="drop-shadow-1" filterUnits="userSpaceOnUse">
      <feOffset dx="0" dy="23"/>
      <feGaussianBlur result="blur" stdDeviation="8"/>
      <feFlood flood-color="#000" flood-opacity=".2"/>
      <feComposite in2="blur" operator="in"/>
      <feComposite in="SourceGraphic"/>
    </filter>
    <filter id="drop-shadow-2" filterUnits="userSpaceOnUse">
      <feOffset dx="0" dy="23"/>
      <feGaussianBlur result="blur-2" stdDeviation="8"/>
      <feFlood flood-color="#000" flood-opacity=".2"/>
      <feComposite in2="blur-2" operator="in"/>
      <feComposite in="SourceGraphic"/>
    </filter>
    <filter id="drop-shadow-3" filterUnits="userSpaceOnUse">
      <feOffset dx="0" dy="23"/>
      <feGaussianBlur result="blur-3" stdDeviation="8"/>
      <feFlood flood-color="#000" flood-opacity=".2"/>
      <feComposite in2="blur-3" operator="in"/>
      <feComposite in="SourceGraphic"/>
    </filter>
    <filter id="drop-shadow-4" filterUnits="userSpaceOnUse">
      <feOffset dx="0" dy="23"/>
      <feGaussianBlur result="blur-4" stdDeviation="8"/>
      <feFlood flood-color="#000" flood-opacity=".2"/>
      <feComposite in2="blur-4" operator="in"/>
      <feComposite in="SourceGraphic"/>
    </filter>
  </defs>
  <g id="Layer_1-2" data-name="Layer 1">
    <g>
      <path class="cls-8" d="m724.45,77.33c.16-5.36-3.7-9.12-8.6-10.99-8.5-4.21-16.68-8.37-27.21-13.61-37.87-17.33-54.67-30.87-71.28-32.74-12.44-.02-67.44,32.21-97.53,45.87-6.15,2.55-9.32,5.38-9.45,11.64,0,35.98,0,71.91,0,107.93-.01,32.44-.05,64.84.03,97.3,1.3,11.31,13.87,11.37,23.98,17.72,26.2,12.6,65.82,31.65,71.57,34.42,7.5,3.65,16.79,3.61,24.24-.14,4.04-2.17,65.22-31.55,88.06-42.81,3.76-1.67,6.22-5.52,6.18-9.58,0-68.3,0-136.59,0-204.89v-.12Z"/>
      <path class="cls-7" d="m718.53,86.65l-88.44,43.01c-7.62,3.71-16.52,3.73-24.16.05l-89.57-43.09c-7.9-3.8-7.99-15.02-.15-18.94l90.16-45.09c6.92-3.46,15.07-3.46,21.99,0l90.28,45.14c7.82,3.91,7.76,15.1-.1,18.92Z"/>
      <path class="cls-2" d="m567.52,59.64c-.69-10.58-5.3-9.28-16.78-15.72-5.42-2.71-12.43-6.21-20.02-10.01-25.78-12.89-58.4-29.2-59.25-29.62-6.64-3.32-14.52-3.48-21.28-.36-3.94,2.15-72.07,35.86-91.08,45.53-3.58,1.87-5.68,5.53-5.63,9.44,0,16.23,0,32.57,0,48.84-.07,13.48,0,26.9-.02,40.4.06,69.38-.11,138.64.06,208.01.2,4.47,3.65,8.07,7.7,9.55,25.71,12.27,84.28,40.76,90.27,43.27,7.13,2.62,15.32,2.17,22.02-1.29,6.28-3.44,46.02-22.26,72.55-35.16,8.28-5.06,19.33-6.17,21.33-15.37.42-56.55,0-113.09.14-169.63,0-42.57-.01-85.13-.03-127.7v-.17Z"/>
      <path class="cls-1" d="m561.62,67.78l-88.44,43.01c-7.62,3.71-16.52,3.73-24.16.05l-89.57-43.09c-7.9-3.8-7.99-15.02-.15-18.94L449.46,3.72c6.92-3.46,15.07-3.46,21.99,0l90.28,45.14c7.82,3.91,7.76,15.1-.1,18.92Z"/>
      <path class="cls-5" d="m304.42,123.24c-6.92-3.46-15.07-3.46-21.99,0l-90.16,45.09c-8.64,4.49-5.08,14.53-5.81,22.22.08,28.49-.02,56.93,0,85.47-.08,47.47.54,76.25-.63,129.39.25,8.97.14,22.09,4.55,27.76,13.38,6.74,31.13,15.32,45.59,21.84,33.27,14.26,48.74,31.15,69.73,22.52,7.68-5.42,72.52-33.02,91.75-45.41,2.38-1.88,3.16-5.24,3.07-8.15,0-26.35,0-52.7,0-79.04-.02-31.32.03-62.61-.04-93.89.05-18.07-.05-36.13.03-54.2-1.27-9.12,3.93-23.21-5.81-28.45l-90.28-45.14Z"/>
      <path class="cls-3" d="m282.43,121.43c6.92-3.46,15.07-3.46,21.99,0l90.28,45.14c7.94,3.93,7.49,15.25.04,18.85-24.36,11.86-55.86,27.16-79.33,38.58-8.02,3.86-14.64,8.07-23.5,7.21-3.26-.24-6.57-1.11-9.51-2.47-21.28-10.21-87.42-42.05-89.94-43.26-7.75-3.61-8.16-15.04-.2-18.97l90.16-45.09Z"/>
      <path class="cls-4" d="m24.47,493.99c0,.08,0,.16,0,.25,0,.08,0,.16,0,.25,0,.08,0,.16,0,.25,0,.08,0,.16,0,.25,0,.08,0,.16,0,.25,0,.08,0,.16,0,.25,0,.08,0,.16,0,.25,0,.08,0,.16,0,.25,0,.08,0,.16,0,.25,0,.08,0,.16,0,.25,0,.08,0,.16,0,.25-.02,3.82,1.97,7.64,5.97,9.56l89.57,43.09c7.64,3.68,16.54,3.66,24.16-.05l88.44-43.01c3.98-1.94,5.95-5.75,5.93-9.56,0-.08,0-.16,0-.25,0-.08,0-.16,0-.25,0-.08,0-.16,0-.25,0-.08,0-.16,0-.25,0-.08,0-.16,0-.25,0-.08,0-.16,0-.25,0-.08,0-.16,0-.25,0-.08,0-.16,0-.25,0-.08,0-.16,0-.25,0-.08,0-.16,0-.25,0-.08,0-.16,0-.25,0-.08,0-.16,0-.25-.08-40.39.16-80.76-.08-121.15,0-4.54-3.31-8.04-7.36-9.71-21.66-10.77-65.33-32.72-89.72-44.81-6.28-2.79-13.61-2.8-19.9.02-24.43,12.1-64.7,32.35-85.6,42.78-4.61,2.34-7.62,3.5-9.37,5.83-1.31,1.61-2,4.67-2.04,6.97-.01,40.04,0,80.01,0,120.05,0,.08,0,.16,0,.25Z"/>
      <path class="cls-6" d="m232.56,382.68c-19.73,9.67-82.89,40.25-88.33,42.95-6.47,3.16-14.08,3.7-20.91,1.41-4.87-1.79-35.17-16.77-63.11-30.09-5.88-2.78-13.54-6.5-19.96-9.61-4.47-2.21-7.52-3.56-10.58-5.12-3.91-2.18-5.63-6.58-5.07-10.66.38-3.55,2.95-6.86,6.5-8.31,19.38-9.77,79.69-39.81,89.98-44.98,4-1.9,8.4-2.58,12.66-2.15,4.12.36,8.19,1.93,11.83,4.02,23.51,11.79,83.86,41.85,87.81,43.94,7.13,4.09,6.76,14.94-.69,18.51l-.15.07Z"/>
    </g>
  </g>
</svg>