<?xml version="1.0" encoding="UTF-8"?>
<svg id="Layer_2" data-name="Layer 2" xmlns="http://www.w3.org/2000/svg" xmlns:xlink="http://www.w3.org/1999/xlink" viewBox="0 0 828.52 521.89">
  <defs>
    <style>
      .cls-1 {
        fill: #dedaff;
      }

      .cls-1, .cls-2, .cls-3, .cls-4, .cls-5, .cls-6, .cls-7, .cls-8, .cls-9, .cls-10, .cls-11, .cls-12, .cls-13, .cls-14, .cls-15, .cls-16, .cls-17, .cls-18, .cls-19, .cls-20, .cls-21, .cls-22, .cls-23, .cls-24, .cls-25, .cls-26, .cls-27, .cls-28 {
        stroke-width: 0px;
      }

      .cls-2 {
        fill: #1a4b34;
        filter: url(#drop-shadow-2);
      }

      .cls-3 {
        fill: #ff9434;
      }

      .cls-4 {
        fill: #0094ff;
      }

      .cls-5 {
        filter: url(#drop-shadow-12);
      }

      .cls-5, .cls-7, .cls-9, .cls-14, .cls-17, .cls-18, .cls-19, .cls-21, .cls-23, .cls-24, .cls-26, .cls-27 {
        fill: #339365;
      }

      .cls-6 {
        fill: #c66632;
        filter: url(#drop-shadow-17);
      }

      .cls-7 {
        filter: url(#drop-shadow-5);
      }

      .cls-8 {
        fill: #00417e;
        filter: url(#drop-shadow-1);
      }

      .cls-9 {
        filter: url(#drop-shadow-18);
      }

      .cls-10 {
        fill: none;
      }

      .cls-11 {
        fill: #207e5e;
      }

      .cls-12 {
        fill: #7e2020;
        filter: url(#drop-shadow-3);
      }

      .cls-13 {
        fill: #32c694;
      }

      .cls-14 {
        filter: url(#drop-shadow-8);
      }

      .cls-15 {
        fill: #b76a25;
      }

      .cls-16 {
        fill: #7e4120;
        filter: url(#drop-shadow-4);
      }

      .cls-17 {
        filter: url(#drop-shadow-11);
      }

      .cls-18 {
        filter: url(#drop-shadow-7);
      }

      .cls-19 {
        filter: url(#drop-shadow-6);
      }

      .cls-20 {
        fill: #b72549;
      }

      .cls-21 {
        filter: url(#drop-shadow-13);
      }

      .cls-22 {
        fill: #ff3465;
      }

      .cls-23 {
        filter: url(#drop-shadow-14);
      }

      .cls-24 {
        filter: url(#drop-shadow-15);
      }

      .cls-25 {
        fill: #006ab7;
      }

      .cls-26 {
        filter: url(#drop-shadow-9);
      }

      .cls-27 {
        filter: url(#drop-shadow-10);
      }

      .cls-28 {
        fill: #c63232;
        filter: url(#drop-shadow-16);
      }
    </style>
    <filter id="drop-shadow-1" filterUnits="userSpaceOnUse">
      <feOffset dx="-3" dy="12"/>
      <feGaussianBlur result="blur" stdDeviation="7"/>
      <feFlood flood-color="#000" flood-opacity=".3"/>
      <feComposite in2="blur" operator="in"/>
      <feComposite in="SourceGraphic"/>
    </filter>
    <filter id="drop-shadow-2" filterUnits="userSpaceOnUse">
      <feOffset dx="-3" dy="12"/>
      <feGaussianBlur result="blur-2" stdDeviation="7"/>
      <feFlood flood-color="#000" flood-opacity=".3"/>
      <feComposite in2="blur-2" operator="in"/>
      <feComposite in="SourceGraphic"/>
    </filter>
    <filter id="drop-shadow-3" filterUnits="userSpaceOnUse">
      <feOffset dx="-3" dy="12"/>
      <feGaussianBlur result="blur-3" stdDeviation="7"/>
      <feFlood flood-color="#000" flood-opacity=".3"/>
      <feComposite in2="blur-3" operator="in"/>
      <feComposite in="SourceGraphic"/>
    </filter>
    <filter id="drop-shadow-4" filterUnits="userSpaceOnUse">
      <feOffset dx="-3" dy="12"/>
      <feGaussianBlur result="blur-4" stdDeviation="7"/>
      <feFlood flood-color="#000" flood-opacity=".3"/>
      <feComposite in2="blur-4" operator="in"/>
      <feComposite in="SourceGraphic"/>
    </filter>
    <filter id="drop-shadow-5" filterUnits="userSpaceOnUse">
      <feOffset dx="-3" dy="5"/>
      <feGaussianBlur result="blur-5" stdDeviation="7"/>
      <feFlood flood-color="#000" flood-opacity=".54"/>
      <feComposite in2="blur-5" operator="in"/>
      <feComposite in="SourceGraphic"/>
    </filter>
    <filter id="drop-shadow-6" filterUnits="userSpaceOnUse">
      <feOffset dx="-3" dy="5"/>
      <feGaussianBlur result="blur-6" stdDeviation="7"/>
      <feFlood flood-color="#000" flood-opacity=".54"/>
      <feComposite in2="blur-6" operator="in"/>
      <feComposite in="SourceGraphic"/>
    </filter>
    <filter id="drop-shadow-7" filterUnits="userSpaceOnUse">
      <feOffset dx="-3" dy="5"/>
      <feGaussianBlur result="blur-7" stdDeviation="7"/>
      <feFlood flood-color="#000" flood-opacity=".54"/>
      <feComposite in2="blur-7" operator="in"/>
      <feComposite in="SourceGraphic"/>
    </filter>
    <filter id="drop-shadow-8" filterUnits="userSpaceOnUse">
      <feOffset dx="-3" dy="5"/>
      <feGaussianBlur result="blur-8" stdDeviation="7"/>
      <feFlood flood-color="#000" flood-opacity=".54"/>
      <feComposite in2="blur-8" operator="in"/>
      <feComposite in="SourceGraphic"/>
    </filter>
    <filter id="drop-shadow-9" filterUnits="userSpaceOnUse">
      <feOffset dx="-3" dy="5"/>
      <feGaussianBlur result="blur-9" stdDeviation="7"/>
      <feFlood flood-color="#000" flood-opacity=".54"/>
      <feComposite in2="blur-9" operator="in"/>
      <feComposite in="SourceGraphic"/>
    </filter>
    <filter id="drop-shadow-10" filterUnits="userSpaceOnUse">
      <feOffset dx="-3" dy="5"/>
      <feGaussianBlur result="blur-10" stdDeviation="7"/>
      <feFlood flood-color="#000" flood-opacity=".54"/>
      <feComposite in2="blur-10" operator="in"/>
      <feComposite in="SourceGraphic"/>
    </filter>
    <filter id="drop-shadow-11" filterUnits="userSpaceOnUse">
      <feOffset dx="-3" dy="5"/>
      <feGaussianBlur result="blur-11" stdDeviation="7"/>
      <feFlood flood-color="#000" flood-opacity=".54"/>
      <feComposite in2="blur-11" operator="in"/>
      <feComposite in="SourceGraphic"/>
    </filter>
    <filter id="drop-shadow-12" filterUnits="userSpaceOnUse">
      <feOffset dx="-3" dy="5"/>
      <feGaussianBlur result="blur-12" stdDeviation="7"/>
      <feFlood flood-color="#000" flood-opacity=".54"/>
      <feComposite in2="blur-12" operator="in"/>
      <feComposite in="SourceGraphic"/>
    </filter>
    <filter id="drop-shadow-13" filterUnits="userSpaceOnUse">
      <feOffset dx="-3" dy="5"/>
      <feGaussianBlur result="blur-13" stdDeviation="7"/>
      <feFlood flood-color="#000" flood-opacity=".54"/>
      <feComposite in2="blur-13" operator="in"/>
      <feComposite in="SourceGraphic"/>
    </filter>
    <filter id="drop-shadow-14" filterUnits="userSpaceOnUse">
      <feOffset dx="-3" dy="5"/>
      <feGaussianBlur result="blur-14" stdDeviation="7"/>
      <feFlood flood-color="#000" flood-opacity=".54"/>
      <feComposite in2="blur-14" operator="in"/>
      <feComposite in="SourceGraphic"/>
    </filter>
    <filter id="drop-shadow-15" filterUnits="userSpaceOnUse">
      <feOffset dx="-3" dy="5"/>
      <feGaussianBlur result="blur-15" stdDeviation="7"/>
      <feFlood flood-color="#000" flood-opacity=".54"/>
      <feComposite in2="blur-15" operator="in"/>
      <feComposite in="SourceGraphic"/>
    </filter>
    <filter id="drop-shadow-16" filterUnits="userSpaceOnUse">
      <feOffset dx="-3" dy="5"/>
      <feGaussianBlur result="blur-16" stdDeviation="7"/>
      <feFlood flood-color="#000" flood-opacity=".54"/>
      <feComposite in2="blur-16" operator="in"/>
      <feComposite in="SourceGraphic"/>
    </filter>
    <filter id="drop-shadow-17" filterUnits="userSpaceOnUse">
      <feOffset dx="-3" dy="5"/>
      <feGaussianBlur result="blur-17" stdDeviation="7"/>
      <feFlood flood-color="#000" flood-opacity=".54"/>
      <feComposite in2="blur-17" operator="in"/>
      <feComposite in="SourceGraphic"/>
    </filter>
    <filter id="drop-shadow-18" filterUnits="userSpaceOnUse">
      <feOffset dx="-3" dy="5"/>
      <feGaussianBlur result="blur-18" stdDeviation="7"/>
      <feFlood flood-color="#000" flood-opacity=".54"/>
      <feComposite in2="blur-18" operator="in"/>
      <feComposite in="SourceGraphic"/>
    </filter>
  </defs>
  <g id="Layer_1-2" data-name="Layer 1">
    <g>
      <path class="cls-1" d="m290.2,200.19s-.09.03-.14.05c.04-.02.08-.04.12-.05h.02Z"/>
      <path class="cls-1" d="m824.71,28.85c-44.45,57.73-88.86,115.5-133.22,173.29l-30.53-15.27c-12.61-6.31-27.44-6.31-40.04,0l-46.93,23.46h-.01s-86.97,43.49-86.97,43.49c-2.33,1.17-4.33,2.63-6,4.33-.06.06-.13.12-.19.19-.13.13-.25.25-.36.38-.35.38-.69.77-1.02,1.18h0c-.32.41-.63.83-.92,1.25-.18.25-.35.5-.5.76-.15.23-.29.46-.42.7-.25.42-.48.85-.69,1.28-.09.19-.19.38-.27.57-.11.23-.2.45-.3.68-.01.01-.01.03-.02.05-.1.22-.19.44-.26.67-.1.24-.18.47-.26.71-.41,1.19-.72,2.41-.91,3.64-.05.24-.08.49-.11.73v.02c-.1.74-.16,1.48-.18,2.23,0,.32,0,.64,0,.96,0,.65.03,1.31.1,1.96.02.28.05.56.09.84.09.68.21,1.36.36,2.04.12.55.27,1.1.43,1.64-3.03,9.96.9,21.74,11.75,26.96l71.18,34.24-20.63,7.58-91.13-45.56c-16.46-8.23-35.83-8.23-52.29,0l-91.06,45.53-21.05-7.77,81.28-39.52c8.49-4.13,11.08-13.81,7.75-21.33,3.31-7.46.79-17.06-7.59-21.25l-97.35-48.68,23.04-10.33,112.59,54.16c1.16.56,2.33,1.06,3.52,1.51.59.22,1.19.44,1.79.64s1.2.38,1.8.56c.41.12.82.23,1.23.33.4.1.8.2,1.2.29.01,0,.02,0,.03.01.01,0,.03,0,.05.01h.03s.04.02.06.02c.09.02.18.04.26.05,0,0,.01,0,.02.01.04,0,.08.02.11.02.03.01.06.01.09.02.09.02.17.04.25.05.13.03.26.05.39.08.03.01.06.01.1.02.04,0,.08,0,.12.02.29.06.58.11.88.16.03,0,.05,0,.08,0,.01.01.02.01.03.01.05.01.11.02.16.02.1.03.21.04.31.05.09.02.18.04.27.05.06.01.11.02.17.02.19.04.38.06.57.08.04.01.08.01.12.02.06.01.12.02.18.02.02,0,.03.01.05.01h.02s.03,0,.04.01h.03s.04.01.05.01c.15.01.29.03.44.05h.03s.01.01.02,0t.02,0s.04.01.06.01c0,.01.02.01.03,0,.02.01.04.01.06.01.18.03.35.05.53.06h.04s.03,0,.05,0c0,0,0,0,.01,0h.04c.34.03.69.06,1.03.08.06.01.12.01.18.01.04.01.08.01.12.01.18.02.37.03.55.03.07.01.13.01.19.01.05,0,.11.01.17.01.04.01.08.01.11,0,.01.01.02,0,.02,0,.09.01.18.01.27.02.5.02,1,.02,1.5.02.34,0,.68,0,1.02,0,.19-.01.38-.01.57-.02.18,0,.35-.01.52-.02.24-.01.49-.02.73-.04.18-.01.36-.02.54-.04.17,0,.34-.02.5-.04.19-.02.37-.03.56-.05.29-.03.58-.06.87-.1.12-.01.24-.02.36-.04.54-.06,1.08-.15,1.62-.24.08-.01.17-.02.25-.04.04,0,.09-.01.13-.02h0s.01-.01.01-.01c.02.01.03.01.04,0,.03,0,.06-.01.1-.02h.03s0,0,.02,0c.02,0,.03,0,.05-.01h.04s.01-.01.01-.01c.01.01.02.01.04-.01.01.01.02.01.03,0h.03s.01,0,.02-.01c.01.01.02,0,.03-.01.1,0,.2-.02.3-.05h.02s.02,0,.02-.01t.02,0s0,0,.02,0c.03,0,.07,0,.1-.02,0,.01.02.01.03,0,.01,0,.02,0,.03-.01t.02,0c.16-.03.32-.06.49-.1.08-.01.16-.03.24-.04.1-.03.21-.05.32-.07h0s.07-.02.11-.03c.47-.1.95-.22,1.42-.34,1.23-.32,2.45-.69,3.65-1.11.8-.29,1.6-.59,2.39-.92.79-.33,1.57-.68,2.35-1.06l111.04-53.99,32.17-15.64c8.79-4.28,11.56-14.22,8.29-22.05,3.24-7.77.55-17.63-8.12-21.96l-61.82-30.91c93.76-36.31,187.55-72.56,281.37-108.76,16.85-6.5,31.6,13.27,20.58,27.58Z"/>
      <path class="cls-1" d="m371.38,280.76c3.33,7.52.74,17.2-7.75,21.33l-81.28,39.52-1.54-12.62,82.82-40.27c3.71-1.8,6.29-4.67,7.75-7.96Z"/>
      <path class="cls-1" d="m411.78,258.03s-.04-.01-.06-.01h.06Z"/>
      <path class="cls-1" d="m413.65,258.39s.1.03.16.03c-.06,0-.12-.01-.18-.03h.02Z"/>
      <path class="cls-1" d="m414.58,258.55c-.1-.01-.21-.02-.31-.05-.05,0-.11-.01-.16-.02-.01,0-.02,0-.03-.01-.03,0-.05,0-.08,0-.06-.01-.13-.02-.19-.04.04.02.08.02.13.02.06.01.13.02.19.03.02.01.04.01.06.01.07.02.15.03.23.04.05.01.1.03.16.03Z"/>
      <path class="cls-1" d="m417.41,258.91h-.03.01s.01,0,.01,0c0,0,0,0,0,0Z"/>
      <path class="cls-1" d="m429.99,258.3h-.02.01s.01,0,.01,0Z"/>
      <path class="cls-1" d="m431.28,258.04c-.11.02-.22.04-.32.07-.08.01-.16.03-.24.04.18-.03.37-.07.55-.12.01,0,.01,0,.01,0Z"/>
      <path class="cls-1" d="m474.78,270.96c-.09.74-.15,1.49-.18,2.23.02-.75.08-1.49.18-2.23Z"/>
      <path class="cls-1" d="m475.8,266.57c-.4,1.19-.71,2.41-.91,3.64.19-1.23.5-2.45.91-3.64Z"/>
      <path class="cls-1" d="m570.44,334.21l-11.93,7.62-71.18-34.24c-10.85-5.22-14.78-17-11.75-26.96,1.08,3.51,3.01,6.79,5.79,9.48,1.26,1.21,2.69,2.3,4.3,3.23.53.31,1.09.61,1.66.88l83.11,39.99Z"/>
      <path class="cls-8" d="m585.31,416.34l-132.48,64.42c-19.69,9.57-42.67,9.62-62.4.13l-134.29-64.6c-8.64-4.16-11.33-13.97-8.02-21.63,1.49,3.42,4.16,6.41,8.02,8.27l134.29,64.59c19.73,9.49,42.71,9.45,62.4-.13l132.48-64.41c3.83-1.87,6.48-4.84,7.95-8.24,3.31,7.64.65,17.42-7.95,21.6Z"/>
      <path class="cls-2" d="m290.18,200.19h.02s-.09.03-.14.05c-.02,0-.05.01-.07.03-.18.06-.37.13-.55.21h-.01l-32.39-15.59c-8.83-4.25-11.63-14.21-8.34-22.07,1.5,3.6,4.29,6.76,8.33,8.71l47.79,22.99c-4.87,1.88-9.76,3.77-14.64,5.67Z"/>
      <path class="cls-12" d="m282.35,341.61l-58.95,28.67c-15.15,7.36-32.83,7.4-48,.1l-142.06-68.34c-8.54-4.11-11.16-13.82-7.82-21.36,1.47,3.31,4.07,6.19,7.82,7.99l142.06,68.34c15.17,7.3,32.85,7.27,48-.1l44.91-21.84c4.45,2.28,9.14,4.46,14.04,6.54Z"/>
      <path class="cls-16" d="m794.87,307.66l-130,63.21c-14.45,7.02-31.32,7.06-45.8.09l-60.56-29.13c4.95-2.07,9.68-4.26,14.16-6.55l46.41,22.32c14.48,6.97,31.34,6.93,45.79-.1l130-63.21c1.51-.74,2.9-1.61,4.14-2.58.28-.21.55-.43.81-.66.19-.16.37-.32.55-.49.14-.12.27-.25.4-.38.28-.26.55-.54.81-.82.17-.19.35-.38.51-.58h0c.18-.21.34-.41.5-.61.26-.32.51-.64.75-.98.06-.08.12-.17.18-.26.13-.18.25-.36.36-.54.18-.26.35-.53.5-.8.1-.15.18-.31.27-.47.09-.16.18-.33.27-.5.03-.05.05-.1.08-.15.11-.22.22-.44.32-.66.15-.3.29-.61.41-.92.12-.27.23-.55.33-.83.08-.22.16-.44.23-.66.08-.22.15-.44.22-.66,3.03,9.93-.86,21.67-11.65,26.92Z"/>
      <path class="cls-25" d="m593.26,394.74c-1.47,3.4-4.12,6.37-7.95,8.24l-132.48,64.41c-19.69,9.58-42.67,9.62-62.4.13l-134.29-64.59c-3.86-1.86-6.53-4.85-8.02-8.27-3.28-7.58-.7-17.28,7.8-21.53l47.48-23.75c5.46,1.76,11.1,3.39,16.93,4.9,29.65,7.69,63.89,12.08,100.36,12.08s70.64-4.38,100.26-12.05c5.83-1.51,11.48-3.14,16.93-4.9l47.59,23.8c8.5,4.25,11.08,13.95,7.79,21.53Z"/>
      <path class="cls-11" d="m522.76,110.03c-5.03,1.93-10.04,3.87-15.05,5.83h-.01c-67.65,26.17-135.26,52.39-202.87,78.66h-.01l-47.79-22.99c-4.04-1.95-6.83-5.11-8.33-8.71h0c-3.25-7.78-.57-17.63,8.1-21.96l146-73.01c11.21-5.6,24.4-5.6,35.61,0l84.35,42.18Z"/>
      <path class="cls-20" d="m268.31,335.07l-44.91,21.84c-15.15,7.37-32.83,7.4-48,.1l-142.06-68.34c-3.75-1.8-6.35-4.68-7.82-7.99-3.3-7.45-.79-17.05,7.59-21.25l143.74-71.88c13.54-6.77,29.48-6.77,43.03,0l46.56,23.28c-4.37,2.3-8.49,4.7-12.36,7.19-23.85,15.36-37.88,34.15-37.88,54.45,0,24.05,19.71,45.99,52.11,62.6Z"/>
      <path class="cls-7" d="m411.72,258.01s.03.01.05.01h-.05Z"/>
      <path class="cls-19" d="m413.94,258.44c.06.01.13.02.19.03t-.02.01s-.02,0-.03-.01c-.03,0-.05,0-.08,0-.02-.01-.04-.01-.06-.02Z"/>
      <path class="cls-18" d="m417.4,258.9s0,0,0,0h-.03.01s.01,0,.01,0Z"/>
      <path class="cls-14" d="m429.98,258.29h.01s-.02.01-.02.01h.01Z"/>
      <path class="cls-3" d="m691.49,202.14c-2.47,3.22-4.94,6.44-7.41,9.65-23.43,30.53-46.84,61.05-70.24,91.6,1.49-1.97,2.86-3.99,4.08-6.03h.01s73.56-95.22,73.56-95.22Z"/>
      <path class="cls-15" d="m806.52,280.73h0c-.07.23-.14.45-.22.67-.07.23-.15.45-.23.66-.1.28-.21.56-.33.83-.12.31-.26.62-.41.92-.1.22-.21.44-.32.66-.03.05-.05.1-.08.15-.09.17-.18.34-.27.5-.09.16-.17.32-.27.47-.16.27-.33.54-.5.8l-.36.54c-.06.09-.12.18-.18.26-.24.34-.49.66-.75.98-.16.2-.32.4-.5.6h0c-.16.21-.34.4-.51.59-.26.28-.53.56-.81.82-.13.13-.26.26-.4.38-.18.17-.36.33-.55.49-.26.23-.53.45-.81.66-1.24.97-2.63,1.84-4.14,2.58l-130,63.21c-14.45,7.03-31.31,7.07-45.79.1l-46.41-22.32c14.5-7.39,26.46-15.83,35.3-25.06.02-.02.05-.05.07-.08,2.03-2.11,3.88-4.27,5.57-6.46.04-.05.08-.1.12-.15.04-.05.07-.09.11-.14,23.4-30.55,46.81-61.07,70.24-91.6,2.47-3.21,4.94-6.43,7.41-9.65l103.6,51.79c10.65,5.32,14.43,16.96,11.43,26.8Z"/>
      <g>
        <path class="cls-10" d="m289.48,200.5l-23.04,10.33c7.06-3.72,14.74-7.18,22.99-10.35h.01l.04.02Z"/>
        <path class="cls-10" d="m282.35,341.61l21.05,7.77c-7.39-2.38-14.42-4.98-21.05-7.77Z"/>
        <path class="cls-10" d="m411.78,258.03s-.04-.01-.06-.01h.06Z"/>
        <path class="cls-10" d="m413.65,258.39s.1.03.16.03c-.06,0-.12-.01-.18-.03h.02Z"/>
        <path class="cls-10" d="m414.58,258.55c-.1-.01-.21-.02-.31-.05-.05,0-.11-.01-.16-.02-.01,0-.02,0-.03-.01-.03,0-.05,0-.08,0-.06-.01-.13-.02-.19-.04.04.02.08.02.13.02.06.01.13.02.19.03.02.01.04.01.06.01.07.02.15.03.23.04.05.01.1.03.16.03Z"/>
        <path class="cls-10" d="m417.41,258.91h-.03.01s.01,0,.01,0c0,0,0,0,0,0Z"/>
        <path class="cls-10" d="m429.99,258.3h-.02.01s.01,0,.01,0Z"/>
        <path class="cls-10" d="m431.28,258.04c-.11.02-.22.04-.32.07-.08.01-.16.03-.24.04.18-.03.37-.07.55-.12.01,0,.01,0,.01,0Z"/>
        <path class="cls-10" d="m558.51,341.83c-6.5,2.73-13.4,5.26-20.63,7.58l20.63-7.58Z"/>
        <path class="cls-26" d="m289.99,200.27l-.51.23-.04-.02c.18-.08.37-.15.55-.21Z"/>
        <path class="cls-27" d="m411.78,258.03s-.04-.01-.06-.01h.06Z"/>
        <path class="cls-17" d="m413.65,258.39s.1.03.16.03c-.06,0-.12-.01-.18-.03h.02Z"/>
        <path class="cls-5" d="m413.94,258.44s.04.01.06.02c-.06-.01-.13-.02-.19-.04.04.02.08.02.13.02Z"/>
        <path class="cls-21" d="m414.19,258.48s.05.02.08.02c-.05,0-.11-.01-.16-.02t.02-.01s.04.01.06.01Z"/>
        <path class="cls-23" d="m414.58,258.55c-.1-.01-.21-.02-.31-.05.05.01.1.01.15.02s.1.03.16.03Z"/>
        <path class="cls-24" d="m431.28,258.04c-.11.02-.22.04-.32.07.11-.03.21-.05.31-.08.01,0,.01,0,.01,0Z"/>
        <path class="cls-28" d="m363.63,302.09l-81.28,39.52c-4.9-2.08-9.59-4.26-14.04-6.54l12.5-6.08,82.82-40.27c3.71-1.8,6.29-4.67,7.75-7.96,3.33,7.52.74,17.2-7.75,21.33Z"/>
        <path class="cls-6" d="m572.67,335.28c-4.48,2.29-9.21,4.48-14.16,6.55l-71.18-34.24c-10.85-5.22-14.78-17-11.75-26.96,1.08,3.51,3.01,6.79,5.79,9.48,1.26,1.21,2.69,2.3,4.3,3.23.53.32,1.09.61,1.66.89l83.11,39.98,2.23,1.07Z"/>
        <path class="cls-4" d="m537.88,349.41c-5.45,1.76-11.1,3.39-16.93,4.9-29.62,7.67-63.82,12.05-100.26,12.05s-70.71-4.39-100.36-12.08c-5.83-1.51-11.47-3.14-16.93-4.9l91.06-45.53c16.46-8.23,35.83-8.23,52.29,0l91.13,45.56Z"/>
        <path class="cls-22" d="m371.38,280.76c-1.46,3.29-4.04,6.16-7.75,7.96l-82.82,40.27-12.5,6.08c-32.4-16.61-52.11-38.55-52.11-62.6,0-20.3,14.03-39.09,37.88-54.45,3.87-2.49,7.99-4.89,12.36-7.19l97.35,48.68c8.38,4.19,10.9,13.79,7.59,21.25Z"/>
        <path class="cls-3" d="m691.49,202.14l-73.56,95.21h-.01c-1.22,2.05-2.59,4.07-4.08,6.04-.04.05-.07.09-.11.14-.04.05-.08.1-.12.15-1.69,2.19-3.54,4.35-5.57,6.46-.02.03-.05.06-.07.08-8.84,9.23-20.8,17.67-35.3,25.06l-2.23-1.07-83.11-39.99c-.57-.27-1.13-.57-1.66-.88-1.61-.93-3.04-2.02-4.3-3.23-2.78-2.69-4.71-5.97-5.79-9.48-.16-.54-.31-1.09-.43-1.64-.15-.68-.27-1.36-.36-2.04-.04-.28-.07-.56-.09-.84-.07-.65-.1-1.31-.1-1.96,0-.32,0-.64,0-.96.03-.74.09-1.49.18-2.23v-.02c.04-.24.07-.49.11-.73.2-1.23.51-2.45.91-3.64.08-.24.16-.47.26-.71.08-.23.17-.45.26-.67.01-.02.01-.04.02-.05.1-.23.19-.45.3-.68.08-.19.17-.38.27-.57.21-.43.44-.86.69-1.28.13-.24.27-.47.42-.7.15-.26.32-.51.5-.76.29-.42.6-.84.92-1.24h0c.33-.42.67-.81,1.02-1.19.11-.13.23-.25.36-.38.06-.07.13-.13.19-.19,1.67-1.7,3.67-3.16,6-4.33l86.97-43.48h.01s46.93-23.47,46.93-23.47c12.6-6.31,27.43-6.31,40.04,0l30.53,15.27Z"/>
      </g>
      <path class="cls-9" d="m584.41,184.95l-32.17,15.64-111.04,53.99c-.78.38-1.56.73-2.35,1.06-.79.33-1.59.63-2.39.92-1.2.42-2.42.79-3.65,1.11-.47.12-.95.24-1.42.34-.04.01-.08.02-.11.02h0s0,0-.01,0c-.18.05-.37.09-.55.12-.17.04-.33.07-.49.1t-.02,0s-.02.01-.03.01c-.01.01-.02.01-.03,0-.03.02-.07.02-.1.02t-.02,0s-.01.01-.02,0c0,.01-.01.01-.02.01h-.01s-.01,0-.01,0c-.1.03-.2.04-.3.05-.01.01-.02.02-.03.01-.01.01-.02.01-.02.01t-.02-.01h0s0,.01,0,.01c-.01.01-.02.01-.03,0-.01.01-.03.02-.04.01h-.02s-.03.01-.03.01c-.02.01-.03.01-.05.01-.01,0-.02,0-.02,0h-.06s-.07.02-.11.02h-.01s-.08.03-.13.03c-.08.02-.17.03-.25.04-.54.09-1.08.17-1.62.24-.12.02-.24.03-.36.04-.29.04-.58.07-.87.1-.19.02-.37.03-.56.05-.16.02-.33.03-.5.04-.18.02-.36.03-.54.04-.24.02-.49.03-.73.04-.17.01-.34.02-.52.02-.19.01-.38.01-.57.02-.34,0-.68,0-1.02,0-.5,0-1,0-1.5-.02-.09-.01-.18-.01-.27-.02,0,0-.01.01-.02,0h-.11c-.06,0-.12-.01-.17-.01-.06,0-.12,0-.19-.01-.18,0-.37,0-.55-.03-.04,0-.08,0-.12-.01-.06,0-.12,0-.18-.01-.34-.02-.69-.05-1.03-.08,0,0,0,0,0,0h-.02s0,0-.01,0-.01,0-.01,0c-.02,0-.03,0-.05,0h-.04c-.18-.01-.35-.03-.53-.06-.02,0-.04,0-.06-.01-.01.01-.02.01-.03,0-.02,0-.04,0-.06-.01t-.02,0h-.05c-.15-.02-.29-.04-.44-.05-.01,0-.03,0-.05-.01h-.03s-.03-.01-.04-.01h-.02s-.03-.01-.05-.01c-.06,0-.12-.01-.18-.02-.04,0-.08,0-.12-.02-.19-.02-.38-.04-.57-.08-.06,0-.11-.01-.17-.02-.09,0-.18-.03-.27-.05-.06,0-.11-.02-.16-.03-.08-.01-.16-.02-.23-.04-.02,0-.04,0-.06-.01-.06,0-.13-.02-.19-.03-.05,0-.09,0-.13-.02-.06,0-.11-.01-.16-.03h-.02s-.03,0-.04-.01c-.05,0-.09-.01-.13-.02-.1-.01-.19-.03-.28-.05-.02,0-.04-.01-.06-.01-.04-.01-.08-.01-.12-.02-.04-.01-.07-.01-.1-.02-.13-.03-.26-.05-.39-.08-.08-.01-.16-.03-.25-.05-.03-.01-.06-.01-.09-.02-.03,0-.07-.01-.11-.02-.01-.01-.02-.01-.02-.01-.08-.01-.17-.03-.26-.05h-.01s-.04-.01-.05-.02h-.03s-.04-.01-.05-.01c-.01-.01-.02-.01-.03-.01-.4-.09-.8-.19-1.2-.29-.41-.1-.82-.21-1.23-.33-.6-.18-1.2-.36-1.8-.56s-1.2-.42-1.79-.64c-1.19-.45-2.36-.95-3.52-1.51l-112.59-54.16.51-.23s.05-.03.07-.03c.05-.02.09-.04.14-.05h-.02c4.88-1.9,9.77-3.79,14.64-5.67h.01l.73.35,7.08,3.41,89.43,43.03c12.38,5.94,26.79,5.92,39.13-.09l95.05-46.21,48.16-23.43c4.03-1.95,6.79-5.1,8.29-8.68,3.27,7.83.5,17.77-8.29,22.05Z"/>
      <path class="cls-13" d="m592.7,162.9c-1.5,3.58-4.26,6.73-8.29,8.68l-48.16,23.43-95.05,46.21c-12.34,6.01-26.75,6.03-39.13.09l-89.43-43.03-7.08-3.41-.73-.35c67.61-26.27,135.22-52.49,202.87-78.66h.01c5.01-1.96,10.02-3.9,15.05-5.83l61.82,30.91c8.67,4.33,11.36,14.19,8.12,21.96Z"/>
      <path class="cls-10" d="m289.43,200.48h.01c.18-.08.37-.15.55-.21"/>
      <path class="cls-10" d="m290.18,200.19s-.08.03-.12.05"/>
    </g>
  </g>
</svg>