<?xml version="1.0" encoding="UTF-8"?>
<svg id="Layer_2" data-name="Layer 2" xmlns="http://www.w3.org/2000/svg" xmlns:xlink="http://www.w3.org/1999/xlink" viewBox="0 0 664 598">
  <defs>
    <style>
      .cls-1 {
        fill: #f36;
        filter: url(#drop-shadow-4);
      }

      .cls-1, .cls-2, .cls-3, .cls-4, .cls-5 {
        stroke-width: 0px;
      }

      .cls-2 {
        fill: #0093ff;
        filter: url(#drop-shadow-1);
      }

      .cls-3 {
        fill: #33c693;
        filter: url(#drop-shadow-2);
      }

      .cls-4 {
        fill: #ff9333;
        filter: url(#drop-shadow-3);
      }

      .cls-5 {
        fill: #fff;
        filter: url(#drop-shadow-5);
      }
    </style>
    <filter id="drop-shadow-1" filterUnits="userSpaceOnUse">
      <feOffset dx="0" dy="12"/>
      <feGaussianBlur result="blur" stdDeviation="7"/>
      <feFlood flood-color="#000" flood-opacity=".2"/>
      <feComposite in2="blur" operator="in"/>
      <feComposite in="SourceGraphic"/>
    </filter>
    <filter id="drop-shadow-2" filterUnits="userSpaceOnUse">
      <feOffset dx="0" dy="12"/>
      <feGaussianBlur result="blur-2" stdDeviation="7"/>
      <feFlood flood-color="#000" flood-opacity=".2"/>
      <feComposite in2="blur-2" operator="in"/>
      <feComposite in="SourceGraphic"/>
    </filter>
    <filter id="drop-shadow-3" filterUnits="userSpaceOnUse">
      <feOffset dx="0" dy="12"/>
      <feGaussianBlur result="blur-3" stdDeviation="7"/>
      <feFlood flood-color="#000" flood-opacity=".2"/>
      <feComposite in2="blur-3" operator="in"/>
      <feComposite in="SourceGraphic"/>
    </filter>
    <filter id="drop-shadow-4" filterUnits="userSpaceOnUse">
      <feOffset dx="0" dy="12"/>
      <feGaussianBlur result="blur-4" stdDeviation="7"/>
      <feFlood flood-color="#000" flood-opacity=".2"/>
      <feComposite in2="blur-4" operator="in"/>
      <feComposite in="SourceGraphic"/>
    </filter>
    <filter id="drop-shadow-5" filterUnits="userSpaceOnUse">
      <feOffset dx="-3" dy="12"/>
      <feGaussianBlur result="blur-5" stdDeviation="10"/>
      <feFlood flood-color="#000" flood-opacity=".3"/>
      <feComposite in2="blur-5" operator="in"/>
      <feComposite in="SourceGraphic"/>
    </filter>
  </defs>
  <g id="Layer_1-2" data-name="Layer 1">
    <g>
      <circle class="cls-2" cx="227.41" cy="289.93" r="17.84"/>
      <circle class="cls-3" cx="299.18" cy="289.93" r="17.84"/>
      <circle class="cls-4" cx="370.94" cy="289.93" r="17.84"/>
      <circle class="cls-1" cx="442.7" cy="289.93" r="17.84"/>
      <path class="cls-5" d="m620.31,236.51c-7.94-5.37-17.02-7.07-23.64-7.64.31-1.17,3.04-12.38-6.23-21.42-10.56-10.29-26.53-7.85-27.19-7.74-3.82-23.34-16.65-85.41-92.08-137.65-13.91-9.63-43.63-29.76-89.72-39.05-9.44-1.9-47.07-8.9-94.76-.52-10.19,1.79-50.95,9.57-89.25,33.84-79.38,50.3-89.23,134.07-90.68,148.74-.66-.11-16.62-2.55-27.19,7.74-9.28,9.04-6.54,20.25-6.23,21.42-6.62.57-15.7,2.27-23.64,7.64-16.27,11-16.5,29.76-16.3,65.95.29,53.29,12.94,63.1,17.12,65.95,7.35,5.01,15.49,6.86,21.19,7.64.09,4.13,1.09,9.77,5.71,13.88,6.76,6.03,16.77,3.65,33.42,4.17,47.13,1.46,57.36,2.3,66.02-4.86,3.11-2.57,6.96-6.95,8.97-14.58-.27-50.45-.54-100.89-.82-151.34-1.05-2.98-4.06-10.1-12.23-15.97-6.3-4.53-12.79-6.24-16.3-6.94-.38-8.56-.02-21.29,4.08-36.1,14.99-54.26,65.45-82.92,75.4-88.34,41.93-22.83,83.5-23.87,99.51-23.56,9.71.19,58.63,1.81,105.15,31.76,10.42,6.71,35.59,24.41,53.8,55.19,13.2,22.32,17.54,42.71,19.11,55.69-3.51.7-10,2.42-16.3,6.94-8.16,5.87-11.18,12.99-12.23,15.97-.27,50.45-.54,100.89-.82,151.34,2,7.62,5.85,12.01,8.97,14.58,5.89,4.87,12.52,6.04,30.94,5.83-4.4,15.62-11.46,31.93-22.4,47.91-24.61,35.95-58,54.57-88.06,64.13-6.16-9.53-17.26-15.42-29.35-14.34-17.37,1.55-30.2,16.89-28.65,34.26,1.55,17.37,16.89,30.2,34.26,28.65,15.29-1.36,27.06-13.42,28.6-28.13,11.61-3.63,22.75-8.17,33.31-13.63,27.48-14.19,50.09-34.07,67.22-59.09,13.83-20.2,22.15-40.85,26.91-60.33,4.06-.13,8.45-.27,13.24-.42,16.65-.51,26.66,1.87,33.42-4.17,4.62-4.12,5.61-9.76,5.71-13.88,5.7-.78,13.84-2.63,21.19-7.64,4.18-2.85,16.83-12.66,17.12-65.95.2-36.19-.03-54.96-16.3-65.95Z"/>
    </g>
  </g>
</svg>